<?xml version="1.0" encoding="UTF-8" standalone="no"?>
<svg xmlns="http://www.w3.org/2000/svg" xmlns:xlink="http://www.w3.org/1999/xlink" version="1.1" viewBox="0 0 101 156" id="pad" >
  <defs>
    <clipPath id="cpf">
      <rect width="100" height="155" ry="8" x="0" y="0" id="card" style="fill:#ffffff;stroke:#000000;stroke-width:1" />
    </clipPath>
  <g id="sp">
    <path d="M 10.8,28 C 11.2,28.6 11.9,28.9 12.6,28.9 14,28.9 14.8,27.7 14.8,26.5 14.8,23.8 11.9,22.5 10.5,20 9.1,22.5 6.2,23.8 6.2,26.5 6.2,27.7 7,28.9 8.4,28.9 9.1,28.9 9.8,28.6 10.2,28 10.2,28.8 9.9,30.2 9,30.9 L 12,30.9 C 11.1,30.2 10.8,28.8 10.8,28 z" id="sp0" />
    <path d="M 10.01,21.12 C 10.64,20.38 10.65,21.29 10.32,21.53 10.16,21.65 10.02,21.81 9.84,22.02 8.66,23.34 7.7,24.07 7.17,25.28 7.03,25.59 6.62,25.42 6.88,24.84 7.27,23.93 8.86,22.48 10.01,21.12 z M 10.09,29.71 C 10.14,29.58 10.18,29.45 10.24,29.26 10.35,28.86 10.71,29.16 10.38,29.91 10.25,30.17 9.92,30.16 10.09,29.71 z" style="opacity:0.8;fill:white" />
  </g>
    <path d="M 8.60156,16.6719 13.9609,16.6719 13.9609,18 6.875,18 6.875,16.6719 C 7.84896,15.6458 8.70052,14.7396 9.42969,13.9531 10.1588,13.1667 10.6615,12.612 10.9375,12.2891 11.4583,11.6537 11.8099,11.1406 11.9922,10.75 12.1745,10.3542 12.2656,9.95053 12.2656,9.53906 12.2656,8.88803 12.0729,8.37761 11.6875,8.00781 11.3073,7.63803 10.7838,7.45314 10.1172,7.45312 9.64323,7.45314 9.14583,7.53907 8.625,7.71094 8.10416,7.88282 7.55208,8.14324 6.96875,8.49219 L 6.96875,6.89844 C 7.50521,6.64324 8.03125,6.45053 8.54687,6.32031 9.0677,6.19012 9.58073,6.12501 10.0859,6.125 11.2266,6.12501 12.1432,6.4297 12.8359,7.03906 13.5338,7.64324 13.8828,8.43751 13.8828,9.42187 13.8828,9.92188 13.7656,10.4219 13.5312,10.9219 13.3021,11.4219 12.9271,11.974 12.4062,12.5781 12.1146,12.9167 11.6901,13.3854 11.1328,13.9844 10.5807,14.5833 9.73698,15.4792 8.60156,16.6719" id="t2" />
  </defs>
  <g transform="translate(0.5,0.5)" id="2_spade">
    <use xlink:href="#card" />
    <use xlink:href="#t2" />
    <use transform="translate(79,0)" xlink:href="#t2" />
    <use transform="matrix(-1,0,0,-1,21,155)" xlink:href="#t2" />
    <use transform="matrix(-1,0,0,-1,100,155)" xlink:href="#t2" />
    <use id="use10081" xlink:href="#sp0" />
    <use transform="translate(79,0)" xlink:href="#sp0" />
    <use transform="matrix(-1,0,0,-1,21,155)" xlink:href="#sp0" />
    <use transform="matrix(-1,0,0,-1,100,155)" xlink:href="#sp0" />
    <use transform="matrix(2,0,0,2,29,-23)" xlink:href="#sp" />
    <use transform="matrix(-2,0,0,-2,71,178)" xlink:href="#sp" />
  </g>
</svg>
