<?xml version="1.0" encoding="UTF-8" standalone="no"?>
<svg xmlns="http://www.w3.org/2000/svg" xmlns:xlink="http://www.w3.org/1999/xlink" version="1.1" viewBox="0 0 101 156" id="pad" >
  <defs>
    <clipPath id="cpf">
      <rect width="100" height="155" ry="8" x="0" y="0" id="card" style="fill:#ffffff;stroke:#000000;stroke-width:1" />
    </clipPath>
    <g id="cl">
      <path d="M 11.25,28.3 A 1,1 0 0 0 10.8,28 C 10.8,29 11.1,30.2 12,30.9 L 9,30.9 C 9.9,30.2 10.2,29 10.2,28 A 1,1 0 0 0 9.75,28.3 2.2,2.2 0 1 1 9.8,25.3 1,1 0 0 0 10.02,25.46 2.5,2.5 0 0 0 9.1,24.2 2.2,2.2 0 1 1 11.9,24.2 2.5,2.5 0 0 0 10.98,25.46 1,1 0 0 0 11.2,25.3 2.2,2.2 0 1 1 11.25,28.3" id="cl0" />
      <path d="M 6.5,25.75 C 6.22,26.19 6.76,26.27 6.88,26.08 7.27,25.43 7.95,25.19 8.64,25.35 8.81,25.39 9.03,25.04 8.67,24.91 7.95,24.63 6.96,25.02 6.5,25.75 z M 11.86,25.48 C 12.32,25.34 12.86,25.22 13.27,25.37 13.44,25.44 13.67,25.03 13.31,24.91 12.82,24.74 12.22,24.83 11.74,25.13 11.51,25.28 11.45,25.6 11.86,25.48 z M 8.83,21.49 C 8.54,21.93 9.09,22.01 9.21,21.81 9.6,21.16 10.29,20.9 10.96,21.11 11.13,21.16 11.36,20.77 11,20.64 10.26,20.39 9.29,20.76 8.83,21.49 z M 10.09,29.71 C 10.14,29.58 10.18,29.45 10.24,29.26 10.35,28.86 10.71,29.16 10.38,29.91 10.25,30.17 9.92,30.16 10.09,29.71 z" style="opacity:0.8;fill:#ffffff" />
    </g>
    <path d="M 6.53906,17.5234 6.53906,15.6797 C 7.01302,16.1016 7.5026,16.4193 8.00781,16.6328 8.51302,16.8411 9.03645,16.9453 9.57812,16.9453 10.3229,16.9453 10.8411,16.7526 11.1328,16.3672 11.4297,15.9766 11.5781,15.2526 11.5781,14.1953 L 11.5781,7.66406 8.60156,7.66406 8.60156,6.33594 13.1562,6.33594 13.1562,14.1953 C 13.1562,15.6641 12.8802,16.7031 12.3281,17.3125 11.7812,17.9219 10.8646,18.2266 9.57812,18.2266 9.07812,18.2266 8.58073,18.1693 8.08594,18.0547 7.59114,17.9401 7.07552,17.763 6.53906,17.5234" id="tJ" />
    <clipPath id="pfc">
      <rect width="63.5" height="120.5" x="18.25" y="17.25" id="pfl" style="fill:none;stroke:#000000;stroke-width:0.5" />
    </clipPath>
    <clipPath id="cjc1">
      <path d="M 45,41.4 C 38,42 29,48 23,54 L 23,64 43,70 55,84 77,92 77,71 C 74,64 72.5,59 72.5,50 L 63.8,44.6 z" id="cju2" />
    </clipPath>
    <clipPath id="cjc2">
      <path d="M 32.5,108.64 A 77,75.8 0 0 0 19.04,56.48 L 22.92,52.28 A 82.6,81.4 0 0 1 37.6,112.34 z" id="cju3" />
    </clipPath>
  </defs>
  <g transform="translate(0.5,0.5)" id="jack_club">
    <use xlink:href="#card" />
    <use xlink:href="#tJ" />
    <use transform="translate(79,0)" xlink:href="#tJ" />
    <use transform="matrix(-1,0,0,-1,21,155)" xlink:href="#tJ" />
    <use transform="matrix(-1,0,0,-1,100,155)" xlink:href="#tJ" />
    <use xlink:href="#cl0" />
    <use transform="translate(79,0)" xlink:href="#cl0" />
    <use transform="matrix(-1,0,0,-1,21,155)" xlink:href="#cl0" />
    <use transform="matrix(-1,0,0,-1,100,155)" xlink:href="#cl0" />
    <g clip-path="url(#pfc)">
      <g clip-path="url(#cjc1)" id="cjg1">
        <use style="fill:#0022cc" xlink:href="#cju2" />
        <path d="M 49,46 56,53 61,48 52,44 z" style="fill:#fdf9ee" />
        <path d="M 42,50 63,54 63,78 50,78 42,68 z" style="fill:#fa0000" />
        <path d="M 52.5,54 52.5,79" style="stroke:#000000;stroke-width:10" />
        <path d="M 52,54 52,79" style="stroke:#ffce09;stroke-width:2" />
        <path d="M 49,77 55,70.5 49,64 55,57.5 52,54.25 49,57.5 55,64 49,70.5 55,77 52,80.25 z" style="fill:none;stroke:#000000;stroke-width:3.3;stroke-miterlimit:0.5" />
        <path d="M 49,77 55,70.5 49,64 55,57.5 52,54.25 49,57.5 55,64 49,70.5 55,77 52,80.25 z" style="fill:none;stroke:#ffce09;stroke-width:2.3;stroke-miterlimit:0.5" />
        <path d="M 49,77 55,70.5 49,64 55,57.5 52,54.25 49,57.5 55,64 49,70.5 55,77 52,80.25 z" style="fill:none;stroke:#000000;stroke-width:0.5" />
        <path d="M 48.5,54 48.5,73 M 55.5,82 55.5,59" style="stroke:#000000;stroke-width:2" />
        <path d="M 48.5,54 48.5,73 M 55.5,82 55.5,59" style="stroke:#ffce09;stroke-width:1" />
        <path d="M 42.3,44 56,57.7 64,49.7" style="fill:none;stroke:#000000;stroke-width:8" />
        <path d="M 42.3,43.2 56,56.9 64,48.9" style="fill:none;stroke:#ffce09;stroke-width:5.8" />
        <path d="M 42.3,43.2 56,56.9 64,48.9" style="fill:none;stroke:#000000;stroke-width:3.8" />
        <path d="M 42,44.3 44.9,44.3 44.9,47.2 47.8,47.2 47.8,50.1 50.7,50.1 50.7,53 53.6,53 53.6,55.9 58.4,55.9 58.4,53 61.3,53 61.3,50.1 64.2,50.1" style="fill:none;stroke:#ffce09;stroke-width:1;stroke-linejoin:round" />
        <rect width="6" height="24" x="35" y="42" style="fill:#ffffff" />
        <path d="M 41,42 35,48.5 41,55 35,61.5 41,68 M 35,42 41,48.5 35,55 41,61.5 35,68" style="fill:none;stroke:#0022cc;stroke-width:2.8" />
        <path d="M 41,42 35,48.5 41,55 35,61.5 41,68 M 35,42 41,48.5 35,55 41,61.5 35,68" style="fill:none;stroke:#ffffff;stroke-width:0.8" />
        <path d="M 33.8,42 33.8,66 M 42.2,41 42,67" style="fill:none;stroke:#000000;stroke-width:2.4" />
        <path d="M 72.31,59.38 C 73.03,63.44 74.05,66.44 75.8,70.56 L 75.8,88 C 71.75,79.93 69.14,71.17 68.24,62.22 z" style="fill:#000000;stroke:#fa0000;stroke-width:1.5;stroke-miterlimit:8" />
      </g>
      <use style="fill:none;stroke:#000000;stroke-width:0.5" xlink:href="#cju2" />
      <use transform="matrix(-1,0,0,-1,100,155)" xlink:href="#cjg1" />
      <use transform="matrix(-1,0,0,-1,100,155)" style="fill:none;stroke:#000000;stroke-width:0.5" xlink:href="#cju2" />
      <g id="cgj2">
        <path d="M 56,83 66,74" style="stroke:#000000;stroke-width:6.6" />
        <path d="M 56,83 66,74" style="stroke:#ffce09;stroke-width:5.6" />
        <path d="M 56,83 66,74" style="stroke:#000000;stroke-width:3.6" />
        <use transform="matrix(0.202,0.222,-0.222,0.202,66.1,69.6)" style="fill:#ffce09;fill-opacity:1" xlink:href="#cl0" />
        <use transform="matrix(0.202,0.222,-0.222,0.202,63,72.4)" style="fill:#ffce09;fill-opacity:1" xlink:href="#cl0" />
      </g>
      <use transform="matrix(-1,0,0,-1,100,155)" xlink:href="#cgj2" />
      <path d="M 30,67 31,67 C 41,67 45,70 50,77.5 55,85 59,88 69,88 L 70,88" id="cju1" style="fill:none" />
      <use style="stroke:#000000;stroke-width:6.2" xlink:href="#cju1" />
      <use style="stroke:#ffce09;stroke-width:5.2" xlink:href="#cju1" />
      <use style="stroke:#000000;stroke-width:3;stroke-dasharray:3, 1;stroke-dashoffset:1.5" xlink:href="#cju1" />
      <use style="stroke:#ffce09;stroke-width:2;stroke-linecap:round;stroke-dasharray:0, 4" xlink:href="#cju1" />
      <g id="cjg3">
        <path d="M 34.8,123.7 C 34.3,121.7 33.4,119.4 32.3,117.7 A 1.5,1.5 0 1 1 33.4,115.7 L 34.8,118.5 M 34.8,115.8 C 34.3,113.8 33.2,112.3 32.1,111.1 A 1.5,1.5 0 1 1 33.2,109.1 L 35.8,110.2" style="fill:#ffce09;stroke:#000000;stroke-width:0.5" />
        <path d="M 33,93 27.5,97 27.5,105 33,109" style="fill:#000000;stroke:#000000;stroke-width:0.5" />
        <path d="M 34.9,94.4 31.5,96.9 33.1,99 31.6,101 33.1,103 31.5,105.1 34.9,107.6 M 32.7,94.1 29.3,96.6 31.1,99 29.6,101 31.1,103 29.3,105.4 32.7,107.9" id="path4176" style="fill:none;stroke:#ffce09;stroke-opacity:1" />
        <g clip-path="url(#cjc2)">
          <use style="fill:#ffffff" xlink:href="#cju3" />
          <path d="M 21.38,59.94 29.39,62.61 26.99,70.59 34.47,74.5 30.82,82.04 37.57,87.08 32.76,93.96 38.6,100 32.76,106.04 35.08,109.36 38.34,106.48 33,100 38.34,93.52 32.03,87.96 36.27,80.73 29.14,76.24 32.17,68.45 24.4,65.15 26.15,57.01 21.93,55.82 z" style="fill:none;stroke:#0022cc;stroke-width:2.8" />
          <path d="M 21.38,59.94 29.39,62.61 26.99,70.59 34.47,74.5 30.82,82.04 37.57,87.08 32.76,93.96 38.6,100 32.76,106.04 35.08,109.36 38.34,106.48 33,100 38.34,93.52 32.03,87.96 36.27,80.73 29.14,76.24 32.17,68.45 24.4,65.15 26.15,57.01 21.93,55.82 z" style="fill:none;stroke:#ffffff;stroke-width:0.8" />
        </g>
        <use style="fill:none;stroke:#000000;stroke-width:0.5" xlink:href="#cju3" />
        <path d="M 17.5,39.5 22.9,45.1 22.9,124 17.5,124 z" id="cju4" />
        <g id="cjg4">
          <path d="M 17.5,55.1 22.9,49.5 M 17.5,57.3 22.9,51.7" style="fill:none;stroke:#ffce09;stroke-width:1" />
          <circle cx="20.2" cy="45.5" r="0.7" id="cju5" style="fill:#ffce09;fill-opacity:1" />
          <use transform="translate(-1,1.8)" xlink:href="#cju5" />
          <use transform="translate(1,1.8)" xlink:href="#cju5" />
          <use transform="translate(0,3.6)" xlink:href="#cju5" />
        </g>
        <use transform="translate(0,12.2)" xlink:href="#cjg4" />
        <use transform="translate(0,24.4)" xlink:href="#cjg4" />
        <use transform="translate(0,36.6)" xlink:href="#cjg4" />
        <use transform="translate(0,48.8)" xlink:href="#cjg4" />
        <use transform="translate(0,61)" xlink:href="#cjg4" />
        <use transform="translate(0,73.2)" xlink:href="#cjg4" />
        <use style="fill:none;stroke:#000000;stroke-width:2" xlink:href="#cju4" />
        <use style="fill:none;stroke:#ffce09;stroke-width:1" xlink:href="#cju4" />
        <path d="M 23.65,103 23.65,96 C 25.2,96.3 26.7,97.3 27.3,99 27.8,100.4 27.6,101.8 27.3,102.8 26.7,104.8 24,106 22,106 A 1.2,1 0 0 1 22,104 C 23,104 24,103 24.3,101.6" style="fill:#fdf9ee;stroke:#000000;stroke-width:0.5" />
        <path d="M 27.5,97 A 9,9 0 0 1 27.5,105" style="fill:none;stroke:#000000;stroke-width:2.4;stroke-linecap:round" />
        <path d="M 27.5,97 A 9,9 0 0 1 27.5,105" style="fill:none;stroke:#ffce09;stroke-width:1.4;stroke-linecap:round" />
        <path d="M 17,124 24.7,124 17,133.5 z" style="fill:#fa0000;stroke:#000000;stroke-width:2;stroke-miterlimit:5" />
        <path d="M 17,124 24.7,124 17,133.5 z" style="fill:none;stroke:#ffce09;stroke-width:1;stroke-miterlimit:5" />
      </g>
      <use transform="matrix(-1,0,0,-1,100,155)" xlink:href="#cjg3" />
      <g id="cjg5">
        <path d="M 67,24 C 68,27 71,30 73.2,29 72.7,25 71.3,21 69,19" style="fill:#ffce09;stroke:#000000;stroke-width:0.5" />
        <path d="M 68,21 C 70,23 70.4,25.5 71.4,27.5 L 67.7,21.9 z" style="fill:#000000;stroke:#000000;stroke-width:0.5" />
        <path d="M 65.9,27 C 66.3,32 66.3,37 65.3,41 62.55,52 57,49 52,45 L 52.9,26" style="fill:#fdf9ee;fill-opacity:1;stroke:#000000;stroke-width:0.5" />
        <g style="fill:#ffce09;stroke:#000000;stroke-width:0.5">
          <path d="M 45.8,26 C 45.6,31.4 45.5,36.2 44.4,40 43.6,43 39.5,42.7 39.5,40 39.5,37.4 42,37.2 42.8,38.2 43.6,36.2 44,32 44,26" />
          <path d="M 47.6,26 C 47.4,31.4 47.2,37.2 46.1,41 45.3,44 40.9,43.5 40.9,40.8 40.9,38.2 43.6,38 44.4,39 45.2,37 45.8,32 45.8,26" />
          <path d="M 49.4,26 C 49.2,31.4 49.1,38 48,41.8 47.2,44.8 42.5,44.4 42.5,41.7 42.5,39.1 45.2,38.9 46,39.9 46.8,37.9 47.6,32 47.6,26" />
          <path d="M 51.1,26 C 50.9,31.4 50.8,38.9 49.7,42.7 48.9,45.7 44,45.2 44,42.5 44,39.9 47,39.7 47.8,40.7 48.6,38.7 49.2,32 49.2,26" />
          <path d="M 52.9,26 C 53.8,31 53,40 51.3,43.6 50,46.4 45.4,46.1 45.4,43.4 45.4,40.8 48.5,40.6 49.3,41.6 50.1,39.6 51.1,32 51.1,26" />
          <path d="M 54.5,26 C 54.5,32 54.2,39 52.2,44.3 51.1,47.2 46.8,47 46.8,44.3 46.8,42.8 47.8,41.8 49.5,41.8 50.6,41.8 50.6,43.5 49.5,43.5 48.6,43.5 48.1,44.5 49.1,44.8 52,45.8 53,32 52.9,26" />
        </g>
        <path d="M 66.11,30.49 C 64.86,29.8 63.29,29.58 62.16,30.58 60.59,31.96 62.21,35.95 62.4,38.53 62.54,40.48 61.01,40.56 60.48,39.2 59.09,41.01 57.43,39.2 58.69,38.08 M 54.43,30.52 C 55.99,29.8 58.4,29.47 59.48,30.45 M 61.59,34.05 C 62.31,34.93 63.07,35.68 63.88,36.28 M 58.73,34 C 57.96,34.67 57,35.29 56.08,35.71 M 57.32,42.96 C 58.91,43.39 60.86,43.46 62.53,43 61.73,42.76 60.84,42.45 59.89,42.76 58.97,42.45 58.06,42.76 57.32,42.96 z M 54.44,32.07 C 56.63,31.34 58.28,31.2 59.41,32.14 58.14,33.08 56.3,32.88 54.44,32.07 z M 61.55,32.24 C 62.62,31.46 64.4,31.53 66.15,32.31 64.42,33.07 62.45,33.03 61.55,32.24 z M 58.09,44.62 C 58.83,45.41 60.57,45.34 61.51,44.79" style="fill:none;stroke:#000000;stroke-width:0.5;stroke-linejoin:round" />
        <path d="M 58.33,31.66 58.03,32.64 57.05,32.71 56.84,31.56 M 62.63,31.76 62.83,32.75 63.95,32.78 64.12,31.73 M 59.89,42.76 57.85,42.92 59.86,43.25 62.06,43.01 z" style="fill:#000000" />
        <path d="M 38.5,17 44,27 C 51,26 59,26 66,27 L 70,17" style="fill:#fa0000;stroke:#000000;stroke-width:0.5" />
        <path d="M 50,17 52,24.1 59.1,24.1 59.8,17 M 41,17 45,24.8 49.5,24.3 47.3,17 M 62.2,17 61.3,24.2 65.1,24.6 68,17" style="fill:none;stroke:#000000" />
      </g>
      <use transform="matrix(-1,0,0,-1,100,155)" xlink:href="#cjg5" />
    </g>
    <use xlink:href="#pfl" />
    <use transform="matrix(2,0,0,2,8,-21)" xlink:href="#cl" />
    <use transform="matrix(-2,0,0,-2,92,176)" xlink:href="#cl" />
  </g>
</svg>
