<?xml version="1.0" encoding="UTF-8" standalone="no"?>
<svg xmlns="http://www.w3.org/2000/svg" xmlns:xlink="http://www.w3.org/1999/xlink" version="1.1" viewBox="0 0 101 156" id="pad" >
  <defs>
    <clipPath id="cpf">
      <rect width="100" height="155" ry="8" x="0" y="0" id="card" style="fill:#ffffff;stroke:#000000;stroke-width:1" />
    </clipPath>
  <g id="di">
    <path d="M 10.5,20 C 10,21 6.8,24.9 6,25.5 6.8,26.1 10,30 10.5,31 11,30 14.3,26.1 15,25.5 14.3,24.9 11,21 10.5,20 z" id="di0" />
    <path d="M 10,21.16 C 10.17,20.92 10.32,20.81 10.44,20.8 10.65,20.76 10.63,21.21 10.41,21.42 10.3,21.52 10.21,21.63 10.12,21.75 9.23,22.98 7.36,25.06 7.3,25.2 7.16,25.49 6.53,25.36 6.84,25.01 7.56,24.2 9.21,22.26 10,21.16 z" style="opacity:0.8;fill:white" />
  </g>
    <path d="M 6.53906,17.5234 6.53906,15.6797 C 7.01302,16.1016 7.5026,16.4193 8.00781,16.6328 8.51302,16.8411 9.03645,16.9453 9.57812,16.9453 10.3229,16.9453 10.8411,16.7526 11.1328,16.3672 11.4297,15.9766 11.5781,15.2526 11.5781,14.1953 L 11.5781,7.66406 8.60156,7.66406 8.60156,6.33594 13.1562,6.33594 13.1562,14.1953 C 13.1562,15.6641 12.8802,16.7031 12.3281,17.3125 11.7812,17.9219 10.8646,18.2266 9.57812,18.2266 9.07812,18.2266 8.58073,18.1693 8.08594,18.0547 7.59114,17.9401 7.07552,17.763 6.53906,17.5234" id="tJ" />
    <clipPath id="pfc">
      <rect width="63.5" height="120.5" x="18.25" y="17.25" id="pfl" style="fill:none;stroke:#000000;stroke-width:0.5" />
    </clipPath>
    <clipPath id="djc1">
      <path d="M 39,44 21,54 21,60 39,49 38,80 55,60 65,70 74,50 70,45 49,54 39,49 z" id="dju1" />
    </clipPath>
    <clipPath id="djc2">
      <path d="M 21,54.25 39,44.25 68,45 68,75 22,112 z" />
    </clipPath>
  </defs>
  <g transform="translate(0.5,0.5)" id="jack_diamond" style="fill:#fa0000">
    <use xlink:href="#card" />
    <use xlink:href="#tJ" />
    <use transform="translate(79,0)" xlink:href="#tJ" />
    <use transform="matrix(-1,0,0,-1,21,155)" xlink:href="#tJ" />
    <use transform="matrix(-1,0,0,-1,100,155)" xlink:href="#tJ" />
    <use xlink:href="#di0" />
    <use transform="translate(79,0)" xlink:href="#di0" />
    <use transform="matrix(-1,0,0,-1,21,155)" xlink:href="#di0" />
    <use transform="matrix(-1,0,0,-1,100,155)" xlink:href="#di0" />
    <g clip-path="url(#pfc)">
      <g id="djg1">
        <use style="fill:#ffffff;stroke:#000000;stroke-width:0.5" xlink:href="#dju1" />
        <path d="M 68.2,46 76.3,56 M 66.2,48 74.3,58 M 64.2,50 72.3,60 M 62.2,52 70.3,62 M 60.2,54 68.3,64 M 58.2,56 66.3,66" style="stroke:#0022cc;stroke-width:1" />
        <g clip-path="url(#djc1)">
          <path d="M 41,48 52,43 58,57 M 40.25,50 51.25,45 57.25,59 M 39.5,52 50.5,47 56.5,61 M 38.75,54 49.75,49 55.75,63 M 38,56 49,51 55,65" id="dju3" style="fill:none;stroke:#0022cc;stroke-width:0.5" />
          <use transform="translate(-3.75,10)" xlink:href="#dju3" />
          <use transform="translate(-7.5,20)" xlink:href="#dju3" />
        </g>
      </g>
      <use transform="matrix(-1,0,0,-1,100,155)" style="fill:#ffffff;stroke:#000000;stroke-width:0.5" xlink:href="#djg1" />
      <g clip-path="url(#djc2)" id="djg2">
        <path d="M 49,54 62.4905,48 57,44 40,48 z" style="fill:#fdf9ee" />
        <path d="M 40,76 C 41,70 43.5,65 46,60" style="fill:none;stroke:#000000;stroke-width:3.5" />
        <path d="M 45.3,59.7 C 42.8,64.7 40.2,69.8 39.2,75.8" style="fill:none;stroke:#0022cc;stroke-width:1" />
        <path d="M 40.8,76.1 C 41.8,70.2 44.2,65.3 46.6,60.3" style="fill:none;stroke:#fa0000;stroke-width:1" />
        <path d="M 66,47.6 41.5,77.6 M 37.55,49 37.55,75" style="fill:none;stroke:#000000;stroke-width:4.5" />
        <path d="M 36.3,49 36.3,75" style="stroke:#ffce09" />
        <path d="M 38.8,75 38.8,49 M 65,46.8 40.5,76.8 M 42.5,78.4 67,48.4" id="path3682" style="stroke:#ffffff" />
        <path d="M 41.2,95.2 31,83 34,67 43.5,78.5 51,69.5 56.5,76.5 z" style="fill:#000000" />
        <g transform="translate(0.2,0.4)" id="dju2">
          <path d="M 37,83.5 37,85.5 39,85.5 M 38.8,81.5 38.8,83.5 40.8,83.5 M 40.5,79.5 40.5,81.5 42.5,81.5 M 36.2,86.5 42.2,79.5" style="fill:none;stroke:#ffce09;stroke-width:2.4;stroke-linecap:round" />
          <path d="M 37,83.5 37,85.5 39,85.5 M 38.8,81.5 38.8,83.5 40.8,83.5 M 40.5,79.5 40.5,81.5 42.5,81.5 M 36.2,86.5 42.2,79.5" style="fill:none;stroke:#000000;stroke-width:0.5;stroke-linecap:round" />
        </g>
        <use transform="translate(3.6,4.2)" xlink:href="#dju2" />
        <use transform="translate(-3.6,-4.2)" xlink:href="#dju2" />
        <use transform="translate(-7.2,-8.4)" xlink:href="#dju2" />
        <path d="M 35.3,50 35.3,78 22,104 22,64 z" style="fill:#fa0000" />
        <path d="M 28.23,60.88 A 35.45,35.45 0 0 1 20.54,106.76" style="fill:none;stroke:#000000;stroke-width:6.5" />
        <path d="M 26.3,62.04 A 33.2,33.2 0 0 1 19.15,105" style="fill:none;stroke:#0022cc" />
        <path d="M 27.6,61.3 A 34.7,34.7 0 0 1 20.11,106.14" style="fill:none;stroke:#ffffff" />
        <path d="M 28.92,60.58 A 36.2,36.2 0 0 1 21.12,107.26" style="fill:none;stroke:#fa0000" />
        <path d="M 30.21,59.8 A 37.7,37.7 0 0 1 22.11,108.39" style="fill:none;stroke:#0022cc" />
        <path d="M 34.81,45.53 A 56.5,56.5 0 0 1 19.69,65.96" style="fill:none;stroke:#000000;stroke-width:9" />
        <path d="M 37.11,46.53 A 59,59 0 0 1 21.32,67.86" style="fill:none;stroke:#0022cc;stroke-width:3" />
        <path d="M 31.6,44.13 A 53,53 0 0 1 17.42,63.3" style="fill:none;stroke:#ffce09;stroke-width:1" />
        <path d="M 33.21,44.83 A 54.75,54.75 0 0 1 18.56,64.63" style="fill:none;stroke:#ffce09;stroke-width:1.5" />
        <path d="M 34.81,45.53 A 56.5,56.5 0 0 1 19.69,65.96" style="fill:none;stroke:#ffce09;stroke-width:1" />
        <path d="M 21.56,66.59 23.94,66.59 24.08,64.23 26.45,64.09 26.39,61.79 28.81,61.44 28.61,59.15 31.01,58.65 30.67,56.38 33.04,55.74 32.57,53.5 34.89,52.72 34.29,50.5 36.56,49.59" style="fill:none;stroke:#ffffff;stroke-width:1;stroke-linejoin:round" />
        <path d="M 64.62,45.11 A 15.9,15.9 0 0 1 36,44.31" style="fill:none;stroke:#000000;stroke-width:4.6" />
        <path d="M 63.47,44.5 A 14.6,14.6 0 0 1 37.17,43.75" style="fill:none;stroke:#ffce09;stroke-width:1" />
        <path d="M 65.73,45.8 A 17.2,17.2 0 0 1 34.86,44.97" style="fill:none;stroke:#ffce09;stroke-width:1" />
        <circle cx="46" cy="60" r="3.3" style="fill:#ffce09;stroke:#000000;stroke-width:0.5" />
        <path d="M 49.9,57.6 C 56.2,49.7 46.9,45.8 45.3,55.4 45.2,56.4 43.7,57.1 43.1,58.4 L 44.5,58 45.3,59.1 C 54.6,51.3 46.9,48.2 47.1,59.9 L 48.5,59.9 49.1,61.1 C 49.7,59.7 49.3,58.3 49.9,57.6 z" style="fill:#ffce09;stroke:#000000;stroke-width:0.5" />
      </g>
      <use transform="matrix(-1,0,0,-1,100,155)" xlink:href="#djg2" />
      <g id="djg3">
        <path d="M 17.9,39.5 22.5,45 22.5,129.5 17.9,135 z" id="dju4" />
        <use style="fill:#000000" xlink:href="#dju4" />
        <path d="M 20.7,42 C 20.7,44 19.6,45 19.6,47 19.6,49 20.7,50 20.7,52 20.7,54 19.6,55 19.6,57 19.6,59 20.7,60 20.7,62 20.7,64 19.6,65 19.6,67 19.6,69 20.7,70 20.7,72 20.7,74 19.6,75 19.6,77 19.6,79 20.7,80 20.7,82 20.7,84 19.6,85 19.6,87 19.6,89 20.7,90 20.7,92 20.7,94 19.6,95 19.6,97 19.6,99 20.7,100 20.7,102 20.7,104 19.6,105 19.6,107 19.6,109 20.7,110 20.7,112 20.7,114 19.6,115 19.6,117 19.6,119 20.7,120 20.7,122 20.7,124 19.6,125.094 19.6,127.047 19.6,129 20.7,130 20.7,132" style="fill:none;stroke:#ffce09;stroke-width:1" />
        <use style="fill:none;stroke:#000000;stroke-width:2" xlink:href="#dju4" />
        <use style="fill:none;stroke:#ffce09;stroke-width:1" xlink:href="#dju4" />
        <path d="M 17.9,117 A 13,13 0 0 1 30.5,125.8 24,24 0 0 0 17.9,121.8 z" style="fill:#000000;stroke:#000000;stroke-width:2" />
        <path d="M 17.9,117 A 13,13 0 0 1 30.5,125.8 24,24 0 0 0 17.9,121.8 z" style="fill:none;stroke:#ffce09;stroke-width:1" />
        <circle cx="20.5" cy="119.7" r="1" style="fill:#ffce09" />
        <circle cx="23.1" cy="120.4" r="0.85" style="fill:#ffce09" />
        <circle cx="25.3" cy="121.4" r="0.7" style="fill:#ffce09" />
        <circle cx="27.1" cy="122.5" r="0.5" style="fill:#ffce09" />
        <path d="M 17,97.4 20.4,97.4 C 22.1,97.4 22.1,99.3 20.4,99.3 L 17,99.3 21.1,99.3 C 22.8,99.3 22.8,101.3 21.1,101.3 L 17,101.3 21.3,101.3 C 23,101.3 23,103.3 21.3,103.3 L 17,103.3 21,103.3 C 22.7,103.3 22.7,105.3 21,105.3 L 17,105.3 z M 23.1,108.3 C 23,109.9 25.2,109.9 25.2,108.3 25.2,107.633 25.8,106.2 26,103.8 26.3,100.8 25.3,97.3 23.3,97.3 L 23.3,104.5 z" style="fill:#fdf9ee;stroke:#000000;stroke-width:0.5" />
      </g>
      <use transform="matrix(-1,0,0,-1,100,155)" xlink:href="#djg3" />
      <g id="djg4">
        <path d="M 42.1,32.3 C 41.7,33.6 41.5,35.1 40.7,36.2 39.4,35.6 38.3,37.2 39,38.2 39.9,39.4 41.6,38.1 42.4,35.8 M 42.7,38.2 C 42.6,39.6 42,41.1 41.3,42.1 40.8,40.7 39.1,40.3 38.3,41.6 37.4,43 37.6,45 40.3,47.3 42.2,48.9 45.3,49.1 48,48.6" style="fill:#ffce09;fill-opacity:1;stroke:#000000;stroke-width:0.5" />
        <path d="M 57.3,44.7 C 44.1,58.4 41,37 42.3,27 L 61,24 z" style="fill:#fdf9ee;fill-opacity:1;stroke:#000000;stroke-width:0.5" />
        <path d="M 63.9,47.77 A 5.7,5.7 0 0 1 59.6,37.3 z" style="fill:#ffce09;fill-opacity:1;stroke:#000000;stroke-width:0.5" />
        <path d="M 56,26.5 C 57.2,33.4 58.9,40 61.8,46.6 63.4,50.2 70.3,49.8 71.5,45 72.1,42.6 70.1,40.8 68.1,42.4 66.4,38.4 65,33 64.2,28.5" style="fill:#ffce09;fill-opacity:1;stroke:#000000;stroke-width:0.5" />
        <path d="M 61.45,45.7 A 3.5,3.5 0 0 1 59.43,40.3 M 58,26.8 C 59.2,34.6 62.7,46.7 65,48.9 M 60.1,27.2 C 61.6,35.3 64.4,48.9 68.3,48.6 M 62.1,27.7 C 63.1,33.2 64.6,40.5 67.2,45.6 67.7,46.5 69.1,46.4 69.7,44.9 69.9,44 69.3,43.5 68.6,43.6 L 68.1,42.4 M 43.3,42 C 42.9,44.2 41.1,44.7 40.7,44.4 39.7,43.8 39.8,42.6 41.3,42.3 M 44.2,44.5 C 43.3,46.3 40.1,46.8 38.7,45.5 M 45.4,46.8 C 44.3,47.7 42.1,48.5 40.8,47.6" style="fill:none;stroke:#000000;stroke-width:0.5" />
        <path d="M 42.07,30.34 C 43.86,29.3 46.91,29.5 47.14,31.31 47.29,34.11 46.66,36.36 46.03,38.78 45.77,39.84 47.66,40.85 48.54,38.82 49.41,40.76 51.85,39.44 50.98,37.93 M 49.39,30.71 C 50.61,28.93 53.71,29.5 55.65,30.75 M 47.1,33.12 C 46.81,34.41 45.67,35.19 44.48,35.9 M 50.13,33.78 C 50.79,34.98 51.4525,35.6 52.54,36.13 M 47.25,46.36 C 48.09,45.44 49.04,45.95 49.99,46.36 M 46.84,44.4 C 47.86,44.78 48.79,44.75 49.62,44.44 M 45.65,42.74 C 46.59,42.54 47.62,41.96 48.51,42.48 49.08,41.97 50.33,42.47 51.33,42.75 49.3,43.31 47.37,43.28 45.65,42.74 z M 42.03,32.64 C 43.49,31.86 45.51,31.52 47.14,32.49 45.27,33.62 43.56,33.23 42.03,32.64 z M 49.87,32.56 C 51.74,31.35 53.76,31.86 55.68,32.53 53.97,33.19 51.56,33.83 49.87,32.56 z" style="fill:none;stroke:#000000;stroke-width:0.5;stroke-linejoin:round" />
        <path d="M 44.3,31.9 44.5,33.1 45.5,33.1 45.7,32 M 51.4,31.8 51.6,33.1 52.6,33.2 52.9,31.8 M 46,42.7 48,42.2 51,42.8 48.5,43.3 z" style="fill:#000000" />
        <path d="M 35,17 42,27 C 50,25.5 58,26 64.2,28.5 L 71,17" id="path3607" style="fill:#fa0000;stroke:#000000;stroke-width:0.5" />
        <path d="M 38.9,17 42.8,23.6 46,23.1 44.2,17 M 48,17 49.3,22.7 56.8,23.1 57.6,17 M 61.2,17 60.1,23.7 63.6,24.5 67.5,17" style="fill:none;stroke:#ffffff;stroke-width:1.4" />
      </g>
      <use transform="matrix(-1,0,0,-1,100,155)" xlink:href="#djg4" />
      <path d="M 51.05,76.23 48.96,76.64 48.95,78.77 51.04,78.36 z" id="dju5" style="fill:#ffce09" />
      <use transform="translate(2.55,-3.1)" xlink:href="#dju5" />
      <use transform="translate(-2.55,3.1)" xlink:href="#dju5" />
    </g>
    <use xlink:href="#pfl" />
    <use transform="matrix(2,0,0,2,8,-21)" xlink:href="#di" />
    <use transform="matrix(-2,0,0,-2,92,176)" xlink:href="#di" />
  </g>
</svg>
