<?xml version="1.0" encoding="UTF-8" standalone="no"?>
<svg xmlns="http://www.w3.org/2000/svg" xmlns:xlink="http://www.w3.org/1999/xlink" version="1.1" viewBox="0 0 101 156" id="pad" >
  <defs>
    <clipPath id="cpf">
      <rect width="100" height="155" ry="8" x="0" y="0" id="card" style="fill:#ffffff;stroke:#000000;stroke-width:1" />
    </clipPath>
  <g id="sp">
    <path d="M 10.8,28 C 11.2,28.6 11.9,28.9 12.6,28.9 14,28.9 14.8,27.7 14.8,26.5 14.8,23.8 11.9,22.5 10.5,20 9.1,22.5 6.2,23.8 6.2,26.5 6.2,27.7 7,28.9 8.4,28.9 9.1,28.9 9.8,28.6 10.2,28 10.2,28.8 9.9,30.2 9,30.9 L 12,30.9 C 11.1,30.2 10.8,28.8 10.8,28 z" id="sp0" />
    <path d="M 10.01,21.12 C 10.64,20.38 10.65,21.29 10.32,21.53 10.16,21.65 10.02,21.81 9.84,22.02 8.66,23.34 7.7,24.07 7.17,25.28 7.03,25.59 6.62,25.42 6.88,24.84 7.27,23.93 8.86,22.48 10.01,21.12 z M 10.09,29.71 C 10.14,29.58 10.18,29.45 10.24,29.26 10.35,28.86 10.71,29.16 10.38,29.91 10.25,30.17 9.92,30.16 10.09,29.71 z" style="opacity:0.8;fill:white" />
  </g>
    <path d="M 6.75781,6.33594 8.34375,6.33594 8.34375,11.5234 13.2734,6.33594 15.125,6.33594 10.5859,11.1016 15.2578,18 13.3516,18 9.54687,12.1562 8.34375,13.4375 8.34375,18 6.75781,18 6.75781,6.33594" id="tK" />
    <clipPath id="pfc">
      <rect width="63.5" height="120.5" x="18.25" y="17.25" id="pfl" style="fill:none;stroke:#000000;stroke-width:0.5" />
    </clipPath>
    <clipPath id="skc1">
      <path d="M 18,60 C 23,54 29,50 36.47,47.59 L 51,47.5 51,108 34,108 21,100 21,86 18,86 z" id="sku2" />
    </clipPath>
    <clipPath id="skc2">
      <path d="M 36.1,17 43,31.8 C 50.3,30.4 57.5,29.8 64.9,30.7 L 72.4,17 z" id="sku4" />
    </clipPath>
  </defs>
  <g transform="translate(0.5,0.5)" id="king_spade">
    <use xlink:href="#card" />
    <use xlink:href="#tK" />
    <use transform="translate(79,0)" xlink:href="#tK" />
    <use transform="matrix(-1,0,0,-1,21,155)" xlink:href="#tK" />
    <use transform="matrix(-1,0,0,-1,100,155)" xlink:href="#tK" />
    <use xlink:href="#sp0" />
    <use transform="translate(79,0)" xlink:href="#sp0" />
    <use transform="matrix(-1,0,0,-1,21,155)" xlink:href="#sp0" />
    <use transform="matrix(-1,0,0,-1,100,155)" xlink:href="#sp0" />
    <g clip-path="url(#pfc)">
      <g clip-path="url(#skc1)" id="skg1">
        <use style="fill:#fa0000" xlink:href="#sku2" />
        <path d="M 42.7,80.3 A 20,20 0 0 1 33.7,47" style="fill:#0022cc;stroke:#000000;stroke-width:0.5" />
        <path d="M 39.4,73.3 A 15,15 0 0 1 34.1,55.3" style="fill:none;stroke:#ffffff;stroke-width:1" />
        <path d="M 32.2,57 C 28.6,55.7 27.9,60.7 31.6,60.9 27.9,60.7 28.5,65.7 32.1,64.5 28.5,65.7 30.1,70.3 33.2,68.1 30.1,70.3 32.7,74 35.2,71.1 32.7,74 36.4,77.5 38.1,73.6 37,76.1 33.4,73.2 35.2,71.1 33.4,73.2 31.1,69.6 33.2,68.1 31.1,69.6 29.7,65.3 32.1,64.5 29.7,65.3 29,60.7 31.6,60.9 29,60.7 29.7,56.1 32.2,57 29.7,56.1 31.2,52 33.6,53 30.2,51.6 28.6,55.7 32.2,57 z" style="fill:#ffffff;stroke:#ffffff;stroke-width:0.5;stroke-linejoin:round" />
        <g style="fill:#ffffff">
          <circle cx="29.6" cy="56.2" r="0.5" />
          <circle cx="29" cy="60.8" r="0.5" />
          <circle cx="29.5" cy="65.3" r="0.5" />
          <circle cx="31" cy="69.5" r="0.5" />
          <circle cx="33.4" cy="73.1" r="0.5" />
          <circle cx="36.8" cy="76.2" r="0.5" />
        </g>
        <path d="M 40.2,104.7 A 70,70 0 0 0 46.5,84 L 43.12,84 A 54.8,54.8 0 0 1 32.95,108.23 L 27.32,104.23 A 44,44 0 0 0 29.68,49.75 L 35.8,47 A 54.8,54.8 0 0 1 43.59,71 L 47.06,71 A 70,70 0 0 0 42.09,48.28 L 47,47 50,51 50,106 z" style="fill:#000000;stroke:#000000;stroke-width:2" />
        <path d="M 34.12,86.11 A 41.5,41.5 0 0 1 25.25,102.81" style="fill:none;stroke:#000000;stroke-width:7" />
        <path d="M 36.19,87.99 A 44,44 0 0 1 27.32,104.23 M 31.69,85.5 A 39,39 0 0 1 24.91,99.28" style="fill:none;stroke:#ffce09;stroke-width:1" />
        <path d="M 34.4,86.3 C 35.3,87.2 35.1,89.2 34.4,90.2 33.7,89.2 33.8,87.2 34.4,86.3 z M 34,85.7 C 33,85.7 31.9,87.3 31.9,88.6 33.1,88.7 34,86.7 34,85.7 z" id="sku1" style="fill:#ffce09" />
        <use transform="matrix(0.997,0.0785,-0.0785,0.997,5.91,0.7)" xlink:href="#sku1" />
        <use transform="matrix(0.988,0.156,-0.156,0.988,11.75,1.87)" xlink:href="#sku1" />
        <use transform="matrix(0.972,0.233,-0.233,0.972,17.48,3.49)"  xlink:href="#sku1" />
        <use transform="matrix(0.951,0.309,-0.309,0.951,23.07,5.55)" xlink:href="#sku1" />
        <use transform="matrix(0.924,0.383,-0.383,0.924,28.47,8.05)" xlink:href="#sku1" />
        <path d="M 32,83.5 A 32,32 0 0 0 19.1,57.8 L 18,59 18,85 z" style="fill:#000000;stroke:#000000;stroke-width:2" />
        <path d="M 0,54 A 29.5,29.5 0 0 1 29.5,83.5" style="fill:none;stroke:#ffce09;stroke-width:3" />
        <path d="M 30.3,83.5 30.26,81.91 28.66,82 28.55,80.5 29.34,80.42 29.41,81.19 30.21,81.12 30.04,79.55 28.46,79.75 28.22,78.27 29.01,78.12 29.14,78.89 29.93,78.76 29.64,77.2 28.08,77.53 27.73,76.07 28.5,75.86 28.69,76.61 29.46,76.43 29.05,74.89 27.52,75.35 27.06,73.92 27.81,73.65 28.06,74.38 28.82,74.14 28.29,72.64 26.8,73.21 26.22,71.82 26.95,71.5 27.26,72.21 27.99,71.9 27.35,70.46 25.91,71.14 25.23,69.8 25.93,69.42 26.29,70.11 27,69.74 26.24,68.35 24.86,69.15 24.07,67.87 24.74,67.43 25.15,68.09 25.84,67.67 24.97,66.34 23.66,67.24 22.77,66.03 23.41,65.54 23.87,66.16 24.51,65.69 23.55,64.43 22.31,65.44 21.33,64.29 21.93,63.76 22.43,64.34 23.04,63.82 21.98,62.64 20.82,63.74 19.76,62.68 20.31,62.1 20.86,62.64 21.43,62.07 20.27,60.98 19.21,62.17 18.06,61.19 18.57,60.57 19.16,61.07 19.68,60.46 18.45,59.46 17.47,60.73" style="fill:none;stroke:#000000;stroke-width:0.5" />
        <path d="M 32,83.5 A 32,32 0 0 0 19.1,57.8 L 15.5,61.4 A 27,27 0 0 1 27,82.1 z" style="fill:none;stroke:#ffce09;stroke-width:1" />
        <path d="M 29.68,49.75 A 44,44 0 0 1 36.63,86.41" style="fill:none;stroke:#ffffff;stroke-width:1" />
        <path d="M 36.47,48.09 A 54.8,54.8 0 0 1 43.59,71 L 47.06,71 A 70,70 0 0 0 42.09,48.28 M 40.2,104.7 A 70,70 0 0 0 46.5,84 L 43.12,84 A 54.8,54.8 0 0 1 36.47,102.9" style="fill:none;stroke:#ffce09;stroke-width:1" />
        <path d="M 25,80.7 37.4,87.7" style="fill:none;stroke:#000000;stroke-width:3" />
        <use transform="matrix(-0.4,0.014,-0.014,-0.4,45.42,83.62)" style="fill:#ffffff" xlink:href="#sp0" />
        <use transform="matrix(-0.395,0.0612,-0.0612,-0.395,46,77.18)" style="fill:#ffffff" xlink:href="#sp0" />
        <use transform="matrix(-0.385,0.1075,-0.1075,-0.385,45.81,70.72)" style="fill:#ffffff" xlink:href="#sp0" />
        <use transform="matrix(-0.37,0.152,-0.152,-0.37,44.87,64.32)" style="fill:#ffffff" xlink:href="#sp0" />
        <use transform="matrix(-0.349,0.195,-0.195,-0.349,43.17,58.08)" style="fill:#ffffff" xlink:href="#sp0" />
        <use transform="matrix(-0.398,-0.0349,0.0349,-0.398,44.02,90.13)" style="fill:#ffffff" xlink:href="#sp0" />
        <use transform="matrix(-0.391,-0.0838,0.0838,-0.391,41.81,96.51)" style="fill:#ffffff" xlink:href="#sp0" />
        <use transform="matrix(-0.378,-0.132,0.132,-0.378,38.83,102.57)" style="fill:#ffffff" xlink:href="#sp0" />
        <use transform="matrix(-0.358,-0.178,0.178,-0.358,35.06,108.29)" style="fill:#ffffff" xlink:href="#sp" />
        <use transform="matrix(-0.333,-0.221,0.221,-0.333,30.61,113.49)" style="fill:#ffffff" xlink:href="#sp0" />
      </g>
      <use style="fill:none;stroke:#000000;stroke-width:0.5" xlink:href="#sku2" />
      <use transform="matrix(-1,0,0,-1,100,155)" xlink:href="#skg1" />
      <use transform="matrix(-1,0,0,-1,100,155)" style="fill:none;stroke:#000000;stroke-width:0.5" xlink:href="#sku2" />
      <rect width="13" height="4.4" x="43.5" y="75.3" style="fill:#fa0000" />
      <path d="M 52.6,77.5 A 2.6,4.6 0 1 1 47.4,77.5 2.6,4.6 0 1 1 52.6,77.5 z" style="fill:#000000;stroke:#000000;stroke-width:1.5" />
      <g id="skg2" style="fill:#ffce09">
        <circle cx="50.5" cy="56" r="1.2" />
        <circle cx="50.5" cy="60.4" r="1.2" />
        <circle cx="48.3" cy="58.2" r="1.2" />
        <circle cx="52.7" cy="58.2" r="1.2" />
        <circle cx="50.5" cy="58.2" r="0.6" />
        <path d="M 48.4,54.2 C 48.7,52.9 49.2,53 49.6,53.1 50,52.7 48.2,51.5 48.3,56.2 48.2,54.8 48.2,53.1 47.6,51.6 46.8,49.4 44.9,50 45.3,51.1 46,50.5 47.3,50.8 47.7,51.9 M 52.5,56.2 C 53.1,53.9 55.5,54.9 54.6,55.9 54.8,55.4 53.1,53.9 52.5,56.2 z M 52.5,60.3 C 52.9,61.24 52.9,62.6 52.6,63 51.9,64 51.2,62.5 52.3,62.7 M 48.3,60.3 C 47.9,61.24 47.9,62.6 48.2,63 48.9,64 49.6,62.5 48.5,62.7 M 48.4,72.2 C 49.3,71.2 48.2,67 50,67 51.8,67 50.7,71.2 51.6,72.2 50.7,71.2 51.4,67.5 50,67.5 48.6,67.5 49.3,71.2 48.4,72.2 z" style="fill:none;stroke:#ffce09;stroke-width:0.8;stroke-linecap:round;stroke-linejoin:round" />
      </g>
      <path d="M 52.6,77.5 A 2.6,4.6 0 1 1 47.4,77.5 2.6,4.6 0 1 1 52.6,77.5 z" style="fill:none;stroke:#ffce09;stroke-width:0.5" />
      <path d="M 51.6,77.5 A 1.6,3.4 0 1 1 48.4,77.5 1.6,3.4 0 1 1 51.6,77.5 z" style="fill:none;stroke:#ffce09;stroke-width:0.5" />
      <path d="M 50.8,77.5 A 0.8,2.4 0 1 1 49.2,77.5 0.8,2.4 0 1 1 50.8,77.5 z" style="fill:#ffce09" />
      <use transform="matrix(-1,0,0,-1,100,155)" xlink:href="#skg2" />
      <g id="skg3">
        <circle cx="22.7" cy="72.5" r="2" style="fill:#ffce09;stroke:#000000;stroke-width:0.5" />
        <path d="M 25.4,87 25.4,126 22.7,129 20,126 20,87" style="fill:#ffffff;stroke:#000000;stroke-width:0.5" />
        <path d="M 22.7,87 C 22.7,87 23.2,89.5 23.2,91.5 23.2,94.5 22.2,97.5 22.2,100.5 22.2,103.5 23.2,106.5 23.2,109.5 23.2,112.5 22.2,115.5 22.2,118.5 22.2,120.5 22.7,123 22.7,123 M 21.5,72.3 A 1.25,1.25 0 0 1 23.9,72.2" style="fill:none;stroke:#000000;stroke-width:0.5" />
        <path d="M 18,86.9 C 21,87.2 25,87.3 27,87 28,86.8 29,86 29,84.9 29,82.5 26,82.5 26,84.9 23,85 21,85 18,84.6 z" style="fill:#ffce09;stroke:#000000;stroke-width:0.5" />
        <path d="M 20.2,81.4 C 18.9,82 18.1,79.9 19.6,79.4 L 20.2,79.2 C 18.8,79.5 18.4,77.6 19.9,77.3 L 20.5,77.1 C 19.1,77.4 18.7,75.4 20.2,75.2 L 20.9,75.1 C 22,74.9 22.5,76.6 21.3,76.9 21.3,76.9 21.7,74.8 22.8,74.6 24.1,74.4 25.2,75.2 25.7,75.9 26.7,77.4 27.1,79.7 26.5,81.8 25.7,84.3 24.5,84.8 21.6,85 20.4,85.1 19.9,83.7 21.3,83 L 20.6,83.3 C 19.4,83.9 18.4,82.2 19.8,81.6 z" style="fill:#fdf9ee" />
        <path d="M 20.5,77.1 C 19.1,77.4 18.7,75.4 20.2,75.2 L 20.9,75.1 C 22,74.9 22.5,76.6 21.3,76.9 z M 20.2,79.2 C 18.8,79.5 18.4,77.6 19.9,77.3 L 21.9,76.8 C 23,76.6 23.5,78.3 22.4,78.6 z M 20.2,81.4 C 18.9,82 18.1,79.9 19.6,79.4 L 22.2,78.7 C 23.3,78.4 23.6,79.9 22.5,80.4 z M 20.6,83.3 C 19.4,83.9 18.4,82.2 19.8,81.6 L 22.4,80.5 C 23.4,80.1 24.2,81.4 23.1,82 z M 21.3,83 C 19.9,83.7 20.4,85.1 21.6,85 24.5,84.8 25.7,84.3 26.5,81.8 27.1,79.7 26.7,77.4 25.7,75.9 25.2,75.2 24.1,74.4 22.8,74.6 21.7,74.8 21.8,76.5 22.7,77" style="fill:none;stroke:#000000;stroke-width:0.5" />
        <path d="M 64.9,30.7 64.8,36.4 64.5,45.9 62.4,50.4 53.9,50.2 49.58,43.3 49.7,39.9 51,30.7 58,30" style="fill:#fdf9ee" />
        <path d="M 51,30.7 C 51,33.8 50.6,37 49.7,39.9 49.58,43.3 54.2,50.2 59.8,50.3 59.6,51.5 59.4,52.3 58.9,53.5 57.7,56.5 52.5,54 54.5,50.8 52.3,54.4 47.8,50.9 50.1,48.1 47.8,50.9 45.4,48.5 45.9,47 42.8,49.9 38.8,50.7 36,48 33,45 37,41.3 38.5,45.4 41.2,41.8 41.8,36.4 43,31.8 M 64.6,41.6 64.8,36.4 C 66.4,39.2 66.8,42.5 66.4,46.6 67.2,49 66,51.2 64.5,50.3 65.7,53.3 62.8,55.4 61.1,53.3 60.5,52.5 60.2,51.3 59.9,50.3 62.4,50.4 64.5,45.9 64.6,41.6 z" style="fill:#f9f9ff" />
        <path d="M 64.79,33.09 C 64.03,32.5 61.44,31.63 60.77,33.09 59.87,35.02 60.68,38.46 61.47,39.54 62.57,41.03 60.58,42.55 59.71,40.82 58.49,42.54 56.44,41.34 57.67,39.72 M 51.88,34.94 C 53.65,34.09 55.88,33.65 57.67,34.9 55.88,36.36 53.59,35.65 51.88,34.94 z M 57.72,36.18 55.15,39.19 M 51.93,33.44 C 53.86,32.02 57.52,31.83 58.25,33.25 M 60.48,36.31 62.56,38.83 M 64.79,34.72 C 63.87,34.2 62.48,33.87 60.94,34.99 62.23,36 63.8,35.81 64.7,35.47 M 56.71,45.5 C 58.62,45.75 60.45,45.75 62.06,45.5 60.78,45.39 59.81,44.47 59.55,45.27 59.12,44.49 58,45.37 56.71,45.5 z M 58.38,46.74 C 59.05,46.89 59.84,46.9 60.46,46.74 M 55.26,44.28 C 56.24,44.26 57.24,42.93 58.05,42.96 58.57,42.98 58.46,43.4 58.05,43.38 57.22,43.34 56.25,44.23 55.26,44.28 53.73,44.3 54.26,41.66 55.42,41.84 M 62.97,42.01 C 64.34,41.96 63.88,44.29 62.89,44.08 62.11,43.92 61.57,43 60.79,43.01 60.48,43.01 60.33,43.5 60.77,43.47 61.6,43.43 62.16,43.91 62.89,44.08" style="fill:none;stroke:#000000;stroke-width:0.5;stroke-linejoin:round" />
        <path d="M 66.4,46.6 C 66.8,42.5 66.4,39.2 64.8,36.4 M 45.9,47 C 45.4,48.5 47.8,50.9 50.1,48.1 L 52,45.8 50.1,48.1 C 47.8,50.9 52.3,54.4 54.5,50.8 L 55.6,49 54.5,50.8 C 52.5,54 57.7,56.5 58.9,53.5 59.4,52.3 59.6,51.5 59.8,50.3 L 59.9,50.3 C 60.2,51.3 60.5,52.5 61.1,53.3 62.8,55.4 65.7,53.3 64.5,50.3 L 63.3,47.4 M 64.5,50.3 C 66,51.2 67.2,49 66.4,46.6 L 64.6,41.6 M 51,30.7 C 51,36.9 49.2,43.7 45.9,47 42.8,49.9 38.8,50.7 36,48 33,45 37,41.3 38.5,45.4 37.8,46.3 36.8,46.7 36.6,45.6 M 38.5,45.4 C 41.2,41.8 41.8,36.4 43,31.8 M 59.9,50.3 C 62.4,50.4 64.5,45.9 64.6,41.6 L 64.9,30.7 M 45,31.6 C 44,38.8 40.6,49.9 36.1,48.1 M 46.9,31.3 C 46.4,37.6 43.1,49.1 38.7,49.5 M 49.2,31 C 48.4,39.2 45.1,48.6 41.3,49.5 M 64.3,44.5 65.1,46.9 C 65.7,48.7 64.8,49.6 64,48.9 M 62.5,48.8 63.3,50.9 C 63.9,52.4 62.5,53.2 62.1,52 L 61.3,50 M 58.3,50.1 57.4,52.7 C 57,53.8 55.3,53.1 55.9,51.9 L 56.9,49.6 M 54.3,48.1 52.8,50 C 52,51 50.7,49.9 51.5,49 L 53,47.1 M 51.1,44.5 49,47 C 47.9,48.3 46.8,47.1 47.7,46 L 50.2,43 M 57.6,45.4 59.55,45.27 61.2,45.4" style="fill:none;stroke:#000000;stroke-width:0.5" />
        <path d="M 62.2,34.3 62.4,35.6 63.5,35.6 63.7,34.3 M 56.1,34.2 55.9,35.6 54.6,35.6 54.5,34.2" />
        <g clip-path="url(#skc2)">
          <use style="fill:#ffce09" xlink:href="#sku4" />
          <g id="skg4" style="fill:#000000">
            <circle cx="54.05" cy="21.9" r="0.9" />
            <circle cx="52.7" cy="23.8" r="0.9" />
            <circle cx="55.4" cy="23.8" r="0.9" />
          </g>
          <use transform="translate(7.1,0.3)" xlink:href="#skg4" />
          <use transform="translate(-6.9,1.2)" xlink:href="#skg4" />
          <use transform="translate(-14,2.1)" xlink:href="#skg4" />
          <use transform="translate(14,0.9)" xlink:href="#skg4" />
          <path d="M 40.6,27.2 A 3.3,3.3 0 0 0 46.5,26.4 1.7,1.7 0 0 1 43.6,27.2 1.7,1.7 0 0 1 40.6,27.2 z M 47.6,26.2 A 3.3,3.3 0 0 0 53.4,25.1 1.7,1.7 0 0 1 50.5,25.9 1.7,1.7 0 0 1 47.6,26.2 z M 54.5,25.1 A 3.3,3.3 0 0 0 60.6,25.3 1.7,1.7 0 0 1 57.55,25.6 1.7,1.7 0 0 1 54.5,25.1 z M 61.5,25.4 A 3.3,3.3 0 0 0 67.6,25.9 1.7,1.7 0 0 1 64.5,26 1.7,1.7 0 0 1 61.5,25.4 z" style="fill:#000000;stroke:#000000;stroke-width:0.5;stroke-linejoin:round" />
          <path d="M 66.1,28.3 C 64.7,29 62,28.8 60.9,26.5 59.6,29 55,29 53.9,26.2 53.2,28.9 48.5,29.4 47.2,27.3 46.4,29.6 43.4,30.1 41.8,29.2 L 43,31.8 C 50.3,30.4 57.4,29.8 64.8,30.7 z" style="fill:#fa0000;stroke:#000000;stroke-width:0.5;stroke-linejoin:round" />
          <path d="M 42.7,30.9 C 50,29.5 57.9,28.9 65.3,29.8" style="fill:none;stroke:#000000;stroke-width:1.5" />
        </g>
      </g>
      <use style="fill:none;stroke:#000000;stroke-width:0.5" xlink:href="#sku4" />
      <use transform="matrix(-1,0,0,-1,100,155)" xlink:href="#skg3" />
      <use transform="matrix(-1,0,0,-1,100,155)" style="fill:none;stroke:#000000;stroke-width:0.5" xlink:href="#sku4" />
    </g>
    <use xlink:href="#pfl" />
    <use transform="matrix(2,0,0,2,8,-21)" xlink:href="#sp" />
    <use transform="matrix(-2,0,0,-2,92,176)" xlink:href="#sp" />
  </g>
</svg>
