<?xml version="1.0" encoding="UTF-8" standalone="no"?>
<svg xmlns="http://www.w3.org/2000/svg" xmlns:xlink="http://www.w3.org/1999/xlink" version="1.1" viewBox="0 0 101 156" id="pad" >
  <defs>
    <clipPath id="cpf">
      <rect width="100" height="155" ry="8" x="0" y="0" id="card" style="fill:#ffffff;stroke:#000000;stroke-width:1" />
    </clipPath>
  <g id="di">
    <path d="M 10.5,20 C 10,21 6.8,24.9 6,25.5 6.8,26.1 10,30 10.5,31 11,30 14.3,26.1 15,25.5 14.3,24.9 11,21 10.5,20 z" id="di0" />
    <path d="M 10,21.16 C 10.17,20.92 10.32,20.81 10.44,20.8 10.65,20.76 10.63,21.21 10.41,21.42 10.3,21.52 10.21,21.63 10.12,21.75 9.23,22.98 7.36,25.06 7.3,25.2 7.16,25.49 6.53,25.36 6.84,25.01 7.56,24.2 9.21,22.26 10,21.16 z" style="opacity:0.8;fill:white" />
  </g>
    <path d="M 7.30469,6.33594 13.2109,6.33594 13.2109,7.66406 8.74219,7.66406 8.74219,10.5312 C 8.96614,10.4479 9.1901,10.388 9.41406,10.3516 9.64323,10.3099 9.87239,10.2891 10.1016,10.2891 11.3099,10.2891 12.2682,10.6458 12.9766,11.3594 13.6849,12.0729 14.0391,13.0391 14.0391,14.2578 14.0391,15.487 13.6667,16.4557 12.9219,17.1641 12.1823,17.8724 11.1693,18.2266 9.88281,18.2266 9.26302,18.2266 8.69531,18.1849 8.17969,18.1016 7.66927,18.0182 7.21094,17.8932 6.80469,17.7266 L 6.80469,16.125 C 7.28385,16.3854 7.76562,16.5807 8.25,16.7109 8.73437,16.8359 9.22916,16.8984 9.73437,16.8984 10.6042,16.8984 11.2734,16.6693 11.7422,16.2109 12.2161,15.7526 12.4531,15.1016 12.4531,14.2578 12.4531,13.4245 12.2083,12.776 11.7187,12.3125 11.2344,11.849 10.5573,11.6172 9.6875,11.6172 9.26562,11.6172 8.85416,11.6667 8.45312,11.7656 8.05208,11.8594 7.66927,12.0026 7.30469,12.1953 L 7.30469,6.33594" id="t5" />
  </defs>
  <g transform="translate(0.5,0.5)" id="5_diamond" style="fill:#fa0000">
    <use xlink:href="#card" />
    <use xlink:href="#t5" />
    <use transform="translate(79,0)" xlink:href="#t5" />
    <use transform="matrix(-1,0,0,-1,21,155)" xlink:href="#t5" />
    <use transform="matrix(-1,0,0,-1,100,155)" xlink:href="#t5" />
    <use xlink:href="#di0" />
    <use transform="translate(79,0)" xlink:href="#di0" />
    <use transform="matrix(-1,0,0,-1,21,155)" xlink:href="#di0" />
    <use transform="matrix(-1,0,0,-1,100,155)" xlink:href="#di0" />
    <use transform="matrix(2,0,0,2,6,-23)" xlink:href="#di" />
    <use transform="matrix(2,0,0,2,52,-23)" xlink:href="#di" />
    <use transform="matrix(2,0,0,2,29,26.5)" xlink:href="#di" />
    <use transform="matrix(-2,0,0,-2,48,178)" xlink:href="#di" />
    <use transform="matrix(-2,0,0,-2,94,178)" xlink:href="#di" />
  </g>
</svg>
