<?xml version="1.0" encoding="UTF-8" standalone="no"?>
<svg xmlns="http://www.w3.org/2000/svg" xmlns:xlink="http://www.w3.org/1999/xlink" version="1.1" viewBox="0 0 101 156" id="pad" >
  <defs>
    <clipPath id="cpf">
      <rect width="100" height="155" ry="8" x="0" y="0" id="card" style="fill:#ffffff;stroke:#000000;stroke-width:1" />
    </clipPath>
  <g id="ht">
    <path d="M 14.8,24.1 C 15,21.1 12.2,20 10.5,21.9 8.7,20 6,21.1 6.2,24.1 6.333,26.1 9.4,29 10.5,31 11.6,29 14.667,26.1 14.8,24.1 z" id="ht0" />
    <path d="M 7.14,22.55 C 6.99,22.81 6.3,23.11 6.81,22.23 7.3,21.41 8.06,21.06 9,21.31 9.46,21.43 9.11,21.76 8.81,21.7 8.12,21.57 7.54,21.88 7.14,22.55 z M 10.6,22.36 C 11.19,22.35 11.84,21.51 12.77,21.71 13.01,21.76 13.45,21.41 12.89,21.25 12.19,21.05 11.21,21.42 10.64,22.02 10.49,22.21 10.44,22.37 10.6,22.36 z" style="opacity:0.8;fill:white" />
  </g>
    <path d="M 10.5,7.72656 8.83594,13.6953 12.1641,13.6953 10.5,7.72656 M 9.54687,6.33594 11.4609,6.33594 15.0312,18 13.3984,18 12.5391,14.9609 8.45312,14.9609 7.60937,18 5.97656,18 9.54687,6.33594" id="tA" />
  </defs>
  <g transform="translate(0.5,0.5)" id="1_heart" style="fill:#fa0000">
    <use xlink:href="#card" />
    <use xlink:href="#tA" />
    <use transform="translate(79,0)" xlink:href="#tA" />
    <use transform="matrix(-1,0,0,-1,21,155)" xlink:href="#tA" />
    <use transform="matrix(-1,0,0,-1,100,155)" xlink:href="#tA" />
    <use xlink:href="#ht0" />
    <use transform="translate(79,0)" xlink:href="#ht0" />
    <use transform="matrix(-1,0,0,-1,21,155)" xlink:href="#ht0" />
    <use transform="matrix(-1,0,0,-1,100,155)" xlink:href="#ht0" />
    <use transform="matrix(2,0,0,2,29,26.5)" xlink:href="#ht" />
  </g>
</svg>
