<?xml version="1.0" encoding="UTF-8" standalone="no"?>
<svg xmlns="http://www.w3.org/2000/svg" xmlns:xlink="http://www.w3.org/1999/xlink" version="1.1" viewBox="0 0 101 156" id="pad" >
  <defs>
    <clipPath id="cpf">
      <rect width="100" height="155" ry="8" x="0" y="0" id="card" style="fill:#ffffff;stroke:#000000;stroke-width:1" />
    </clipPath>
  <g id="sp">
    <path d="M 10.8,28 C 11.2,28.6 11.9,28.9 12.6,28.9 14,28.9 14.8,27.7 14.8,26.5 14.8,23.8 11.9,22.5 10.5,20 9.1,22.5 6.2,23.8 6.2,26.5 6.2,27.7 7,28.9 8.4,28.9 9.1,28.9 9.8,28.6 10.2,28 10.2,28.8 9.9,30.2 9,30.9 L 12,30.9 C 11.1,30.2 10.8,28.8 10.8,28 z" id="sp0" />
    <path d="M 10.01,21.12 C 10.64,20.38 10.65,21.29 10.32,21.53 10.16,21.65 10.02,21.81 9.84,22.02 8.66,23.34 7.7,24.07 7.17,25.28 7.03,25.59 6.62,25.42 6.88,24.84 7.27,23.93 8.86,22.48 10.01,21.12 z M 10.09,29.71 C 10.14,29.58 10.18,29.45 10.24,29.26 10.35,28.86 10.71,29.16 10.38,29.91 10.25,30.17 9.92,30.16 10.09,29.71 z" style="opacity:0.8;fill:white" />
  </g>
    <path d="M 10.8047,18.2109 C 10.7682,18.2109 10.7161,18.2135 10.6484,18.2188 10.5807,18.224 10.526,18.2266 10.4844,18.2266 9.18229,18.2266 8.20833,17.7266 7.5625,16.7266 6.92187,15.7266 6.60156,14.2109 6.60156,12.1797 6.60156,10.1432 6.92187,8.62501 7.5625,7.625 8.20833,6.62501 9.1875,6.12501 10.5,6.125 11.8177,6.12501 12.7969,6.62501 13.4375,7.625 14.0833,8.62501 14.4062,10.1432 14.4062,12.1797 14.4062,13.7109 14.2266,14.9453 13.8672,15.8828 13.513,16.8151 12.974,17.4688 12.25,17.8438 L 13.8125,19.3281 12.6328,20.1094 10.8047,18.2109 M 12.7578,12.1797 C 12.7578,10.4662 12.5807,9.2422 12.2266,8.50781 11.8776,7.77345 11.3021,7.40626 10.5,7.40625 9.70312,7.40626 9.1276,7.77345 8.77344,8.50781 8.42448,9.2422 8.25,10.4662 8.25,12.1797 8.25,13.888 8.42448,15.1094 8.77344,15.8437 9.1276,16.5781 9.70312,16.9453 10.5,16.9453 11.3021,16.9453 11.8776,16.5807 12.2266,15.8516 12.5807,15.1172 12.7578,13.8932 12.7578,12.1797" id="tQ" />
    <clipPath id="pfc">
      <rect width="63.5" height="120.5" x="18.25" y="17.25" id="pfl" style="fill:none;stroke:#000000;stroke-width:0.5" />
    </clipPath>
    <clipPath id="sqc1">
      <path d="M 82,58 64.5,42.1 53,33 47,39 36.7,52 36,77 82,77 z" id="squ1" />
    </clipPath>
    <g id="fleur" style="stroke-width:0">
      <path id="flc" d="M 1.4,4.3 C 1.7,3.8 1.7,3.2 0.6,3 1.7,2.8 1.7,2.2 1.4,1.7 2.2,2.4 3.4,3 4.4,3 3.4,3 2.2,3.6 1.4,4.3 z" style="stroke-width:0.8;stroke-linejoin:round" />
      <circle cx="4.3" cy="1.5" r="0.6" />
      <circle cx="4.3" cy="4.5" r="0.6" />
      <circle cx="6" cy="3" r="0.6" />
    </g>
    <marker markerUnits="userSpaceOnUse" refX="3" refY="3" markerWidth="8" markerHeight="8" orient="auto" id="wfb">
      <use style="fill:#0022cc;stroke:#0022cc" xlink:href="#fleur" />
    </marker>
  </defs>
  <g transform="translate(0.5,0.5)" id="queen_spade">
    <use xlink:href="#card" />
    <use xlink:href="#tQ" />
    <use transform="translate(79,0)" xlink:href="#tQ" />
    <use transform="matrix(-1,0,0,-1,21,155)" xlink:href="#tQ" />
    <use transform="matrix(-1,0,0,-1,100,155)" xlink:href="#tQ" />
    <use xlink:href="#sp0" />
    <use transform="translate(79,0)" xlink:href="#sp0" />
    <use transform="matrix(-1,0,0,-1,21,155)" xlink:href="#sp0" />
    <use transform="matrix(-1,0,0,-1,100,155)" xlink:href="#sp0" />
    <g clip-path="url(#pfc)" id="g4108">
      <path d="M 69.3,26 C 72,34 72.3,42 72.5,50 L 65,43 z M 30.7,129 C 28,121 27.7,113 27.5,105 L 35,112 z" style="fill:#0022cc;stroke:#000000;stroke-width:0.5" />
      <use style="fill:#fa0000" xlink:href="#squ1" />
      <g clip-path="url(#sqc1)" id="sqg1">
        <path d="M 59,43 53,33 48,42 z" style="fill:#fdf9ee" />
        <path d="M 36,75 44,67 52,75 z" style="fill:#0022cc" />
        <path d="M 41,66 46,66 56,77" style="fill:none;stroke:#000000;stroke-width:7" />
        <path d="M 41,66 46,66 56,77" style="fill:none;stroke:#ffce09;stroke-width:6" />
        <path d="M 41,66 46,66 56,77" style="fill:none;stroke:#000000;stroke-width:4" />
        <path d="M 41,66 46,66 56,77" style="fill:none;stroke:#ffce09;stroke-width:2.5" />
        <path d="M 41,66 46,66 56,77" style="fill:none;stroke:#000000;stroke-width:0.5" />
        <path d="M 42.5,43.1 64.4,66.4 68.9,44.6" style="fill:none;stroke:#000000;stroke-width:7" />
        <path d="M 70,45.8 67.6,46.1 C 60.9,46.9 53.8,47 47.9,44.2" style="fill:none;stroke:#000000;stroke-width:9" />
        <path d="M 66.5625,45.0938 63.4375,60.2812 48.8438,44.8125" style="fill:#000000;stroke:#ffce09" />
        <path d="M 70,45.8 67.6,46.1 C 60.9,46.9 53.8,47 47.9,44.2" style="fill:none;stroke:#ffce09;stroke-width:8" />
        <path d="M 70,45.8 67.6,46.1 C 60.9,46.9 53.8,47 47.9,44.2" style="fill:none;stroke:#000000;stroke-width:6" />
        <path d="M 68.0312,45.4062 64.3125,63.4062 47.75,45.8438" style="fill:none;stroke:#000000;stroke-width:2" />
        <path d="M 68.0312,45.4062 64.3125,63.4062 47.75,45.8438" style="fill:none;stroke:#ffce09" />
        <path d="M 70,45.8 67.6,46.1 C 60.9,46.9 53.8,47 47.9,44.2" style="fill:none;stroke:#ffce09;stroke-width:5" />
        <path d="M 42.5,43.1 65.5,67.6 70,45.8" style="fill:none;stroke:#000000;stroke-width:3" />
        <path d="M 70,45.8 67.6,46.1 C 60.9,46.9 53.8,47 47.9,44.2" style="fill:none;stroke:#000000;stroke-width:3" />
        <path d="M 70,45.8 67.6,46.1 C 60.9,46.9 53.8,47 47.9,44.2" style="fill:none;stroke:#ffce09;stroke-width:2" />
        <path d="M 70,45.8 67.6,46.1 C 60.9,46.9 53.8,47 47.9,44.2" style="fill:none;stroke:#000000;stroke-width:1.5;stroke-linecap:round;stroke-dasharray:0, 2;stroke-dashoffset:1" />
        <path d="M 63.2,69.4 A 4,2.19 80 0 1 67.5,68.6 4,2.19 80 0 1 63.2,69.4 z" style="fill:#000000;stroke:#000000;stroke-width:1.8" />
        <path d="M 63.2,69.4 A 4,2.19 80 0 1 67.5,68.6 4,2.19 80 0 1 63.2,69.4 z" style="fill:none;stroke:#ffce09;stroke-width:0.8" />
        <path d="M 50.6,51 A 3,4 0 0 1 48.6,53.3 M 49.3,49.6 A 2.5,3 0 0 1 47.9,51.5 M 48,48.1 A 2.5,3 0 0 1 46.6,50" id="squ2" style="fill:none;stroke:#ffce09;stroke-width:1;stroke-linecap:round" />
        <path d="M 68.2,51.8 A 2.5,3 0 0 0 69.9,52.7 M 68.6,49.9 A 2,2.7 0 0 0 69.7,50.8 M 69,48 A 2,2.7 0 0 0 70.1,48.9" id="squ3" style="fill:none;stroke:#ffce09;stroke-width:1;stroke-linecap:round" />
        <use transform="translate(4,4.3)" xlink:href="#squ2" />
        <use transform="translate(8,8.6)" xlink:href="#squ2" />
        <use transform="translate(12,12.9)" xlink:href="#squ2" />
        <use transform="translate(-1.2,5.6)" xlink:href="#squ3" />
        <use transform="translate(-2.4,11.2)" xlink:href="#squ3" />
        <use transform="matrix(0.3,0,0.08,0.3,56.8,48.1)" style="fill:#ffce09" xlink:href="#sp0" />
        <use transform="matrix(0.3,0,0.08,0.3,57.4,44.9)" style="fill:#ffce09" xlink:href="#sp0" />
        <use transform="matrix(0.3,0,0.08,0.3,53.8,44.9)" style="fill:#ffce09" xlink:href="#sp0" />
        <path d="M 65,66.9 65.2,68 M 65.5,70.1 65.7,71.1 M 64.3,69.2 64.4,69.2 M 66.2,68.9 66.3,68.9" style="fill:none;stroke:#ffce09;stroke-width:1;stroke-linecap:round" />
        <path d="M 72.9,64.8 C 71.6,67 72.3,69.3 73.9,68.4 M 72.3,59.1 C 72.4,61 73.8,62.9 72.9,64.8 71.3,68.1 68.4,65.6 70.2,63.6 M 71.6,55.9 C 71.6,57.3 72.1,57.9 72.3,59.1 72.5,60.5 71.6,61.6 70.7,61.4 M 73.9,50.7 C 73.6,51.8 71.3,53.3 71.6,55.9 71.9,58.5 74.2,58 74,56.6 M 48.7,56.2 C 47.9,55.4 46.5,55.5 45.6,54.7 44.8,54 44.8,52.9 45.1,52 M 45,59.6 C 47.7,62.4 51.3,58.3 48.7,56.2 47.2,55 45.5,56.9 46.4,57.8 M 53.7,61.7 C 54.9,63.1 54.6,66 52.5,66 50.5,66 50.5,63.2 51.9,62.9 M 55.5,69.7 C 56.8,70.7 59.5,69.9 59.3,67.9 59.1,66.2 57.2,65.9 56.7,67.3 M 41.3,51.9 C 40.1,52.5 38.7,50.7 40,49.6 41,48.6 42.1,49.1 42.6,49.6 44.1,51.1 43,57.2 45,59.6 47,62 52,60 53.7,61.7 55.4,63.4 54,68.2 55.5,69.7 57,71.2 61.3,69 61.8,71 62.4,73.2 59.8,73 59.8,72" style="fill:none;stroke:#ffffff" />
        <circle cx="41.6" cy="54" r="0.8" style="fill:#ffffff" />
        <circle cx="51.2" cy="59.2" r="0.8" style="fill:#ffffff" />
        <circle cx="49.4" cy="62.7" r="0.8" style="fill:#ffffff" />
        <circle cx="56.5" cy="64.8" r="0.8" style="fill:#ffffff" />
      </g>
      <use style="fill:none;stroke:#000000;stroke-width:0.5" xlink:href="#squ1" />
      <use transform="matrix(-1,0,0,-1,100,155)" style="fill:#fa0000" xlink:href="#squ1" />
      <use transform="matrix(-1,0,0,-1,100,155)" xlink:href="#sqg1" />
      <use transform="matrix(-1,0,0,-1,100,155)" style="fill:none;stroke:#000000;stroke-width:0.5" xlink:href="#squ1" />
      <path d="M 32,77.5 68,77.5" style="stroke:#000000;stroke-width:7" />
      <path d="M 32,75 68,75 M 32,80 68,80" style="stroke:#ffffff" />
      <g id="sqg2">
        <circle cx="20.9" cy="118.5" r="1.5" style="fill:#ffce09;stroke:#000000;stroke-width:0.5" />
        <circle cx="24.1" cy="118.5" r="1.5" style="fill:#ffce09;stroke:#000000;stroke-width:0.5" />
        <path d="M 22.5,119 20.5,123 22.5,127 24.5,123 22.5,119 24,101 A 1.52,1.52 0 1 0 21,101 z M 21.9,80 21,93 A 1.52,1.52 0 1 0 24,93 L 23.1,80 M 22.5,94.8 A 2.2,2.2 0 1 0 22.5,99.2 2.2,2.2 0 0 0 22.5,94.8 z" style="fill:#ffce09;stroke:#000000;stroke-width:0.5" />
        <path d="M 21.7,123 22.5,121.4 23.3,123 22.5,124.6 z" style="fill:#fa0000;stroke:#000000;stroke-width:0.5" />
        <path d="M 22.5,109 22,101 A 0.5,0.7 0 0 1 22.7,100.3 M 22.5,85 22,93 22,93.6 M 21.35,97.35 A 1.2,1.2 0 0 1 23.2,96" style="fill:none;stroke:#000000;stroke-width:0.5" />
        <path d="M 36.7,52 41.1,56.7 C 45,60.8 45,66 40.7,70 36.6,73.7 32.3,80 29.2,85.1 L 13.4,72.1" style="fill:#ffffff" />
        <path d="M 36.7,52 41.1,56.7 20.3,77.7 13.4,72.1" style="fill:#0022cc" />
        <path d="M 36.7,52 41.1,56.7 C 45,60.8 45,66 40.7,70 36.6,73.7 32.3,80 29.2,85.1 L 13.4,72.1" style="fill:none;stroke:#000000;stroke-width:2" />
        <path d="M 36.7,52 41.1,56.7 C 45,60.8 45,66 40.7,70 36.6,73.7 32.3,80 29.2,85.1 L 13.4,72.1" style="fill:none;stroke:#ffce09;stroke-width:1" />
        <path d="M 20,81 26,75 32,69 38,63 44,57 50,51" transform="matrix(0.8,0,0,0.8,3.9,16.3)" style="fill:none;stroke-width:0.5;marker-mid:url(#wfb)" />
        <path d="M 20,81 26,75 33,68 40,61 44,57" transform="matrix(0.8,0,0,0.8,7,19)" style="fill:none;stroke-width:0.5;marker-mid:url(#wfb)" />
        <path d="M 13.4,72.1 36.7,52 47,39" style="fill:none;stroke:#000000;stroke-width:0.5" />
      </g>
      <use transform="matrix(-1,0,0,-1,100,155)" xlink:href="#sqg2" />
      <g id="sqg3">
        <path d="M 69.3,17 69.3,25 C 69.3,29 69.8,44 62.8,44 57,44 54,38 53,33 L 53,17" style="fill:#fdf9ee;stroke:#000000;stroke-width:0.5" />
        <path d="M 69.3,17 69.3,25 A 7.3,8 0 0 1 64.3,17 7.5,7.5 0 0 1 57,24.5 L 56.9,17 z" style="fill:#f9f9ff;stroke:#000000;stroke-width:0.5" />
        <path d="M 62.1,17 A 5,6 0 0 1 58.5,21.7 M 66.6,17 A 4.5,5.5 0 0 0 69.3,22.2" style="fill:none;stroke:#000000;stroke-width:0.5" />
        <path d="M 69.19,26.38 C 67.72,25.37 65.04,25.88 64.92,27.66 64.67,31.02 65.55,32.34 65.77,34.69 65.96,36.68 64.36,36.76 63.83,35.66 63.12,36.82 61.2,36.7 61.46,34.81 M 57.21,26.7 C 58.64,25.76 61.17,25.38 62.49,26.7 M 59.87,32.28 C 60.61,31.67 61.34,31.04 61.89,30.22 M 64.99,30.26 C 65.33,30.94 66.14,31.61 66.78,32.09 M 62.2,41.02 C 62.78,41.3 63.77,41.31 64.57,41.02 M 57.2,28.48 C 58.81,27.88 60.51,27.13 62.17,28.55 60.29,29.85 58.78,29.14 57.2,28.48 z M 64.95,28.62 C 66.47,29.81 67.64,29.43 69.19,28.62 68.04,27.84 66.2,27.41 64.95,28.62 z M 60.88,39.16 C 62.62,39.95 64.33,39.78 66.02,39.1 64.8,39 63.97,38.26 63.52,39 63.12,38.28 62.2,39 60.88,39.16 z" style="fill:none;stroke:#000000;stroke-width:0.5;stroke-linejoin:round" />
        <path d="M 59.2,27.8 59.3,29.1 60.4,29.1 60.6,27.9 M 66,28 66.2,29.2 67.2,29.3 67.4,28 M 61.3,39.1 63.5,39.7 65.5,39.2 63.7,38.7 z" style="fill:#000000" />
        <path d="M 39.5,17 C 41,23 41,28.9 39.8,35.3 L 46.5,38.4 56.9,17" style="fill:#ffce09;stroke:#000000;stroke-width:0.5" />
        <path d="M 61.2,17 45.7,49 42.3,47 56.9,17" style="fill:#000000" />
        <path d="M 45.5,37.7 55.7,16.6" style="stroke:#000000;stroke-width:3" />
        <path d="M 45.5,37.7 55.7,16.6" style="stroke:#fa0000;stroke-width:2" />
        <path d="M 42.7,33.1 C 44.3,33.8 44.3,35.9 43.4,37" style="fill:none;stroke:#000000;stroke-width:0.5" />
        <g id="squ4" style="fill:#000000;">
          <path d="M 44.2,29.5 C 44.5,29.1 45.3,29 45.7,29.3 47.4,30.7 45.1,34.2 42.7,33.1 M 46.8,24.6 C 49.2,25.7 47.9,29.9 45.7,29.2 45.2,29 44.7,28.5 44.9,28" style="fill:none;stroke:#000000;stroke-width:0.5" />
          <circle cx="43.3" cy="30.5" r="1.4" />
          <circle cx="45.2" cy="26.7" r="1.4" />
          <circle cx="42.5" cy="27.7" r="1.4" />
        </g>
        <use transform="translate(4.1,-8.5)" xlink:href="#squ4" />
        <path d="M 31.4,65 C 34.6,62.5 34,58.4 32.4,57 31,59.5 31,62 31.4,65 z M 30,65 C 28,64 26,64 26,61 28.5,61 30,63 30,65 z" style="fill:#ffce09;stroke:#000000;stroke-width:0.5" />
        <path d="M 25.1,56 C 25.1,62 30.8,59 30.8,65" style="fill:none;stroke:#000000;stroke-width:2" />
        <path d="M 25.1,56 C 25.1,62 30.8,59 30.8,65" style="fill:none;stroke:#ffce09;stroke-width:1" />
        <g style="stroke:#000000;stroke-width:0.5">
          <path d="M 21.6,56.7 28.4,49.5 M 28.6,56.5 21.4,49.7" style="fill:none" />
          <circle cx="23.2" cy="55.2" r="1.3" style="fill:#fa0000;" />
          <circle cx="23" cy="51.2" r="1.3" style="fill:#fa0000" />
          <circle cx="27" cy="55" r="1.3" style="fill:#fa0000" />
          <circle cx="26.9" cy="51.1" r="1.3" style="fill:#fa0000" />
          <circle cx="25.1" cy="55.6" r="1.5" style="fill:#ffce09" />
          <circle cx="24.9" cy="50.6" r="1.5" style="fill:#ffce09" />
          <circle cx="27.5" cy="53" r="1.5" style="fill:#ffce09" />
          <circle cx="22.5" cy="53.2" r="1.5" style="fill:#ffce09" />
          <circle cx="25" cy="53.1" r="1.6" style="fill:#ffce09" />
        </g>
        <path d="M 18,58.4 24,68 18,78 z" style="fill:#fa0000" />
        <path d="M 18,58.4 28,64.4 28,72 18,78 22,71.1 20,68.2 22,65.3 z" style="fill:#ffce09;stroke:#000000;stroke-width:0.5" />
        <path d="M 23.2,74.9 25.6,71 23.6,68.2 25.6,65.4 23.2,61.5 21.5,60.6 24.4,65.4 22.4,68.2 24.4,71 21.5,75.8 z" style="fill:#000000;stroke:none" />
        <path d="M 28.7,72 31.6,72.3 C 33,72.4 33.2,70.7 31.8,70.6 L 29.7,70.3 32.8,70.7 C 34.3,70.8 34.4,68.9 33,68.8 L 30,68.5 33.8,68.9 C 35.2,69 35.4,66.9 34,66.8 L 30.5,66.5 33.7,66.8 C 34.9,66.9 35,65 33.9,64.8 32,64.3 30.6,64.3 28.5,64.4 26.3,64.5 26.2,71.7 28.7,72 z" style="fill:#fdf9ee;stroke:#000000;stroke-width:0.5" />
        <path d="M 27,64.3 C 25.8,66.3 25.8,70.1 27,72.1" style="stroke:#000000;stroke-width:2;stroke-linecap:round" />
        <path d="M 27,64.3 C 25.8,66.3 25.8,70.1 27,72.1" style="stroke:#ffce09;stroke-linecap:round" />
      </g>
      <use transform="matrix(-1,0,0,-1,100,155)" xlink:href="#sqg3" />
    </g>
    <use xlink:href="#pfl" />
    <use transform="matrix(2,0,0,2,8,-21)" xlink:href="#sp" />
    <use transform="matrix(-2,0,0,-2,92,176)" xlink:href="#sp" />
  </g>
</svg>
