<?xml version="1.0" encoding="UTF-8" standalone="no"?>
<svg xmlns="http://www.w3.org/2000/svg" xmlns:xlink="http://www.w3.org/1999/xlink" version="1.1" viewBox="0 0 101 156" id="pad" >
  <defs>
    <clipPath id="cpf">
      <rect width="100" height="155" ry="8" x="0" y="0" id="card" style="fill:#ffffff;stroke:#000000;stroke-width:1" />
    </clipPath>
  <g id="ht">
    <path d="M 14.8,24.1 C 15,21.1 12.2,20 10.5,21.9 8.7,20 6,21.1 6.2,24.1 6.333,26.1 9.4,29 10.5,31 11.6,29 14.667,26.1 14.8,24.1 z" id="ht0" />
    <path d="M 7.14,22.55 C 6.99,22.81 6.3,23.11 6.81,22.23 7.3,21.41 8.06,21.06 9,21.31 9.46,21.43 9.11,21.76 8.81,21.7 8.12,21.57 7.54,21.88 7.14,22.55 z M 10.6,22.36 C 11.19,22.35 11.84,21.51 12.77,21.71 13.01,21.76 13.45,21.41 12.89,21.25 12.19,21.05 11.21,21.42 10.64,22.02 10.49,22.21 10.44,22.37 10.6,22.36 z" style="opacity:0.8;fill:white" />
  </g>
    <path d="M 13.6281,7.375 C 12.899,7.37501 12.3495,7.77605 11.9797,8.57812 11.6099,9.37501 11.425,10.5755 11.425,12.1797 11.425,13.7787 11.6099,14.9792 11.9797,15.7812 12.3495,16.5781 12.899,16.9766 13.6281,16.9766 14.3625,16.9766 14.912,16.5781 15.2766,15.7812 15.6463,14.9792 15.8312,13.7787 15.8313,12.1797 15.8312,10.5755 15.6463,9.37501 15.2766,8.57812 14.912,7.77605 14.3625,7.37501 13.6281,7.375 M 13.6281,6.125 C 14.8052,6.12501 15.7036,6.64324 16.3234,7.67969 16.9432,8.71095 17.2531,10.2109 17.2531,12.1797 17.2531,14.1432 16.9432,15.6432 16.3234,16.6797 15.7036,17.7109 14.8052,18.2266 13.6281,18.2266 12.451,18.2266 11.5526,17.7109 10.9328,16.6797 10.313,15.6432 10.0031,14.1432 10.0031,12.1797 10.0031,10.2109 10.313,8.71095 10.9328,7.67969 11.5526,6.64324 12.451,6.12501 13.6281,6.125 M 6.90312,18 6.90312,7.77344 4.37187,8.33594 4.37187,6.89844 6.8875,6.33594 8.30937,6.33594 8.30937,18 6.90312,18" id="t10" />
  </defs>
  <g transform="translate(0.5,0.5)" id="10_heart" style="fill:#fa0000">
    <use xlink:href="#card" />
    <use xlink:href="#t10" />
    <use transform="translate(79,0)" xlink:href="#t10" />
    <use transform="matrix(-1,0,0,-1,21,155)" xlink:href="#t10" />
    <use transform="matrix(-1,0,0,-1,100,155)" xlink:href="#t10" />
    <use xlink:href="#ht0" />
    <use transform="translate(79,0)" xlink:href="#ht0" />
    <use transform="matrix(-1,0,0,-1,21,155)" xlink:href="#ht0" />
    <use transform="matrix(-1,0,0,-1,100,155)" xlink:href="#ht0" />
    <use transform="matrix(2,0,0,2,6,-23)" xlink:href="#ht" />
    <use transform="matrix(2,0,0,2,52,-23)" xlink:href="#ht" />
    <use transform="matrix(2,0,0,2,52,10)" xlink:href="#ht" />
    <use transform="matrix(2,0,0,2,29,-6.5)" xlink:href="#ht" />
    <use transform="matrix(2,0,0,2,6,10)" xlink:href="#ht" />
    <use transform="matrix(-2,0,0,-2,48,145)" xlink:href="#ht" />
    <use transform="matrix(-2,0,0,-2,94,145)" xlink:href="#ht" />
    <use transform="matrix(-2,0,0,-2,48,178)" xlink:href="#ht" />
    <use transform="matrix(-2,0,0,-2,94,178)" xlink:href="#ht" />
    <use transform="matrix(-2,0,0,-2,71,161.5)" xlink:href="#ht" />
  </g>
</svg>
