<?xml version="1.0" encoding="UTF-8" standalone="no"?>
<svg xmlns="http://www.w3.org/2000/svg" xmlns:xlink="http://www.w3.org/1999/xlink" version="1.1" viewBox="0 0 101 156" id="pad" >
  <defs>
    <clipPath id="cpf">
      <rect width="100" height="155" ry="8" x="0" y="0" id="card" style="fill:#ffffff;stroke:#000000;stroke-width:1" />
    </clipPath>
    <g id="cl">
      <path d="M 11.25,28.3 A 1,1 0 0 0 10.8,28 C 10.8,29 11.1,30.2 12,30.9 L 9,30.9 C 9.9,30.2 10.2,29 10.2,28 A 1,1 0 0 0 9.75,28.3 2.2,2.2 0 1 1 9.8,25.3 1,1 0 0 0 10.02,25.46 2.5,2.5 0 0 0 9.1,24.2 2.2,2.2 0 1 1 11.9,24.2 2.5,2.5 0 0 0 10.98,25.46 1,1 0 0 0 11.2,25.3 2.2,2.2 0 1 1 11.25,28.3" id="cl0" />
      <path d="M 6.5,25.75 C 6.22,26.19 6.76,26.27 6.88,26.08 7.27,25.43 7.95,25.19 8.64,25.35 8.81,25.39 9.03,25.04 8.67,24.91 7.95,24.63 6.96,25.02 6.5,25.75 z M 11.86,25.48 C 12.32,25.34 12.86,25.22 13.27,25.37 13.44,25.44 13.67,25.03 13.31,24.91 12.82,24.74 12.22,24.83 11.74,25.13 11.51,25.28 11.45,25.6 11.86,25.48 z M 8.83,21.49 C 8.54,21.93 9.09,22.01 9.21,21.81 9.6,21.16 10.29,20.9 10.96,21.11 11.13,21.16 11.36,20.77 11,20.64 10.26,20.39 9.29,20.76 8.83,21.49 z M 10.09,29.71 C 10.14,29.58 10.18,29.45 10.24,29.26 10.35,28.86 10.71,29.16 10.38,29.91 10.25,30.17 9.92,30.16 10.09,29.71 z" style="opacity:0.8;fill:#ffffff" />
    </g>
    <path d="M 6.75781,6.33594 8.34375,6.33594 8.34375,11.5234 13.2734,6.33594 15.125,6.33594 10.5859,11.1016 15.2578,18 13.3516,18 9.54687,12.1562 8.34375,13.4375 8.34375,18 6.75781,18 6.75781,6.33594" id="tK" />
    <clipPath id="pfc">
      <rect width="63.5" height="120.5" x="18.25" y="17.25" id="pfl" style="fill:none;stroke:#000000;stroke-width:0.5" />
    </clipPath>
    <clipPath id="ckc1">
      <circle cx="66" cy="83" r="6.8" id="cku1" />
    </clipPath>
    <clipPath id="ckc2">
      <path d="M 64.5,29.3 C 57.2,28 50,28 43.1,29.3 L 37.4,17 70.9,17 z" id="cku2" />
    </clipPath>
    <pattern id="ckp" patternTransform="translate(77,27)" height="2" width="2.7" patternUnits="userSpaceOnUse">
      <path style="fill:none;stroke:#000000;stroke-width:0.5" d="M 0,0 2.7,2" />
    </pattern>
    <g id="fleur" style="stroke-width:0">
      <path id="flc" d="M 1.4,4.3 C 1.7,3.8 1.7,3.2 0.6,3 1.7,2.8 1.7,2.2 1.4,1.7 2.2,2.4 3.4,3 4.4,3 3.4,3 2.2,3.6 1.4,4.3 z" style="stroke-width:0.8;stroke-linejoin:round" />
      <circle cx="4.3" cy="1.5" r="0.6" />
      <circle cx="4.3" cy="4.5" r="0.6" />
      <circle cx="6" cy="3" r="0.6" />
    </g>
  </defs>
  <g transform="translate(0.5,0.5)" id="king_club">
    <use xlink:href="#card" />
    <use xlink:href="#tK" />
    <use transform="translate(79,0)" xlink:href="#tK" />
    <use transform="matrix(-1,0,0,-1,21,155)" xlink:href="#tK" />
    <use transform="matrix(-1,0,0,-1,100,155)" xlink:href="#tK" />
    <use xlink:href="#cl0" />
    <use transform="translate(79,0)" xlink:href="#cl0" />
    <use transform="matrix(-1,0,0,-1,21,155)" xlink:href="#cl0" />
    <use transform="matrix(-1,0,0,-1,100,155)" xlink:href="#cl0" />
    <g clip-path="url(#pfc)">
      <g id="ckg1">
        <path d="M 46,45.4 49,76 61,76 66,45.4 z" style="fill:#000000" />
        <path d="M 46,45.4 56,53.8 66,45.4" style="fill:#fa0000" />
        <path d="M 46,50 56,58.4 66,50" style="fill:none;stroke:#ffce09;stroke-width:2.1" />
        <path d="M 53.5,58 53.5,54 M 51,56 51,52 M 48.5,54 48.5,50 M 56,60 56,56 M 58.5,58 58.5,54 M 61,56 61,52 M 63.5,54 63.5,50" style="fill:none;stroke:#000000;stroke-width:0.5" />
        <path d="M 46,53.1 56,61.5 66,53.1 M 46,55.9 56,64.3 66,55.9 M 46,58.7 56,67.1 66,58.7 M 46,61.5 56,69.9 66,61.5 M 46,64.3 56,72.7 66,64.3 M 47.07,68 56,75.5 66,67.1" style="fill:none;stroke:#ffce09;stroke-width:1.6" />
        <path d="M 56.2,99 56.2,76.5 76.75,76.5 76.75,98 67.5,104.3 z" style="fill:#ffffff" />
        <g style="fill:#0022cc;stroke:#0022cc">
          <use transform="matrix(0,1,-1,0,61.9,81.1)" xlink:href="#flc" />
          <use transform="matrix(0,1,-1,0,61.9,89.2)" xlink:href="#flc" />
          <use transform="matrix(0,1,-1,0,65.5,94.5)" xlink:href="#flc" />
          <use transform="matrix(0,1,-1,0,70.3,97.9)" xlink:href="#flc" />
          <use transform="matrix(0,1,-1,0,75.9,93.8)" xlink:href="#flc" />
          <use transform="matrix(0,1,-1,0,75.9,85.9)" xlink:href="#flc" />
        </g>
        <path d="M 60,77.9 75.5,77.9 75.5,50.8 z" style="fill:#0022cc;stroke:#000000;stroke-width:0.5" />
        <path d="M 75.5,76.5 75.5,98.9" style="fill:none;stroke:#000000" />
        <path d="M 56.2,95 56.2,76.5 49,76.5 z M 82,93.5 82,67 76.75,67 76.75,98" style="fill:#fa0000;stroke:#000000;stroke-width:0.5" />
        <use transform="matrix(0.3,0,0,-0.3,76,92.5)" style="fill:#ffffff" xlink:href="#cl0" />
        <use transform="matrix(0.3,0,0,-0.3,76,99)" style="fill:#ffffff" xlink:href="#cl0" />
        <g style="fill:#ffffff;stroke:#000000;stroke-width:0.5">
          <circle cx="54" cy="76.5" r="1.6" />
          <circle cx="56.2" cy="74.3" r="1.6" />
          <circle cx="56.2" cy="78.7" r="1.6" />
          <circle cx="58.4" cy="76.5" r="1.6" />
          <circle cx="56.2" cy="76.5" r="1.6" />
        </g>
        <path d="M 64.5,80 A 50.75,50.75 0 0 1 71.8,48.4" style="fill:none;stroke:#000000;stroke-width:9.5" />
        <path d="M 68.1,77.9 A 47,47 0 0 1 75,50.4" style="fill:none;stroke:#ffce09;stroke-width:1" />
        <path d="M 63.7,79.9 A 51.5,51.5 0 0 1 71.15,48" style="fill:none;stroke:#fa0000;stroke-width:7" />
        <circle cx="65.4" cy="61.5" r="1.5" style="fill:#ffffff" />
        <circle cx="65.4" cy="61.5" r="2.5" style="fill:none;stroke:#ffffff;stroke-width:0.5" />
        <use transform="matrix(0.498,0.042,-0.042,0.498,59.5,57)" style="fill:#ffffff" xlink:href="#cl0" />
        <use transform="matrix(0.456,0.205,-0.205,0.456,68.7,39.5)" style="fill:#ffffff" xlink:href="#cl0" />
        <path d="M 65,89.3 62.7,92.8 64.8,92.8 66,95 67.2,92.8 69.3,92.8 67,89.3" style="stroke:#000000;stroke-width:1.8" />
        <path d="M 65,89.3 62.7,92.8 64.8,92.8 66,95 67.2,92.8 69.3,92.8 67,89.3" style="fill:#000000;stroke:#ffce09;stroke-width:0.8" />
        <use xlink:href="#cku1" />
        <g clip-path="url(#ckc1)">
          <path d="M 59.5,82 A 28,28 0 0 0 72.5,82 6.6,6.9 0 0 0 59.5,82 z" style="fill:#ffce09" />
          <path d="M 66,75 A 9,9 0 0 1 69.6,82.5 M 66,75 A 20,20 0 0 1 67.2,82.5 M 66,75 A 9,9 0 0 0 62.4,82.5 M 66,75 A 20,20 0 0 0 64.8,82.5" style="fill:none;stroke:#000000;stroke-width:0.5" />
          <path d="M 59.5,82 A 28,28 0 0 0 72.5,82" style="fill:none;stroke:#000000;stroke-width:5.5" />
          <path d="M 59.5,82 A 28,28 0 0 0 72.5,82 M 66,89.7 66,82.8" style="fill:none;stroke:#ffce09;stroke-width:4.5" />
          <path d="M 59.5,82 A 28,28 0 0 0 72.5,82 M 66,89.7 66,82.8" style="fill:none;stroke:#000000;stroke-width:2.5" />
          <path d="M 59.5,82 A 28,28 0 0 0 72.5,82 M 66,89.3 66,82.8" style="fill:none;stroke:#ffce09;stroke-width:1.5;stroke-linecap:round;stroke-dasharray:0, 2.6;stroke-dashoffset:1.25" />
        </g>
        <use style="fill:none;stroke:#000000;stroke-width:0.5" xlink:href="#cku1" />
        <path d="M 82,93.5 C 75,100 66,106 56.6,108.9 M 76,51 67.8,45.8" style="fill:none;stroke:#000000;stroke-width:0.5" />
        <path d="M 74.3,66 74.3,29 77,27 79.7,29 79.7,66" style="fill:#ffffff;stroke:#000000;stroke-width:0.5" />
        <path d="M 77,27 C 77.1,27.65 77.2,28.3 77.2,29 77.2,29.7 76.8,31.6 76.8,33 76.8,34.4 77.2,35.6 77.2,37 77.2,38.4 76.8,39.6 76.8,41 76.8,42.4 77.2,43.6 77.2,45 77.2,46.4 76.8,47.6 76.8,49 76.8,50.4 77.2,51.6 77.2,53 77.2,54.4 76.8,55.6 76.8,57 76.8,58.4 77.2,59.6 77.2,61 77.2,62.4 76.8,63.6 76.8,65 L 79.7,66 79.7,29 z" style="fill:url(#ckp);stroke:#000000;stroke-width:0.5;stroke-linejoin:round" />
        <path d="M 77,66 77,78" style="stroke:#000000;stroke-width:3" />
        <path d="M 77,66 77,78" style="stroke:#ffce09;stroke-width:2" />
        <path d="M 80.2,75.02 C 80.81,75.37 80.5,76.58 79.9,76.62 L 78.55,76.82 C 77.92,76.86 77.67,75.86 78.29,75.34 M 80.6,73.33 C 81.21,73.68 80.79,74.93 80.2,75.02 L 78.29,75.34 C 77.66,75.44 77.46,74.15 78.12,73.86 M 80.65,71.36 C 81.25,71.71 81.18,73.2 80.6,73.33 L 78.12,73.86 C 77.5,74 77.07,72.92 77.72,72.18 M 80.5,69.69 C 81.1,70.04 81.22,71.2 80.65,71.36 L 77.72,72.18 C 77.1101,72.3507 76.59,71.59 77.24,70.84 78.99,69.5 79.6,70.05 80.5,69.69 z M 75.75,76.8 75.75,73 C 76.7,71 77.8,69.8 79.8,69.8 81.8,69.8 81.45,67.6 79.8,67.3 76.8,66.8 73,68.8 73,72.8 73,73.8 73.1,75.25 73.9,76.7 74.25,77.3 75.2,77.3 75.8,76.75 z" style="fill:#fdf9ee;stroke:#000000;stroke-width:0.5" />
        <path d="M 73.6,65.5 C 74.2,66.7 75.8,66.9 77,66.2 78.2,65.5 79.8,65.7 80.4,66.9" style="fill:none;stroke:#000000;stroke-width:2.5;stroke-linecap:round" />
        <path d="M 73.6,65.5 C 74.2,66.7 75.8,66.9 77,66.2 78.2,65.5 79.8,65.7 80.4,66.9" style="fill:none;stroke:#ffce09;stroke-width:1.5;stroke-linecap:round" />
        <circle cx="77" cy="79" r="2.3" style="fill:#ffce09;stroke:#000000;stroke-width:0.5" />
        <path d="M 78.3,78.6 A 1.3,1.3 0 0 1 76.3,80.1" style="fill:none;stroke:#000000;stroke-width:0.5" />
      </g>
      <use transform="matrix(-1,0,0,-1,100,155)" xlink:href="#ckg1" />
      <path d="M 67.5,104.3 C 43.8,90.5 59.4,66 43.4,46.1 L 32.5,50.7 C 56.2,64.5 40.6,89 56.6,108.9 z" style="fill:#000000" />
      <g id="ckg2" style="fill:#ffffff;stroke:#ffffff;stroke-width:0.3">
        <path d="M 48.71,82.99 C 49.07,83.72 50.32,83.09 50.06,82.54 49.86,82.11 50.39,81.83 50.68,82.28 51.73,83.93 51.54,85.7 51.19,87.66 50.85,86.83 49.23,87.11 49.08,88.13 48.92,89.18 50.14,89.08 50.17,88.37 50.19,87.9 51.29,87.66 51.06,89.72 50.89,91.2 50.95,92.83 51.11,94.07 51.5,97.07 53.02,99.92 55.16,99.88 57.41,99.83 58.41,97.36 57.28,95.69 56.01,93.81 53.57,95.16 54.15,96.9 54.42,97.7 55.68,97.41 55.44,96.52 55.29,95.94 56.17,95.63 56.54,96.23 57.34,97.54 56.38,98.97 55.21,99.05 53.53,99.17 52.28,96.37 51.93,94.09 51.81,93.28 51.91,92.03 52.19,91.63 52.88,90.62 53.96,91.75 52.97,92.31 52.34,92.67 52.94,93.8 53.72,93.26 54.44,92.77 54.61,91.97 54.42,91.38 54.01,90.18 52.52,90.04 51.8,90.81 51.91,87 53.6,83.63 51.26,81.34 50.07,80.18 47.82,81.17 48.71,82.99 z M 57.89,100.37 C 58.25,100.67 58.43,100.99 58.59,101.44 58.18,101.92 58.7,102.81 59.43,102.52 60.16,102.23 59.9,101.31 59.56,100.8 59.28,100.39 58.87,100.06 58.41,99.81 57.87,99.53 57.53,100.05 57.89,100.37 z" />
        <circle cx="49.8" cy="79" r="1" />
        <circle cx="53.3" cy="89" r="0.7" />
      </g>
      <use transform="matrix(-1,0,0,-1,100,155)" id="use4199" xlink:href="#ckg2" />
      <g id="ckg5">
        <use transform="translate(5.1,-2.1)" xlink:href="#ckg4" />
        <use transform="translate(3.4,-1.4)" xlink:href="#ckg4" />
        <use transform="translate(1.7,-0.7)" xlink:href="#ckg4" />
        <path d="M 44.1,42.7 C 44.1,42.7 42.5,43.6 40.3,44.3 38.6,44.9 37.6,47.8 39.8,49.3 42.2,51.2 48.9,52.4 49.6,46.3 L 50.2,46.3 C 50.6,48 52,50.1 54.4,51.2 58.2,52.9 60.3,49 59.5,47.4 L 58,39 M 43.1,31.2 C 43.2,32.7 42.6,33.8 41.9,33.7 40.4,33.4 40.1,36.2 41.8,36.1 42.5,36 43.2,35.3 43.2,34.1 M 43.3,36.3 C 43.4,37.9 42.2,40 41.8,39.4 40.8,38.1 39,39.5 40.2,41.1 41,41.7 43.7,41.6 43.5,38.6" style="fill:#f9f9ff" />
        <path d="M 43.1,29.3 C 43.1,33.7 43.3,37.7 44,42 45,48 56.6,48.4 58,39 L 57.3,28.4 50,28" style="fill:#fdf9ee" />
        <path d="M 40.3,44.3 44.1,42.7 M 48.1,46.1 C 47.8,48 46.4,50.3 44.8,50.8 M 46.6,45.5 C 46.1,48.2 44.3,50.3 42.7,50.6 M 42.1,43.6 C 42.6,43.3 43.3,43.9 43.7,44.6 M 39.8,49.3 C 42.2,51.2 48.9,52.4 49.6,46.3 M 41,45.9 C 39.8,46.5 40.7,48 41.6,47.6 43.6,46.6 42.5,43.6 40.3,44.3 38.6,44.9 37.6,47.8 39.8,49.3 42.3,51 44.7,47.7 45,44.3 M 56.8,42.6 58.4,43.3 M 55.6,44.1 C 56.6,45 57.5,45.3 58.9,45.7 M 54.1,45.3 C 54.6,45.9 55.3,46.5 56.2,46.8 M 52.1,46.1 C 53.4,48 55.6,50.2 57,49 M 50.2,46.3 C 50.6,48 52,50.1 54.4,51.2 58.2,52.9 60.3,49 59.5,47.4 58.3,45 55.4,46.2 56.2,48.2 56.8,49.6 58.6,49 57.9,47.6 M 43.1,31.2 C 43.2,32.7 42.6,33.8 41.9,33.7 40.4,33.4 40.1,36.2 41.8,36.1 42.5,36 43.2,35.3 43.2,34.1 M 43.3,36.3 C 43.4,37.9 42.2,40 41.8,39.4 40.8,38.1 39,39.5 40.2,41.1 41,41.7 43.7,41.6 43.5,38.6 M 43.1,29.3 C 43.1,33.7 43.3,37.7 44.1,42.7 44,44.3 43,46.8 41.6,47.6" style="fill:none;stroke:#000000;stroke-width:0.5" />
        <path d="M 51.81,34.8 53.28,36.94 M 43.19,32.12 C 45.64,30.65 47.75,31.29 48.27,32.46 48.98,34.68 48.53,37.11 48.07,37.94 46.83,40.02 49.97,40.53 50.07,38.81 50.54,40.5 52.98,39.59 52.18,38.14 M 51.21,32.09 C 52.61,30.53 55.59,30.97 57.43,32.19 M 46.9,36.87 48.6,34.8 M 43.2,33.9 C 44.62,34.66 46.96,35.27 48.27,33.86 46.82,32.54 44.6,33.22 43.2,33.9 z M 51.81,33.76 C 52.97,35.11 55.53,34.47 57.09,33.73 55.48,32.92 53.04,32.58 51.81,33.76 z M 47.5,43.85 C 48.76,43.79 49.43,43.11 50.05,43.83 50.73,43.1 51.51,43.83 52.71,43.89 50.96,44.23 49.43,44.34 47.5,43.85 z M 46.37,39.95 C 44.71,39.39 44.41,42.54 46.63,42.43 47.62,42.38 48.33,40.75 48.65,41.11 49.07,41.57 47.63,42.38 46.63,42.43 M 54.09,39.92 C 55.61,39.35 56,42.26 54.15,42.39 52.91,42.47 51.31,41.52 51.66,41.11 51.98,40.73 52.92,42.45 54.15,42.39 M 49,45.1 C 49.7,45.4 50.4,45.4 51.1,45.1" style="fill:none;stroke:#000000;stroke-width:0.5;stroke-linejoin:round" />
        <path d="M 45.5,33.2 45.7,34.7 46.8,34.6 47,33.2 M 53.1,33.1 53.3,34.5 54.4,34.4 54.6,33 M 48.1,43.7 50.1,44.2 52,43.7" style="fill:#000000" />
        <g id="ckg4">
          <path d="M 57.3,28.4 C 58,38 58,45.1 60.3,49.1 62,52.1 66.5,49.4 64.7,46.1 64.1,45 62.6,44.2 60.9,45.4 59.8,40 59.5,36 59.2,28.6" style="fill:#f9f9ff" />
          <path d="M 57.3,28.4 C 58,38 58,45.1 60.3,49.1 62,52.1 66.5,49.4 64.7,46.1 64.1,45 62.6,44.2 60.9,45.4 M 59.2,28.6 C 59.5,36 59.8,42.1 61.3,47.1 62.1,49.7 64.3,47.3 62.6,46.6" style="fill:none;stroke:#000000;stroke-width:0.5" />
        </g>
        <use style="fill:#ffce09" xlink:href="#cku2" />
        <g clip-path="url(#ckc2)">
          <g id="ckg3" style="fill:#000000">
            <circle cx="53.8" cy="19.9" r="0.9" />
            <circle cx="52.5" cy="21.8" r="0.9" />
            <circle cx="55.1" cy="21.8" r="0.9" />
          </g>
          <use transform="translate(7.15,0.6)" xlink:href="#ckg3" />
          <use transform="translate(-7.15,0.6)" xlink:href="#ckg3" />
          <use transform="translate(-14.3,1.2)" xlink:href="#ckg3" />
          <use transform="translate(14.3,1.2)" xlink:href="#ckg3" />
          <path d="M 54.4,22.8 A 3.15,3 0 0 0 60.4,23.4 1.6,1.5 0 0 1 57.4,23.4 1.6,1.5 0 0 1 54.4,22.8 z" id="cku3" style="fill:#000000;stroke:#000000;stroke-width:0.5;stroke-linejoin:round" />
          <use transform="translate(7.1,0.6)" xlink:href="#cku3" />
          <use transform="matrix(-1,0,0,1,107.6,0)" xlink:href="#cku3" />
          <use transform="matrix(-1,0,0,1,100.5,0.6)" xlink:href="#cku3" />
          <path d="M 68,25 A 3.8,3.6 0 0 1 60.9,24.5 3.8,3.6 0 0 1 53.8,24 3.8,3.6 0 0 1 46.7,24.5 3.8,3.6 0 0 1 39.6,25 L 43.1,29.3 64.4,29.3 z" style="fill:#000000;stroke:#000000;stroke-width:0.5;stroke-linejoin:round" />
          <path d="M 43.1,29.3 C 50,28 57.2,28 64.5,29.3" style="fill:none;stroke:#fa0000;stroke-width:3.2;stroke-linecap:square" />
        </g>
        <use style="fill:none;stroke:#000000;stroke-width:0.5" xlink:href="#cku2" />
      </g>
      <use transform="matrix(-1,0,0,-1,100,155)" xlink:href="#ckg5" />
    </g>
    <use xlink:href="#pfl" />
    <use transform="matrix(2,0,0,2,8,-21)" xlink:href="#cl" />
    <use transform="matrix(-2,0,0,-2,92,176)" xlink:href="#cl" />
  </g>
</svg>
