<?xml version="1.0" encoding="UTF-8" standalone="no"?>
<svg xmlns="http://www.w3.org/2000/svg" xmlns:xlink="http://www.w3.org/1999/xlink" version="1.1" viewBox="0 0 101 156" id="pad" >
  <defs>
    <clipPath id="cpf">
      <rect width="100" height="155" ry="8" x="0" y="0" id="card" style="fill:#ffffff;stroke:#000000;stroke-width:1" />
    </clipPath>
  <g id="sp">
    <path d="M 10.8,28 C 11.2,28.6 11.9,28.9 12.6,28.9 14,28.9 14.8,27.7 14.8,26.5 14.8,23.8 11.9,22.5 10.5,20 9.1,22.5 6.2,23.8 6.2,26.5 6.2,27.7 7,28.9 8.4,28.9 9.1,28.9 9.8,28.6 10.2,28 10.2,28.8 9.9,30.2 9,30.9 L 12,30.9 C 11.1,30.2 10.8,28.8 10.8,28 z" id="sp0" />
    <path d="M 10.01,21.12 C 10.64,20.38 10.65,21.29 10.32,21.53 10.16,21.65 10.02,21.81 9.84,22.02 8.66,23.34 7.7,24.07 7.17,25.28 7.03,25.59 6.62,25.42 6.88,24.84 7.27,23.93 8.86,22.48 10.01,21.12 z M 10.09,29.71 C 10.14,29.58 10.18,29.45 10.24,29.26 10.35,28.86 10.71,29.16 10.38,29.91 10.25,30.17 9.92,30.16 10.09,29.71 z" style="opacity:0.8;fill:white" />
  </g>
    <path d="M 13.6281,7.375 C 12.899,7.37501 12.3495,7.77605 11.9797,8.57812 11.6099,9.37501 11.425,10.5755 11.425,12.1797 11.425,13.7787 11.6099,14.9792 11.9797,15.7812 12.3495,16.5781 12.899,16.9766 13.6281,16.9766 14.3625,16.9766 14.912,16.5781 15.2766,15.7812 15.6463,14.9792 15.8312,13.7787 15.8313,12.1797 15.8312,10.5755 15.6463,9.37501 15.2766,8.57812 14.912,7.77605 14.3625,7.37501 13.6281,7.375 M 13.6281,6.125 C 14.8052,6.12501 15.7036,6.64324 16.3234,7.67969 16.9432,8.71095 17.2531,10.2109 17.2531,12.1797 17.2531,14.1432 16.9432,15.6432 16.3234,16.6797 15.7036,17.7109 14.8052,18.2266 13.6281,18.2266 12.451,18.2266 11.5526,17.7109 10.9328,16.6797 10.313,15.6432 10.0031,14.1432 10.0031,12.1797 10.0031,10.2109 10.313,8.71095 10.9328,7.67969 11.5526,6.64324 12.451,6.12501 13.6281,6.125 M 6.90312,18 6.90312,7.77344 4.37187,8.33594 4.37187,6.89844 6.8875,6.33594 8.30937,6.33594 8.30937,18 6.90312,18" id="t10" />
  </defs>
  <g transform="translate(0.5,0.5)" id="10_spade">
    <use xlink:href="#card" />
    <use xlink:href="#t10" />
    <use transform="translate(79,0)" xlink:href="#t10" />
    <use transform="matrix(-1,0,0,-1,21,155)" xlink:href="#t10" />
    <use transform="matrix(-1,0,0,-1,100,155)" xlink:href="#t10" />
    <use xlink:href="#sp0" />
    <use transform="translate(79,0)" xlink:href="#sp0" />
    <use transform="matrix(-1,0,0,-1,21,155)" xlink:href="#sp0" />
    <use transform="matrix(-1,0,0,-1,100,155)" xlink:href="#sp0" />
    <use transform="matrix(2,0,0,2,6,-23)" xlink:href="#sp" />
    <use transform="matrix(2,0,0,2,52,-23)" xlink:href="#sp" />
    <use transform="matrix(2,0,0,2,52,10)" xlink:href="#sp" />
    <use transform="matrix(2,0,0,2,29,-6.5)" xlink:href="#sp" />
    <use transform="matrix(2,0,0,2,6,10)" xlink:href="#sp" />
    <use transform="matrix(-2,0,0,-2,48,145)" xlink:href="#sp" />
    <use transform="matrix(-2,0,0,-2,94,145)" xlink:href="#sp" />
    <use transform="matrix(-2,0,0,-2,48,178)" xlink:href="#sp" />
    <use transform="matrix(-2,0,0,-2,94,178)" xlink:href="#sp" />
    <use transform="matrix(-2,0,0,-2,71,161.5)" xlink:href="#sp" />
  </g>
</svg>
