<?xml version="1.0" encoding="UTF-8" standalone="no"?>
<svg xmlns="http://www.w3.org/2000/svg" xmlns:xlink="http://www.w3.org/1999/xlink" version="1.1" viewBox="0 0 101 156" id="pad" >
  <defs>
    <clipPath id="cpf">
      <rect width="100" height="155" ry="8" x="0" y="0" id="card" style="fill:#ffffff;stroke:#000000;stroke-width:1" />
    </clipPath>
    <g id="cl">
      <path d="M 11.25,28.3 A 1,1 0 0 0 10.8,28 C 10.8,29 11.1,30.2 12,30.9 L 9,30.9 C 9.9,30.2 10.2,29 10.2,28 A 1,1 0 0 0 9.75,28.3 2.2,2.2 0 1 1 9.8,25.3 1,1 0 0 0 10.02,25.46 2.5,2.5 0 0 0 9.1,24.2 2.2,2.2 0 1 1 11.9,24.2 2.5,2.5 0 0 0 10.98,25.46 1,1 0 0 0 11.2,25.3 2.2,2.2 0 1 1 11.25,28.3" id="cl0" />
      <path d="M 6.5,25.75 C 6.22,26.19 6.76,26.27 6.88,26.08 7.27,25.43 7.95,25.19 8.64,25.35 8.81,25.39 9.03,25.04 8.67,24.91 7.95,24.63 6.96,25.02 6.5,25.75 z M 11.86,25.48 C 12.32,25.34 12.86,25.22 13.27,25.37 13.44,25.44 13.67,25.03 13.31,24.91 12.82,24.74 12.22,24.83 11.74,25.13 11.51,25.28 11.45,25.6 11.86,25.48 z M 8.83,21.49 C 8.54,21.93 9.09,22.01 9.21,21.81 9.6,21.16 10.29,20.9 10.96,21.11 11.13,21.16 11.36,20.77 11,20.64 10.26,20.39 9.29,20.76 8.83,21.49 z M 10.09,29.71 C 10.14,29.58 10.18,29.45 10.24,29.26 10.35,28.86 10.71,29.16 10.38,29.91 10.25,30.17 9.92,30.16 10.09,29.71 z" style="opacity:0.8;fill:#ffffff" />
    </g>
    <path d="M 10.8047,18.2109 C 10.7682,18.2109 10.7161,18.2135 10.6484,18.2188 10.5807,18.224 10.526,18.2266 10.4844,18.2266 9.18229,18.2266 8.20833,17.7266 7.5625,16.7266 6.92187,15.7266 6.60156,14.2109 6.60156,12.1797 6.60156,10.1432 6.92187,8.62501 7.5625,7.625 8.20833,6.62501 9.1875,6.12501 10.5,6.125 11.8177,6.12501 12.7969,6.62501 13.4375,7.625 14.0833,8.62501 14.4062,10.1432 14.4062,12.1797 14.4062,13.7109 14.2266,14.9453 13.8672,15.8828 13.513,16.8151 12.974,17.4688 12.25,17.8438 L 13.8125,19.3281 12.6328,20.1094 10.8047,18.2109 M 12.7578,12.1797 C 12.7578,10.4662 12.5807,9.2422 12.2266,8.50781 11.8776,7.77345 11.3021,7.40626 10.5,7.40625 9.70312,7.40626 9.1276,7.77345 8.77344,8.50781 8.42448,9.2422 8.25,10.4662 8.25,12.1797 8.25,13.888 8.42448,15.1094 8.77344,15.8437 9.1276,16.5781 9.70312,16.9453 10.5,16.9453 11.3021,16.9453 11.8776,16.5807 12.2266,15.8516 12.5807,15.1172 12.7578,13.8932 12.7578,12.1797" id="tQ" />
    <clipPath id="pfc">
      <rect width="63.5" height="120.5" x="18.25" y="17.25" id="pfl" style="fill:none;stroke:#000000;stroke-width:0.5" />
    </clipPath>
    <clipPath id="chc1">
      <path d="M 51,53 41,53 42,66 8,99 47,99 z" />
    </clipPath>
    <clipPath id="chc2">
      <path d="M 17.85,75.2 33.4,60.4 40,50 45,50 45,92 18,92 z" />
    </clipPath>
    <g id="fleur" style="stroke-width:0">
      <path id="flc" d="M 1.4,4.3 C 1.7,3.8 1.7,3.2 0.6,3 1.7,2.8 1.7,2.2 1.4,1.7 2.2,2.4 3.4,3 4.4,3 3.4,3 2.2,3.6 1.4,4.3 z" style="stroke-width:0.8;stroke-linejoin:round" />
      <circle cx="4.3" cy="1.5" r="0.6" />
      <circle cx="4.3" cy="4.5" r="0.6" />
      <circle cx="6" cy="3" r="0.6" />
    </g>
    <marker markerUnits="userSpaceOnUse" refX="3" refY="3" markerWidth="8" markerHeight="8" orient="auto" id="wfl">
      <use style="fill:#ffffff;stroke:#ffffff" xlink:href="#fleur" />
    </marker>
  </defs>
  <g transform="translate(0.5,0.5)" id="queen_club">
    <use xlink:href="#card" />
    <use xlink:href="#tQ" />
    <use transform="translate(79,0)" xlink:href="#tQ" />
    <use transform="matrix(-1,0,0,-1,21,155)" xlink:href="#tQ" />
    <use transform="matrix(-1,0,0,-1,100,155)" xlink:href="#tQ" />
    <use xlink:href="#cl0" />
    <use transform="translate(79,0)" xlink:href="#cl0" />
    <use transform="matrix(-1,0,0,-1,21,155)" xlink:href="#cl0" />
    <use transform="matrix(-1,0,0,-1,100,155)" xlink:href="#cl0" />
    <g clip-path="url(#pfc)">
      <path d="M 50,76 55,76 76,59 76,53 50.17,52.93 z M 50,79 45,79 24,96 24,102 49.83,102.07 z" style="fill:#fa0000" />
      <g id="chg1">
        <path d="M 42,45 52,45 47,26 z" style="fill:#000000" />
        <path d="M 54,45 66,45 62.9298,36.8333 z" style="fill:#fdf9ee" />
        <path d="M 21.7,70.1 C 23.7,65 28,58 28,52" style="fill:none;stroke:#000000;stroke-width:1.8;stroke-linecap:round" />
        <path d="M 21.7,70.1 C 23.7,65 28,58 28,52" style="fill:none;stroke:#ffce09;stroke-width:0.8;stroke-linecap:round" />
        <g style="fill:#ffce09;stroke:#000000;stroke-width:0.5">
          <path d="M 21.7,53.6 C 21.2,57 23.8,59.8 25.6,58.8 26.8,56.8 24.2,55 21.7,53.6 z M 27.3,58.9 C 28.3,60.9 31.7,60.6 33.7,58 31.7,57.6 28.3,56.9 27.3,58.9 z" />
          <path d="M 25.5,49.7 30.5,54.3 M 25.7,54.5 30.3,49.5 M 25.6,58.8 23.9,56.9 M 27.3,58.9 30.1,58.8" style="fill:none" />
          <circle cx="27.9" cy="49.7" r="1.6" />
          <circle cx="25.7" cy="52.1" r="1.6" />
          <circle cx="30.3" cy="51.9" r="1.6" />
          <circle cx="28.1" cy="54.3" r="1.6" />
          <circle cx="28" cy="52" r="1.4" />
        </g>
        <path d="M 23.4,58.88 C 22.66,59.09 22.2,60.23 22.89,60.83 L 22.92,60.89 C 21.71,60.93 21.26,62.86 22.01,63.36 20.81,63.53 20.82,64.84 21.59,65.29 L 21.88,65.45 C 20.78,65.68 20.78,66.8 21.56,67.19 L 23.5,68.16 C 23.62,69.23 24.15,69.91 25.09,70.14 28.17,70.89 30.21,68.02 29.97,64.7 29.81,63.05 28.65,61.09 26.39,60.56 L 24.23,59.02 C 23.94,58.82 23.65,58.81 23.4,58.88 z" style="fill:#fdf9ee" />
        <path d="M 23.49,68.15 C 23.68,69.46 24.3,69.99 25.08,70.14 28.59,70.83 30.19,67.51 29.96,64.7 29.84,63.15 28.69,61.1 26.39,60.56 24.72,60.17 24.01,61.54 24.53,62.27 25.04,62.98 25.96,63.43 26.67,63.06 26.08,64.19 26.34,65.85 27.55,66.58 M 21.97,65.43 C 20.76,65.6 20.76,66.77 21.57,67.17 L 23.49,68.15 C 24.19,68.5 25.02,67.6 24.52,66.82 M 22.02,63.35 C 20.81,63.52 20.82,64.84 21.59,65.29 L 24.01,66.68 C 24.9,67.2 25.62,65.89 25.03,65 M 22.92,60.9 C 21.7,60.93 21.27,62.85 22.02,63.35 L 24.29,64.83 C 25.15,65.4 26.31,64.41 25.7,63.15 M 26.39,60.56 24.2,59.02 C 23.1,58.24 21.95,60.04 22.87,60.84 L 24.53,62.27" style="fill:none;stroke:#000000;stroke-width:0.5" />
        <g clip-path="url(#chc1)">
          <circle cx="28" cy="77.5" r="18" style="fill:#000000" />
          <circle cx="28" cy="77.5" r="17" style="fill:none;stroke:#ffffff;stroke-width:1" />
          <path d="M 18,100 23,100 28,93.4 18,90 z" style="fill:#0022cc;stroke:#000000;stroke-width:0.5" />
          <path d="M 41,53 51,53 50,76 44,76 41,68 z" style="fill:#fa0000" />
          <circle cx="28" cy="77.5" r="16.5" style="fill:#000000" />
          <circle cx="28" cy="77.5" r="15.5" style="fill:none;stroke:#ffce09;stroke-width:1" />
          <circle cx="28" cy="77.5" r="9.5" style="fill:none;stroke:#ffce09;stroke-width:1" />
          <circle cx="28" cy="77.5" r="8.5" style="fill:#0022cc" />
          <circle cx="28" cy="77.5" r="5.5" style="fill:#fa0000;stroke:#000000;stroke-width:0.5" />
          <path d="M 38.2,70.82 C 39.18,70.73 39.67,73.42 38.75,74.74 37.57,73.56 37.22,70.9096 38.2,70.82 z M 38.66,68.96 C 39.38,68.26 41.21,70.94 41.1,72.55 39.63,72.07 37.93,69.66 38.66,68.96 z" id="chu1" style="fill:#ffce09" />
          <use transform="matrix(0.94,0.342,-0.342,0.94,28.19,-4.9)" xlink:href="#chu1" />
          <use transform="matrix(0.766,0.643,-0.643,0.766,56.36,0.13)" xlink:href="#chu1" />
          <use transform="matrix(0.5,0.866,-0.866,0.5,81.11,14.5)" xlink:href="#chu1" />
          <use transform="matrix(0.174,0.985,-0.985,0.174,99.45,36.46)" xlink:href="#chu1" />
          <use transform="matrix(-0.174,0.985,-0.985,-0.174,109.17,63.37)" xlink:href="#chu1" />
          <use transform="matrix(-0.5,0.866,-0.866,-0.5,109.11,91.98)" xlink:href="#chu1" />
          <use transform="matrix(-0.766,0.643,-0.643,-0.766,99.26,118.85)" xlink:href="#chu1" />
          <use transform="matrix(-0.94,0.342,-0.342,-0.94,80.81,140.73)" xlink:href="#chu1" />
        </g>
        <path d="M 47,77 A 93,93 0 0 1 50.17,52.93 L 63.19,53.15 A 33,33 0 0 0 53,77 z" style="fill:#000000" />
        <path d="M 49.5,77 A 60,60 0 0 1 54.55,52.9 L 57.13,52.94 A 47,47 0 0 0 50.5,77 z" style="fill:#ffce09" />
        <path d="M 52.01,76.11 C 52.02,75.74 51.52,75.44 51.54,75.05 51.56,74.66 52.09,74.42 52.12,74.04 52.15,73.65 51.65,73.34 51.69,72.95 51.73,72.56 52.3,72.36 52.35,71.97 52.39,71.58 51.87,71.26 51.93,70.87 52,70.47 52.63,70.33 52.69,69.93 52.76,69.53 52.19,69.19 52.28,68.79 52.37,68.39 53.06,68.32 53.16,67.91 53.26,67.5 52.63,67.1 52.75,66.67 52.87,66.24 53.64,66.22 53.78,65.78 53.92,65.35 53.22,64.91 53.37,64.42 53.51,63.94 54.43,63.98 54.62,63.5 54.81,63.02 54.02,62.47 54.21,61.94 54.41,61.4 55.47,61.55 55.73,61.02 55.99,60.49 55.09,59.77 55.36,59.16 55.63,58.56 56.87,58.91 57.21,58.33 57.56,57.75 56.42,57 56.78,56.35 57.13,55.69 58.51,56.31 59,55.67 59.48,55.03 58.12,54.03 58.6,53.33 59.07,52.63 60.79,53.43 61.29,52.87 M 51.86,51.97 C 51.64,52.61 52.71,53.38 52.45,54.1 52.2,54.83 51.01,54.85 50.83,55.52 50.65,56.19 51.54,56.82 51.36,57.44 51.17,58.05 50.15,58.21 50.01,58.82 49.88,59.44 50.65,59.97 50.5,60.55 50.36,61.13 49.49,61.34 49.39,61.87 49.29,62.41 49.97,62.85 49.87,63.35 49.77,63.86 49.02,64.03 48.94,64.52 48.87,65 49.49,65.36 49.41,65.82 49.34,66.28 48.67,66.45 48.62,66.88 48.56,67.32 49.14,67.66 49.08,68.1 49.02,68.54 48.42,68.76 48.37,69.19 48.32,69.62 48.85,69.96 48.82,70.39 48.78,70.81 48.21,71.07 48.18,71.5 48.15,71.92 48.66,72.26 48.63,72.68 48.61,73.11 48.08,73.39 48.06,73.81 48.04,74.23 48.54,74.59 48.53,74.98 48.52,75.38 48.01,75.74 48,76.13" style="fill:none;stroke:#ffce09;stroke-width:0.8" />
        <rect width="9" height="5" x="44.1" y="75" style="fill:#000000" />
        <path d="M 39,49 71,49" style="stroke:#000000;stroke-width:10" />
        <path d="M 39,53 71,53 M 39,46.5 67,46.5 M 41,45 67,45" style="fill:none;stroke:#ffce09;stroke-width:1" />
        <path d="M 47.3,47.5 44.3,52 47.1,52 50.1,47.5 52.9,47.5 49.9,52 52.7,52 55.7,47.5 58.5,47.5 55.5,52 58.3,52 61.3,47.5 64.1,47.5 61.1,52 63.9,52 66.9,47.5 69.7,47.5 66.7,52 69.5,52 70,49.75 39,49.75 38.7,52 41.5,52 44.5,47.5 z" style="fill:#ffce09" />
        <g clip-path="url(#chc2)">
          <circle cx="32" cy="60" r="12" style="fill:#000000" />
          <circle cx="32" cy="60" r="11" style="fill:none;stroke:#ffce09;stroke-width:1" />
          <circle cx="32" cy="60" r="9.5" style="fill:none;stroke:#ffffff;stroke-width:1" />
          <circle cx="32" cy="60" r="7.5" style="fill:#0022cc" />
          <path d="M 36.5,64.7 13.5,86.6" style="fill:none;stroke:#000000;stroke-width:11" />
          <path d="M 39.7,67.9 16.7,89.8" style="fill:none;stroke:#ffce09;stroke-width:1" />
          <path d="M 33.3,61.5 10.3,83.4" style="fill:none;stroke:#fa0000;stroke-width:1" />
          <path d="M 36.5,64.7 13.5,86.6" style="fill:none;stroke:#ffffff;stroke-width:7" />
          <path d="M 36.5,64.7 13.5,86.6" style="fill:none;stroke:#0022cc;stroke-width:5" />
          <path d="M 15.7,84.5 21.47,79 27.22,73.58 32.97,68.1 38.7,62.6" style="fill:#ffffff;fill-opacity:0;marker-mid:url(#wfl)" />
          <path d="M 32,60 40,68.4" style="fill:none;stroke:#000000;stroke-width:2" />
          <path d="M 32,60 39.95,68.35" style="fill:none;stroke:#ffffff;stroke-width:1" />
        </g>
        <path d="M 17.85,75.2 33.4,60.4 36.2,56" style="fill:none;stroke:#000000;stroke-width:0.5" />
        <use transform="matrix(0.3,0,0,0.3,43.2,49.2)" style="fill:#ffffff" xlink:href="#cl" />
        <use transform="matrix(0.3,0,0,0.3,41.7,59.5)" style="fill:#ffffff" xlink:href="#cl" />
        <use transform="matrix(0.3,0,0,0.3,55.7,54.3)" style="fill:#ffffff" xlink:href="#cl" />
        <use transform="matrix(0.3,0,0,0.3,60.3,49.7)" style="fill:#ffffff" xlink:href="#cl" />
        <use transform="matrix(0.3,0,0,0.3,67.1,49.6)" style="fill:#ffffff" xlink:href="#cl" />
      </g>
      <use transform="matrix(-1,0,0,-1,100,155)" xlink:href="#chg1" />
      <g id="chg3">
        <path d="M 60.5,17 81.5,55.5 77,57 58,17 z" style="fill:#000000" />
        <path d="M 75.3,38.7 82,38.5 C 77,34.5 76.5,25 76.5,17 L 63,17 z" style="fill:#ffce09;stroke:#000000;stroke-width:0.5" />
        <path d="M 61.5,16.2 74.2,39.6" style="stroke:#000000;stroke-width:3.5" />
        <path d="M 61.5,16.2 74,39.2" style="stroke:#fa0000;stroke-width:2.5" />
        <path d="M 46.6,17 C 46,39 49,55 63.5,37 L 59,17 z" style="fill:#fdf9ee;fill-opacity:1;stroke:#000000;stroke-width:0.5" />
        <path d="M 46.5,28.55 C 48.31,29.26 50.15,29.4 51.34,28.4 50.25,27.26 48.27,27.36 46.5,28.55 z M 53.76,28.42 C 54.78,29.36 57.2,29.28 58.92,28.72 57.23,27.34 55.1,27.37 53.76,28.42 z M 48.72,32.41 C 49.54,31.83 50.25,31.34 51.07,30.21 M 55.82,32.26 C 54.68,31.63 54.04,30.9 53.47,29.99 M 51.08,40.82 C 51.98,40.07 53.15,40.14 53.6,40.82 M 53.38,26.73 C 54.84,25.33 57.39,25.34 59.46,27.29 M 46.96,26.14 C 48.39,25.55 50.35,25.34 51.12,26.63 51.34,26.99 51.42,27.96 51.35,28.65 51.11,31.33 50.01,33.39 50.08,34.54 50.17,36.01 51.76,35.47 51.98,34.74 52.27,35.5 54.28,35.69 53.96,34.05 M 49.92,38.18 C 51.44,38.48 53.47,38.55 55.05,38.14 53.91,37.97 52.79,37.53 52.44,38.03 52.07,37.52 51.03,37.97 49.92,38.18 z"  style="fill:none;stroke:#000000;stroke-width:0.5;stroke-linejoin:round" />
        <path d="M 50.61,38.18 52.38,37.86 54.49,38.23 z M 49.88,27.71 49.74,29 48.58,29 48.48,27.69 M 55.2,27.74 55.31,28.95 56.36,28.95 56.6,27.79" style="fill:#000000" />
        <path d="M 46.5,26 C 49,25 52,22 51.7,17 52,22 56,25.4 60,27.4 L 59,17 46.6,17 z" style="fill:#f9f9ff;stroke:#000000;stroke-width:0.5" />
        <path d="M 58,17 C 59,35 72,69 82,55.5 74,59 63,25 59.5,17 z" style="fill:#f9f9ff;stroke:#000000;stroke-width:0.5" />
        <path d="M 71.4,55.4 C 73.2,57 77.5,56.5 79.5,55.5 M 69.4,52.7 C 70.3,54 74.7,53.9 76.7,53.4 M 66,46.7 C 66.6,47.9 70.8,48.6 73.1,48.3 M 64.4,43.1 C 65.1,44.9 69,45.6 71.6,45.5 M 63,39.5 C 63.5,41 67.7,42.7 70.1,42.7 M 61.8,35.9 C 62.5,37.7 66.3,39.4 68.5,39.5 M 59.6,27.9 C 60.6,30.7 63.8,32.3 66.2,33.5 M 58.7,22.9 C 59.2,25.6 62,27.8 64.4,29.3 M 58,17 C 58.4,20.5 60.2,22.2 62.3,24.1 M 60.7,32.3 C 61.2,34.1 64.8,36 67.2,36.5 M 67.6,49.9 C 68.4,51 72.4,51.3 74.8,50.9 M 53.9,17 C 53.9,20 57,23 59,24 M 56,17 C 56,18 57,20 58.2,20.5 M 49.5,17 C 49.5,20 48.4,22 47,23" style="fill:none;stroke:#000000;stroke-width:0.5" />
        <path d="M 46.6,17 C 46,37 34,42 36.2,56 42,47 49,34 46.6,17 z" style="fill:#fa0000;stroke:#000000;stroke-width:0.5" />
        <g id="chg2">
          <circle cx="77.8" cy="37" r="0.8" style="fill:#000000" />
          <circle cx="76.3" cy="34.5" r="0.8" style="fill:#000000" />
          <circle cx="78.4" cy="34.9" r="0.8" style="fill:#000000" />
          <path d="M 72.6,29.4 C 72.1,31.6 74.3,35.5 76.2,35.9" style="fill:none;stroke:#000000;stroke-width:0.5;stroke-linecap:round" />
        </g>
        <use transform="translate(-3.9,-7.1)" xlink:href="#chg2" />
        <use transform="translate(-7.8,-14.2)" xlink:href="#chg2" />
      </g>
      <use transform="matrix(-1,0,0,-1,100,155)" xlink:href="#chg3" />
      <path d="M 49,75.78 49,76.94 48,77.5 49,78.06 49,79.22 50,78.66 51,79.22 51,78.06 52,77.5 51,76.94 51,75.78 50,76.34 49,75.78 z" style="fill:#ffce09" />
    </g>
    <use xlink:href="#pfl" />
    <use transform="matrix(2,0,0,2,8,-21)" xlink:href="#cl" />
    <use transform="matrix(-2,0,0,-2,92,176)" xlink:href="#cl" />
  </g>
</svg>
