<?xml version="1.0" encoding="UTF-8" standalone="no"?>
<svg xmlns="http://www.w3.org/2000/svg" xmlns:xlink="http://www.w3.org/1999/xlink" version="1.1" viewBox="0 0 101 156" id="pad" >
  <defs>
    <clipPath id="cpf">
      <rect width="100" height="155" ry="8" x="0" y="0" id="card" style="fill:#ffffff;stroke:#000000;stroke-width:1" />
    </clipPath>
  <g id="di">
    <path d="M 10.5,20 C 10,21 6.8,24.9 6,25.5 6.8,26.1 10,30 10.5,31 11,30 14.3,26.1 15,25.5 14.3,24.9 11,21 10.5,20 z" id="di0" />
    <path d="M 10,21.16 C 10.17,20.92 10.32,20.81 10.44,20.8 10.65,20.76 10.63,21.21 10.41,21.42 10.3,21.52 10.21,21.63 10.12,21.75 9.23,22.98 7.36,25.06 7.3,25.2 7.16,25.49 6.53,25.36 6.84,25.01 7.56,24.2 9.21,22.26 10,21.16 z" style="opacity:0.8;fill:white" />
  </g>
    <path d="M 10.5,7.72656 8.83594,13.6953 12.1641,13.6953 10.5,7.72656 M 9.54687,6.33594 11.4609,6.33594 15.0312,18 13.3984,18 12.5391,14.9609 8.45312,14.9609 7.60937,18 5.97656,18 9.54687,6.33594" id="tA" />
  </defs>
  <g transform="translate(0.5,0.5)" id="1_diamond" style="fill:#fa0000">
    <use xlink:href="#card" />
    <use xlink:href="#tA" />
    <use transform="translate(79,0)" xlink:href="#tA" />
    <use transform="matrix(-1,0,0,-1,21,155)" xlink:href="#tA" />
    <use transform="matrix(-1,0,0,-1,100,155)" xlink:href="#tA" />
    <use xlink:href="#di0" />
    <use transform="translate(79,0)" xlink:href="#di0" />
    <use transform="matrix(-1,0,0,-1,21,155)" xlink:href="#di0" />
    <use transform="matrix(-1,0,0,-1,100,155)" xlink:href="#di0" />
    <use transform="matrix(2,0,0,2,29,26.5)" xlink:href="#di" />
  </g>
</svg>
