<?xml version="1.0" encoding="UTF-8" standalone="no"?>
<svg xmlns="http://www.w3.org/2000/svg" xmlns:xlink="http://www.w3.org/1999/xlink" version="1.1" viewBox="0 0 101 156" id="pad" >
  <defs>
    <clipPath id="cpf">
      <rect width="100" height="155" ry="8" x="0" y="0" id="card" style="fill:#ffffff;stroke:#000000;stroke-width:1" />
    </clipPath>
  <g id="sp">
    <path d="M 10.8,28 C 11.2,28.6 11.9,28.9 12.6,28.9 14,28.9 14.8,27.7 14.8,26.5 14.8,23.8 11.9,22.5 10.5,20 9.1,22.5 6.2,23.8 6.2,26.5 6.2,27.7 7,28.9 8.4,28.9 9.1,28.9 9.8,28.6 10.2,28 10.2,28.8 9.9,30.2 9,30.9 L 12,30.9 C 11.1,30.2 10.8,28.8 10.8,28 z" id="sp0" />
    <path d="M 10.01,21.12 C 10.64,20.38 10.65,21.29 10.32,21.53 10.16,21.65 10.02,21.81 9.84,22.02 8.66,23.34 7.7,24.07 7.17,25.28 7.03,25.59 6.62,25.42 6.88,24.84 7.27,23.93 8.86,22.48 10.01,21.12 z M 10.09,29.71 C 10.14,29.58 10.18,29.45 10.24,29.26 10.35,28.86 10.71,29.16 10.38,29.91 10.25,30.17 9.92,30.16 10.09,29.71 z" style="opacity:0.8;fill:white" />
  </g>
    <path d="M 11.4297,7.77344 7.75,13.9375 11.4297,13.9375 11.4297,7.77344 M 11.1719,6.33594 13,6.33594 13,13.9375 14.5547,13.9375 14.5547,15.2187 13,15.2187 13,18 11.4297,18 11.4297,15.2187 6.48437,15.2187 6.48437,13.7266 11.1719,6.33594" id="t4" />
  </defs>
  <g transform="translate(0.5,0.5)" id="4_spade">
    <use xlink:href="#card" />
    <use xlink:href="#t4" />
    <use transform="translate(79,0)" xlink:href="#t4" />
    <use transform="matrix(-1,0,0,-1,21,155)" xlink:href="#t4" />
    <use transform="matrix(-1,0,0,-1,100,155)" xlink:href="#t4" />
    <use xlink:href="#sp0" />
    <use transform="translate(79,0)" xlink:href="#sp0" />
    <use transform="matrix(-1,0,0,-1,21,155)" xlink:href="#sp0" />
    <use transform="matrix(-1,0,0,-1,100,155)" xlink:href="#sp0" />
    <use transform="matrix(2,0,0,2,6,-23)" xlink:href="#sp" />
    <use transform="matrix(2,0,0,2,52,-23)" xlink:href="#sp" />
    <use transform="matrix(-2,0,0,-2,48,178)" xlink:href="#sp" />
    <use transform="matrix(-2,0,0,-2,94,178)" xlink:href="#sp" />
  </g>
</svg>
