<?xml version="1.0" encoding="UTF-8" standalone="no"?>
<svg xmlns="http://www.w3.org/2000/svg" xmlns:xlink="http://www.w3.org/1999/xlink" version="1.1" viewBox="0 0 101 156" id="pad" >
  <defs>
    <clipPath id="cpf">
      <rect width="100" height="155" ry="8" x="0" y="0" id="card" style="fill:#ffffff;stroke:#000000;stroke-width:1" />
    </clipPath>
    <g id="cl">
      <path d="M 11.25,28.3 A 1,1 0 0 0 10.8,28 C 10.8,29 11.1,30.2 12,30.9 L 9,30.9 C 9.9,30.2 10.2,29 10.2,28 A 1,1 0 0 0 9.75,28.3 2.2,2.2 0 1 1 9.8,25.3 1,1 0 0 0 10.02,25.46 2.5,2.5 0 0 0 9.1,24.2 2.2,2.2 0 1 1 11.9,24.2 2.5,2.5 0 0 0 10.98,25.46 1,1 0 0 0 11.2,25.3 2.2,2.2 0 1 1 11.25,28.3" id="cl0" />
      <path d="M 6.5,25.75 C 6.22,26.19 6.76,26.27 6.88,26.08 7.27,25.43 7.95,25.19 8.64,25.35 8.81,25.39 9.03,25.04 8.67,24.91 7.95,24.63 6.96,25.02 6.5,25.75 z M 11.86,25.48 C 12.32,25.34 12.86,25.22 13.27,25.37 13.44,25.44 13.67,25.03 13.31,24.91 12.82,24.74 12.22,24.83 11.74,25.13 11.51,25.28 11.45,25.6 11.86,25.48 z M 8.83,21.49 C 8.54,21.93 9.09,22.01 9.21,21.81 9.6,21.16 10.29,20.9 10.96,21.11 11.13,21.16 11.36,20.77 11,20.64 10.26,20.39 9.29,20.76 8.83,21.49 z M 10.09,29.71 C 10.14,29.58 10.18,29.45 10.24,29.26 10.35,28.86 10.71,29.16 10.38,29.91 10.25,30.17 9.92,30.16 10.09,29.71 z" style="opacity:0.8;fill:#ffffff" />
    </g>
    <path d="M 11.4297,7.77344 7.75,13.9375 11.4297,13.9375 11.4297,7.77344 M 11.1719,6.33594 13,6.33594 13,13.9375 14.5547,13.9375 14.5547,15.2187 13,15.2187 13,18 11.4297,18 11.4297,15.2187 6.48437,15.2187 6.48437,13.7266 11.1719,6.33594" id="t4" />
  </defs>
  <g transform="translate(0.5,0.5)" id="4_club">
    <use xlink:href="#card" />
    <use xlink:href="#t4" />
    <use transform="translate(79,0)" xlink:href="#t4" />
    <use transform="matrix(-1,0,0,-1,21,155)" xlink:href="#t4" />
    <use transform="matrix(-1,0,0,-1,100,155)" xlink:href="#t4" />
    <use xlink:href="#cl0" />
    <use transform="translate(79,0)" xlink:href="#cl0" />
    <use transform="matrix(-1,0,0,-1,21,155)" xlink:href="#cl0" />
    <use transform="matrix(-1,0,0,-1,100,155)" xlink:href="#cl0" />
    <use transform="matrix(2,0,0,2,6,-23)" xlink:href="#cl" />
    <use transform="matrix(2,0,0,2,52,-23)" xlink:href="#cl" />
    <use transform="matrix(-2,0,0,-2,48,178)" xlink:href="#cl" />
    <use transform="matrix(-2,0,0,-2,94,178)" xlink:href="#cl" />
  </g>
</svg>
