<?xml version="1.0" encoding="UTF-8" standalone="no"?>
<svg xmlns="http://www.w3.org/2000/svg" xmlns:xlink="http://www.w3.org/1999/xlink" version="1.1" viewBox="0 0 101 156" id="pad" >
  <defs>
    <clipPath id="cpf">
      <rect width="100" height="155" ry="8" x="0" y="0" id="card" style="fill:#ffffff;stroke:#000000;stroke-width:1" />
    </clipPath>
  <g id="ht">
    <path d="M 14.8,24.1 C 15,21.1 12.2,20 10.5,21.9 8.7,20 6,21.1 6.2,24.1 6.333,26.1 9.4,29 10.5,31 11.6,29 14.667,26.1 14.8,24.1 z" id="ht0" />
    <path d="M 7.14,22.55 C 6.99,22.81 6.3,23.11 6.81,22.23 7.3,21.41 8.06,21.06 9,21.31 9.46,21.43 9.11,21.76 8.81,21.7 8.12,21.57 7.54,21.88 7.14,22.55 z M 10.6,22.36 C 11.19,22.35 11.84,21.51 12.77,21.71 13.01,21.76 13.45,21.41 12.89,21.25 12.19,21.05 11.21,21.42 10.64,22.02 10.49,22.21 10.44,22.37 10.6,22.36 z" style="opacity:0.8;fill:white" />
  </g>
    <path d="M 10.3437,12.8281 C 11.0156,12.8281 11.5417,12.5859 11.9219,12.1016 12.3073,11.6172 12.5,10.9479 12.5,10.0937 12.5,9.23959 12.3073,8.57032 11.9219,8.08594 11.5417,7.60157 11.0156,7.35939 10.3437,7.35937 9.64583,7.35939 9.11979,7.59116 8.76562,8.05469 8.41146,8.51303 8.23437,9.19272 8.23437,10.0937 8.23437,11 8.40885,11.6823 8.75781,12.1406 9.11198,12.599 9.64062,12.8281 10.3437,12.8281 M 7.53125,17.7578 7.53125,16.3047 C 7.85937,16.4974 8.20833,16.6458 8.57812,16.75 8.94791,16.849 9.33333,16.8984 9.73437,16.8984 10.7344,16.8984 11.4896,16.5234 12,15.7734 12.5156,15.0182 12.7734,13.9089 12.7734,12.4453 12.5286,12.9662 12.1849,13.3672 11.7422,13.6484 11.2995,13.9245 10.7917,14.0625 10.2187,14.0625 9.09375,14.0625 8.22135,13.7162 7.60156,13.0234 6.98698,12.3307 6.67969,11.349 6.67969,10.0781 6.67969,8.82293 6.99479,7.85157 7.625,7.16406 8.26041,6.47137 9.15625,6.12501 10.3125,6.125 11.6667,6.12501 12.6588,6.61199 13.2891,7.58594 13.9193,8.55991 14.2344,10.0912 14.2344,12.1797 14.2344,14.1432 13.8542,15.6432 13.0937,16.6797 12.3385,17.7109 11.2396,18.2266 9.79687,18.2266 9.41666,18.2266 9.03385,18.1849 8.64844,18.1016 8.26302,18.0234 7.89062,17.9089 7.53125,17.7578" id="t9" />
  </defs>
  <g transform="translate(0.5,0.5)" id="9_heart" style="fill:#fa0000">
    <use xlink:href="#card" />
    <use xlink:href="#t9" />
    <use transform="translate(79,0)" xlink:href="#t9" />
    <use transform="matrix(-1,0,0,-1,21,155)" xlink:href="#t9" />
    <use transform="matrix(-1,0,0,-1,100,155)" xlink:href="#t9" />
    <use xlink:href="#ht0" />
    <use transform="translate(79,0)" xlink:href="#ht0" />
    <use transform="matrix(-1,0,0,-1,21,155)" xlink:href="#ht0" />
    <use transform="matrix(-1,0,0,-1,100,155)" xlink:href="#ht0" />
    <use transform="matrix(2,0,0,2,6,-23)" xlink:href="#ht" />
    <use transform="matrix(2,0,0,2,52,-23)" xlink:href="#ht" />
    <use transform="matrix(2,0,0,2,52,10)" xlink:href="#ht" />
    <use transform="matrix(2,0,0,2,29,26.5)" xlink:href="#ht" />
    <use transform="matrix(2,0,0,2,6,10)" xlink:href="#ht" />
    <use transform="matrix(-2,0,0,-2,48,145)" xlink:href="#ht" />
    <use transform="matrix(-2,0,0,-2,94,145)" xlink:href="#ht" />
    <use transform="matrix(-2,0,0,-2,48,178)" xlink:href="#ht" />
    <use transform="matrix(-2,0,0,-2,94,178)" xlink:href="#ht" />
  </g>
</svg>
