<?xml version="1.0" encoding="UTF-8" standalone="no"?>
<svg xmlns="http://www.w3.org/2000/svg" xmlns:xlink="http://www.w3.org/1999/xlink" version="1.1" viewBox="0 0 101 156" id="pad" >
  <defs>
    <clipPath id="cpf">
      <rect width="100" height="155" ry="8" x="0" y="0" id="card" style="fill:#ffffff;stroke:#000000;stroke-width:1" />
    </clipPath>
  <g id="ht">
    <path d="M 14.8,24.1 C 15,21.1 12.2,20 10.5,21.9 8.7,20 6,21.1 6.2,24.1 6.333,26.1 9.4,29 10.5,31 11.6,29 14.667,26.1 14.8,24.1 z" id="ht0" />
    <path d="M 7.14,22.55 C 6.99,22.81 6.3,23.11 6.81,22.23 7.3,21.41 8.06,21.06 9,21.31 9.46,21.43 9.11,21.76 8.81,21.7 8.12,21.57 7.54,21.88 7.14,22.55 z M 10.6,22.36 C 11.19,22.35 11.84,21.51 12.77,21.71 13.01,21.76 13.45,21.41 12.89,21.25 12.19,21.05 11.21,21.42 10.64,22.02 10.49,22.21 10.44,22.37 10.6,22.36 z" style="opacity:0.8;fill:white" />
  </g>
    <path d="M 6.75781,6.33594 8.34375,6.33594 8.34375,11.5234 13.2734,6.33594 15.125,6.33594 10.5859,11.1016 15.2578,18 13.3516,18 9.54687,12.1562 8.34375,13.4375 8.34375,18 6.75781,18 6.75781,6.33594" id="tK" />
   <clipPath id="pfc">
      <rect width="63.5" height="120.5" x="18.25" y="17.25" id="pfl" style="fill:none;stroke:#000000;stroke-width:0.5" />
    </clipPath>
    <clipPath id="hkc1">
      <path d="M 35,17 70,17 61,28.7 C 55,27 48,26.6 41.6,27.8 z" id="hku2" />
    </clipPath>
    <g id="fleur" style="stroke-width:0">
      <path id="flc" d="M 1.4,4.3 C 1.7,3.8 1.7,3.2 0.6,3 1.7,2.8 1.7,2.2 1.4,1.7 2.2,2.4 3.4,3 4.4,3 3.4,3 2.2,3.6 1.4,4.3 z" style="stroke-width:0.8;stroke-linejoin:round" />
      <circle cx="4.3" cy="1.5" r="0.6" />
      <circle cx="4.3" cy="4.5" r="0.6" />
      <circle cx="6" cy="3" r="0.6" />
    </g>
    <marker markerUnits="userSpaceOnUse" refX="3" refY="3" markerWidth="8" markerHeight="8" orient="auto" id="wfb">
      <use style="fill:#0022cc;stroke:#0022cc" xlink:href="#fleur" />
    </marker>
  </defs>
  <g transform="translate(0.5,0.5)" id="king_heart" style="fill:#fa0000">
    <use xlink:href="#card" />
    <use xlink:href="#tK" />
    <use transform="translate(79,0)" xlink:href="#tK" />
    <use transform="matrix(-1,0,0,-1,21,155)" xlink:href="#tK" />
    <use transform="matrix(-1,0,0,-1,100,155)" xlink:href="#tK" />
    <use xlink:href="#ht0" />
    <use transform="translate(79,0)" xlink:href="#ht0" />
    <use transform="matrix(-1,0,0,-1,21,155)" xlink:href="#ht0" />
    <use transform="matrix(-1,0,0,-1,100,155)" xlink:href="#ht0" />
    <use transform="matrix(2,0,0,2,8,-21)" xlink:href="#ht" />
    <use transform="matrix(-2,0,0,-2,92,176)" xlink:href="#ht" />
    <g clip-path="url(#pfc)">
      <path d="M 21,60 48,44 79,60 79,95 52,111 21,95 z" style="fill:#fa0000" />
      <g id="hkg1">
        <path d="M 42,70 61.7,47" style="fill:none;stroke:#000000;stroke-width:8.1" />
        <path d="M 38,70 57.7,47" style="fill:none;stroke:#ffce09;stroke-width:1" />
        <path d="M 42.5,70 62.2,47" style="fill:none;stroke:#ffce09;stroke-width:4.8" />
        <path d="M 48.98,63.6 47.82,62.62 A 0.76,0.76 0 0 0 46.75,62.7 L 45.77,63.85 A 0.76,0.76 0 0 0 46.92,64.84 0.76,0.76 0 0 1 48.07,65.83 L 47.08,66.98 A 0.76,0.76 0 0 1 46.01,67.067 L 44.86,66.08" id="hku1" style="fill:none;stroke:#000000;stroke-width:0.5" />
        <use transform="translate(2.97,-3.47)" xlink:href="#hku1" />
        <use transform="translate(5.97,-6.93)" xlink:href="#hku1" />
        <use transform="translate(8.98,-10.31)" xlink:href="#hku1" />
        <use transform="translate(11.94,-13.77)" xlink:href="#hku1" />
        <path d="M 71,44 76,44 80,47.2 67,47.2 z" style="fill:#fa0000" />
        <rect width="8" height="6" x="61" y="26.4" style="fill:#ffffff;stroke:#000000;stroke-width:0.5" />
        <path d="M 69,31.2 66.7,31.2 66.7,27.6 69,27.6 M 65.5,26.4 65.5,32.4 M 65.4,29.4 61,29.4" style="fill:none;stroke:#000000;stroke-width:0.5" />
        <path d="M 70.2,25.3 A 1.1,1.1 0 0 0 70.2,23.1 1.5,1.5 0 0 0 68.7,24.6 L 68.7,33.6 A 1.1,1.1 0 1 0 68.7,35.8 1.5,1.5 0 0 0 70.2,34.3 L 70.2,25.3 z M 76.8,28.4 A 2,2 0 1 1 76.8,30.5 z M 69.9,39.5 66.4,48 71.4,44 73.4,48 75.4,44 80.4,48 76.9,39.5 z" style="fill:#ffce09;stroke:#000000;stroke-width:0.5" />
        <path d="M 69.4,33.6 68.7,33.6 M 69.5,25.3 70.2,25.3 M 77.5,29.5 A 1,1 0 0 0 79.5,29.5 M 69.4,44 71.8,39.6 73.4,44 75,39.6 77.4,44" style="fill:none;stroke:#000000;stroke-width:0.5" />
        <path d="M 70.2,38.1 C 72.4,38.4 74.8,38.4 77,38.1" style="fill:none;stroke:#000000;stroke-width:3;stroke-linecap:round" />
        <path d="M 70.2,38.1 C 72.4,38.4 74.8,38.4 77,38.1" style="fill:none;stroke:#ffce09;stroke-width:2;stroke-linecap:round;stroke-linejoin:round;stroke-dasharray:0, 2.26" />
        <path d="M 71.2,35.9 76,35.9" style="fill:none;stroke:#000000;stroke-width:2.6;stroke-linecap:round" />
        <path d="M 71.2,35.9 76,35.9" style="fill:none;stroke:#ffce09;stroke-width:1.6;stroke-linecap:round" />
        <path d="M 77,30.8 C 77,33.4 76.3,35 73.5,35 72,35 70.4,34 70.2,32 70,30.3 70,28.8 70.3,27.2 70.5,25.6 71.9,26 71.9,27 L 71.9,26 A 0.7,0.7 0 1 1 73.3,26 L 73.3,26.1 A 0.7,0.7 0 1 1 74.7,26.1 L 74.7,26.4 A 0.7,0.7 0 1 1 76.1,26.4 L 76.1,27.4 A 0.65,0.65 0 1 1 77.4,27.4 L 77.4,30.2 A 0.65,0.65 0 0 1 77,30.8 z" style="fill:#fdf9ee" />
        <path d="M 77,30.8 C 77,33.4 76.3,35 73.5,35 72,35 70.4,34 70.2,32 70,30.3 70,28.8 70.3,27.2 70.5,25.6 71.9,26 71.9,27 L 71.9,30.2 C 72,31 73.3,31.3 73.4,32.4 M 71.9,26 A 0.7,0.7 0 1 1 73.3,26 L 73.3,30.1 A 0.7,0.7 0 0 1 71.9,30.1 z M 73.3,26.1 A 0.7,0.7 0 1 1 74.7,26.1 L 74.7,30.4 A 0.7,0.7 0 0 1 73.3,30.4 z M 74.7,26.4 A 0.7,0.7 0 1 1 76.1,26.4 L 76.1,30.4 A 0.7,0.7 0 0 1 74.7,30.4 z M 76.1,27.4 A 0.65,0.65 0 1 1 77.4,27.4 L 77.4,30.2 A 0.65,0.65 0 0 1 76.1,30.2 z" style="fill:none;stroke:#000000;stroke-width:0.5" />
        <path d="M 55,26 C 55,30 56.7,33 56.7,36 L 48.5,45.4 C 48.5,48 50,50.2 53,50.2 55,50.2 56.6,48.4 55.5,46.5 56.8373,48.0709 57.9814,47.8665 58.6502,47.7635 59.3874,47.9035 59.9881,48.0132 60.6711,47.7116 L 64.4423,47.4906 C 65.5369,46.3958 66.2,44.8725 66.2,43.5 66.2,38.5 63,35 61,28.7 z M 41.8,38 47.3,45.4 C 47.3,48 45.5,49.7 42.5,49.7 40.5,49.7 38.8,47.5 38,43 37.4,39.4 40,40 40,41 41.1,40.2 41.9,39.1 41.8,38 z" style="fill:#f9f9ff" />
        <path d="M 41.6,27.8 C 41.4,31 41.6,34.5 41.8,38 42,42 44.2,45.4 47.3,45.4 L 48.5,45.4 C 51.4,45.4 56.7,41 56.7,36 56.7,33 55,30 55,26" style="fill:#fdf9ee" />
        <path d="M 41.6,27.8 C 41.4,31 41.6,34.5 41.8,38 42,40 38.97,42.44 37.95,41.45 M 47.3,45.4 C 47.3,48 45.5,49.7 42.5,49.7 40.5,49.7 38.8,47.5 38,43 37.4,39.4 40,40 40,41 M 48.5,45.4 C 48.5,48 50,50.2 53,50.2 55,50.2 56.6,48.4 55.5,46.5 54.7,45.2 53.1,45.7 52.6,46.7 51.3,49.2 54.7,49.7 54.3,47.4 M 61,28.7 C 63,35 66.2,38.5 66.2,43.5 66.2,46 64.14,48.75 62.37,47.57 M 55,26 C 56.42,40.25 61.26,38.71 61.16,43.52 61.09,46.81 58.12,49.6 55.5,46.5 54.6,45 55.5,43 57.5,43.5 59.5,44 58.5,47 56.6,45.6 M 56.8,26 C 59.12,40.25 63.09,38.24 62.96,43.52 62.89,46.38 60.93,48.52 58.74,47.76 M 58.4,26 C 61.43,38.34 64.56,37.99 64.56,43.52 64.56,45.81 62.87,48.28 60.66,47.71 M 56.32,38.34 C 57.89,40.81 60.75,43.67 58.12,45.76 M 55.42,40.34 C 56.05,41.27 56.84,42.17 56.61,43.44 M 54.25,41.96 55.34,44.16 M 52.76,43.43 53.73,45.74 M 51.36,44.43 C 51.61,45.38 51.95,46.22 52.6,46.7 M 49.96,45.11 C 50.13,46.71 51.02,47.89 52.56,48.51 M 45.64,45.05 C 45.22,47.4 41.44,49.9 40.21,48.5 M 44.14,44.01 C 43.42,46.3 40.15,48.5 39.24,46.67 M 43.01,42.48 C 42.24,44.55 39.75,46.53 38.37,44.99 M 42.17,40.36 C 41.58,42.12 39.05,44.91 38.02,43 M 41.52,30.78 C 43.17,29.77 45.98,29.77 46.17,32.18 46.25,34.52 45.5,36.37 45.16,38.3 45.11,39.34 46.32,39.62 46.82,38.6 47.38,39.63 48.8,39.54 49.07,38.2 M 48.62,31.13 C 50.54,29.41 53.18,29.99 54.69,30.98 M 44.21,36.74 45.91,34.64 M 49.17,33.68 51.18,36.44 M 46.01,43.37 C 46.78,43.76 47.55,43.69 48.32,43.41 M 41.66,35.3 C 41.81,37.17 39.25,37.7 39.05,35.59 38.86,33.71 40.87,33.88 40.36,35.54 M 49.02,32.38 C 50.61,31.11 52.27,31.65 54.34,32.68 52.15,33.35 50.89,33.25 49.02,32.38 z M 41.5,32.28 C 43.09,31.72 44.66,31.4 46.12,32.53 44.25,33.15 42.69,33.13 41.55,32.67" style="fill:none;stroke:#000000;stroke-width:0.5;stroke-linejoin:round" />
        <path d="M 42.86,31.88 43.33,32.96 44.16,32.98 44.66,31.88 M 50.43,31.73 50.63,32.93 51.58,33.03 52.03,31.83 M 44.8,41.78 C 46.37,41.95 48.05,41.98 49.91,41.78 49.08,41.62 48.2,41.29 47.32,41.46 46.47,41.28 45.63,41.62 44.8,41.78 z" style="fill:#000000;stroke:#000000;stroke-width:0.5;stroke-linejoin:round" />
        <use style="fill:#ffce09;stroke:#000000;stroke-width:0.5" xlink:href="#hku2" />
        <g clip-path="url(#hkc1)">
          <circle cx="51.5" cy="19.8" r="0.9" transform="translate(0.3,0.2)" id="hku3" style="fill:#000000" />
          <path d="M 52.3,22.6 A 3.15,3.15 0 0 0 58.3,23.2 1.6,1.6 0 0 1 55.3,23.2 1.6,1.6 0 0 1 52.3,22.6 z" id="hku4" style="fill:#000000;stroke:#000000;stroke-width:0.5;stroke-linejoin:round" />
          <path d="M 65.7,25.3 A 3.7,3.7 0 0 1 58.7,24.5 3.7,3.7 0 0 1 51.7,24 3.7,3.7 0 0 1 44.8,24.5 3.7,3.7 0 0 1 37.9,24.9 L 41.6,27.8 C 48,26.6 55,27 61,28.7 z" style="fill:#000000;stroke:#000000;stroke-width:0.5;stroke-linejoin:round" />
          <use transform="translate(1.4,1.4)" xlink:href="#hku3" />
          <use transform="translate(-1.4,1.4)" xlink:href="#hku3" />
          <use transform="matrix(-1,0,0,1,103.6,-0.1)" xlink:href="#hku4" />
          <use transform="matrix(-1,0,0,1,96.6,0.4)" xlink:href="#hku4" />
          <use transform="translate(7,0.7)" xlink:href="#hku4" />
          <use transform="translate(5.6,2.1)" xlink:href="#hku3" />
          <use transform="translate(7,0.7)" xlink:href="#hku3" />
          <use transform="translate(8.4,2.1)" xlink:href="#hku3" />
          <use transform="translate(-5.6,1.9)" xlink:href="#hku3" />
          <use transform="translate(-7,0.5)" xlink:href="#hku3" />
          <use transform="translate(-8.4,1.9)" xlink:href="#hku3" />
          <use transform="translate(12.6,2.8)" xlink:href="#hku3" />
          <use transform="translate(14,1.4)" xlink:href="#hku3" />
          <use transform="translate(-12.6,2.4)" xlink:href="#hku3" />
          <use transform="translate(-14,1)" xlink:href="#hku3" />
        </g>
      </g>
      <use transform="matrix(-1,0,0,-1,100,155)" xlink:href="#hkg1" />
      <rect width="8" height="8.4" x="46" y="73.3" style="fill:#000000" />
      <path d="M 48.7,73.8 51.3,73.8 51.3,81.2 48.7,81.2 z M 46.4,76.2 53.6,76.2 53.6,78.8 46.4,78.8 z" style="fill:#ffce09;fill-rule:evenodd" />
      <g id="hkg2">
        <rect width="7" height="35" x="18" y="60" style="fill:#ffffff;stroke:#000000;stroke-width:0.5" />
        <path d="M 21,95 21,60" style="fill:none;stroke:#0022cc;stroke-width:2.4;stroke-dasharray:1, 1.4;stroke-dashoffset:1.2" />
        <path d="M 23.5,95 23.5,60" style="fill:none;stroke:#0022cc;stroke-width:0.5" />
        <path d="M 18,87 34.5,104 18,104 z M 32.5,78 32.5,67 43,67 43,78" style="fill:#0022cc;stroke:#000000;stroke-width:0.5" />
        <path d="M 29,72.5 29,73.5 32,69.5 32,64.5 29,60.5 29,61.5 A 12,12 0 0 0 18,72.5 z" style="fill:#ffce09;stroke:#000000;stroke-width:0.5" />
        <path d="M 29,61.5 29,65 27,67 29,69 29,72.5 M 30.5,71.5 30.5,68 29.5,67 30.5,66 30.5,62.5 M 20.5,72.5 A 9.5,9.5 0 0 1 29,64 M 23,72.5 A 7,7 0 0 1 27,67 M 25.5,72.5 A 4.5,4.5 0 0 1 29,69" style="fill:none;stroke:#000000;stroke-width:0.5" />
        <path d="M 32.9,64.5 32.9,69.5" id="path3418" style="fill:none;stroke:#000000;stroke-width:2.3;stroke-linecap:round" />
        <path d="M 32.9,64.5 32.9,69.5" style="fill:none;stroke:#ffce09;stroke-width:1.3;stroke-linecap:round" />
        <path d="M 14,70.3 A 45,45 0 0 1 33.6,50.9" style="fill:none;stroke:#000000;stroke-width:8" />
        <path d="M 16.7,71.7 A 42,42 0 0 1 34.9,53.6 M 16.9,65.6 A 45,45 0 0 1 33.6,50.9 M 16.5,61.1 A 48,48 0 0 1 32.2,48.2" style="fill:none;stroke:#ffce09;stroke-width:1" />
        <path d="M 34.3,52.2 A 43.5,43.5 0 0 0 17,68.1" style="fill:none;stroke:#ffce09;stroke-width:1.2;stroke-linecap:round;stroke-dasharray:0.01, 2;stroke-dashoffset:0" />
        <path d="M 32.9,49.6 A 46.5,46.5 0 0 0 16.5,63.5" style="fill:none;stroke:#ffce09;stroke-width:1.2;stroke-linecap:round;stroke-dasharray:0.01, 2;stroke-dashoffset:-0.5" />
        <path d="M 17.5,86 28.5,99" style="fill:none;stroke:#000000;stroke-width:2" />
        <path d="M 17.5,86 28.5,99" style="fill:none;stroke:#ffce09;stroke-width:1" />
        <rect width="17" height="5" x="18" y="103" style="fill:#000000" />
        <path d="M 18,98 C 20,98 22.5,98.5 24,100 26.5,98 30,98 32.3,100.5" style="fill:none;stroke:#000000;stroke-width:2;stroke-linejoin:round" />
        <path d="M 18,98 C 20,98 22.5,98.5 24,100 26.5,98 30,98 32.3,100.5" style="fill:none;stroke:#ffce09;stroke-width:1;stroke-linejoin:round" />
        <path d="M 37.6,107.1 A 20,20 0 0 1 45.1,70.2" style="fill:#000000" />
        <path d="M 35,103.9 A 19,19 0 0 1 41.8,72 M 37.3,99.6 A 14.4,14.4 0 0 1 42.6,76.6 M 39.3,96.0799 A 10.6,10.6 0 0 1 43.5,80.4" style="fill:none;stroke:#ffce09;stroke-width:1" />
        <path d="M 42.05,73.65 C 40.65,74.16 41.3,75.39 40,76.14 38.7,76.89 37.97,75.71 36.82,76.67 35.67,77.64 36.7,78.57 35.74,79.72 34.78,80.87 33.68,80 32.93,81.3 32.18,82.6 33.48,83.12 32.97,84.53 32.46,85.94 31.12,85.5 30.86,86.98 30.6,88.46 32,88.5 32,90 32,91.5 30.58,91.44 30.86,93.02 31.13,94.59 32.46,94.06 32.97,95.47 33.48,96.88 32.13,97.31 32.93,98.7 33.73,100.09 34.84,99.13 35.74,100.29" style="fill:none;stroke:#ffce09;stroke-width:1.2" />
        <path d="M 34.6,90 35.5,88 36.4,90 35.5,92 z" id="hku5" style="fill:#ffce09" />
        <use transform="matrix(0.934,-0.358,0.358,0.934,-29.07,23.18)" xlink:href="#hku5" />
        <use transform="matrix(0.934,0.358,-0.358,0.934,35.44,-11.22)" xlink:href="#hku5" />
        <use transform="matrix(0.743,0.669,-0.669,0.743,72.55,-9)" xlink:href="#hku5" />
        <path d="M 30.4,48.4 A 49,49 0 0 1 38.3,44.7 70.5,70.5 0 0 1 39.8,107.75 L 30.1,107.75 A 46,46 0 0 0 30.4,48.5 z" style="fill:#ffffff;stroke:#000000;stroke-width:0.5" />
        <path d="M 33.14,110.42 37.26,103.79 40.43,96.66 42.58,89.16 43.67,81.43 43.8,74.93" style="fill:#ffffff;fill-opacity:0;marker-mid:url(#wfb)" />
        <path d="M 31.84,42.92 36.22,49.4 39.66,56.42 42.11,63.86 43.49,71.55 43.8,78" style="fill:#ffffff;fill-opacity:0;marker-mid:url(#wfb)" />
        <path d="M 42.6,67.6 C 43.7,67.6 43.7,69.1 42.6,69.1 L 38.1,69.1 41.4,69.1 C 42.3,69.1 42.3,70.5 41.4,70.5 L 36.6,70.5 C 32.6,70.5 32.3,63.3 36.6,62.6 37.7,62.4 39.8,62.5 40.7,62.6 41.9,62.8 41.6,64.2 40.7,64.2 L 38.2,64.2 42.5,64.2 C 43.7,64.2 43.7,65.9 42.5,65.9 L 38.4,65.9 43.1,65.9 C 44.3,65.9 44.3,67.6 43.1,67.6 L 38.3,67.6 z" style="fill:#fdf9ee;stroke:#000000;stroke-width:0.5" />
      </g>
      <use transform="matrix(-1,0,0,-1,100,155)" id="use3522" xlink:href="#hkg2" />
    </g>
    <use xlink:href="#pfl" />
  </g>
</svg>
