<?xml version="1.0" encoding="UTF-8" standalone="no"?>
<svg xmlns="http://www.w3.org/2000/svg" xmlns:xlink="http://www.w3.org/1999/xlink" version="1.1" viewBox="0 0 101 156" id="pad" >
  <defs>
    <clipPath id="cpf">
      <rect width="100" height="155" ry="8" x="0" y="0" id="card" style="fill:#ffffff;stroke:#000000;stroke-width:1" />
    </clipPath>
  <g id="di">
    <path d="M 10.5,20 C 10,21 6.8,24.9 6,25.5 6.8,26.1 10,30 10.5,31 11,30 14.3,26.1 15,25.5 14.3,24.9 11,21 10.5,20 z" id="di0" />
    <path d="M 10,21.16 C 10.17,20.92 10.32,20.81 10.44,20.8 10.65,20.76 10.63,21.21 10.41,21.42 10.3,21.52 10.21,21.63 10.12,21.75 9.23,22.98 7.36,25.06 7.3,25.2 7.16,25.49 6.53,25.36 6.84,25.01 7.56,24.2 9.21,22.26 10,21.16 z" style="opacity:0.8;fill:white" />
  </g>
    <path d="M 13.6281,7.375 C 12.899,7.37501 12.3495,7.77605 11.9797,8.57812 11.6099,9.37501 11.425,10.5755 11.425,12.1797 11.425,13.7787 11.6099,14.9792 11.9797,15.7812 12.3495,16.5781 12.899,16.9766 13.6281,16.9766 14.3625,16.9766 14.912,16.5781 15.2766,15.7812 15.6463,14.9792 15.8312,13.7787 15.8313,12.1797 15.8312,10.5755 15.6463,9.37501 15.2766,8.57812 14.912,7.77605 14.3625,7.37501 13.6281,7.375 M 13.6281,6.125 C 14.8052,6.12501 15.7036,6.64324 16.3234,7.67969 16.9432,8.71095 17.2531,10.2109 17.2531,12.1797 17.2531,14.1432 16.9432,15.6432 16.3234,16.6797 15.7036,17.7109 14.8052,18.2266 13.6281,18.2266 12.451,18.2266 11.5526,17.7109 10.9328,16.6797 10.313,15.6432 10.0031,14.1432 10.0031,12.1797 10.0031,10.2109 10.313,8.71095 10.9328,7.67969 11.5526,6.64324 12.451,6.12501 13.6281,6.125 M 6.90312,18 6.90312,7.77344 4.37187,8.33594 4.37187,6.89844 6.8875,6.33594 8.30937,6.33594 8.30937,18 6.90312,18" id="t10" />
  </defs>
  <g transform="translate(0.5,0.5)" id="10_diamond" style="fill:#fa0000">
    <use xlink:href="#card" />
    <use xlink:href="#t10" />
    <use transform="translate(79,0)" xlink:href="#t10" />
    <use transform="matrix(-1,0,0,-1,21,155)" xlink:href="#t10" />
    <use transform="matrix(-1,0,0,-1,100,155)" xlink:href="#t10" />
    <use xlink:href="#di0" />
    <use transform="translate(79,0)" xlink:href="#di0" />
    <use transform="matrix(-1,0,0,-1,21,155)" xlink:href="#di0" />
    <use transform="matrix(-1,0,0,-1,100,155)" xlink:href="#di0" />
    <use transform="matrix(2,0,0,2,6,-23)" xlink:href="#di" />
    <use transform="matrix(2,0,0,2,52,-23)" xlink:href="#di" />
    <use transform="matrix(2,0,0,2,52,10)" xlink:href="#di" />
    <use transform="matrix(2,0,0,2,29,-6.5)" xlink:href="#di" />
    <use transform="matrix(2,0,0,2,6,10)" xlink:href="#di" />
    <use transform="matrix(-2,0,0,-2,48,145)" xlink:href="#di" />
    <use transform="matrix(-2,0,0,-2,94,145)" xlink:href="#di" />
    <use transform="matrix(-2,0,0,-2,48,178)" xlink:href="#di" />
    <use transform="matrix(-2,0,0,-2,94,178)" xlink:href="#di" />
    <use transform="matrix(-2,0,0,-2,71,161.5)" xlink:href="#di" />
  </g>
</svg>
