<?xml version="1.0" encoding="UTF-8" standalone="no"?>
<svg xmlns="http://www.w3.org/2000/svg" xmlns:xlink="http://www.w3.org/1999/xlink" version="1.1" viewBox="0 0 101 156" id="pad" >
  <defs>
    <clipPath id="cpf">
      <rect width="100" height="155" ry="8" x="0" y="0" id="card" style="fill:#ffffff;stroke:#000000;stroke-width:1" />
    </clipPath>
  <g id="ht">
    <path d="M 14.8,24.1 C 15,21.1 12.2,20 10.5,21.9 8.7,20 6,21.1 6.2,24.1 6.333,26.1 9.4,29 10.5,31 11.6,29 14.667,26.1 14.8,24.1 z" id="ht0" />
    <path d="M 7.14,22.55 C 6.99,22.81 6.3,23.11 6.81,22.23 7.3,21.41 8.06,21.06 9,21.31 9.46,21.43 9.11,21.76 8.81,21.7 8.12,21.57 7.54,21.88 7.14,22.55 z M 10.6,22.36 C 11.19,22.35 11.84,21.51 12.77,21.71 13.01,21.76 13.45,21.41 12.89,21.25 12.19,21.05 11.21,21.42 10.64,22.02 10.49,22.21 10.44,22.37 10.6,22.36 z" style="opacity:0.8;fill:white" />
  </g>
    <path d="M 8.60156,16.6719 13.9609,16.6719 13.9609,18 6.875,18 6.875,16.6719 C 7.84896,15.6458 8.70052,14.7396 9.42969,13.9531 10.1588,13.1667 10.6615,12.612 10.9375,12.2891 11.4583,11.6537 11.8099,11.1406 11.9922,10.75 12.1745,10.3542 12.2656,9.95053 12.2656,9.53906 12.2656,8.88803 12.0729,8.37761 11.6875,8.00781 11.3073,7.63803 10.7838,7.45314 10.1172,7.45312 9.64323,7.45314 9.14583,7.53907 8.625,7.71094 8.10416,7.88282 7.55208,8.14324 6.96875,8.49219 L 6.96875,6.89844 C 7.50521,6.64324 8.03125,6.45053 8.54687,6.32031 9.0677,6.19012 9.58073,6.12501 10.0859,6.125 11.2266,6.12501 12.1432,6.4297 12.8359,7.03906 13.5338,7.64324 13.8828,8.43751 13.8828,9.42187 13.8828,9.92188 13.7656,10.4219 13.5312,10.9219 13.3021,11.4219 12.9271,11.974 12.4062,12.5781 12.1146,12.9167 11.6901,13.3854 11.1328,13.9844 10.5807,14.5833 9.73698,15.4792 8.60156,16.6719" id="t2" />
  </defs>
  <g transform="translate(0.5,0.5)" id="2_heart" style="fill:#fa0000">
    <use xlink:href="#card" />
    <use xlink:href="#t2" />
    <use transform="translate(79,0)" xlink:href="#t2" />
    <use transform="matrix(-1,0,0,-1,21,155)" xlink:href="#t2" />
    <use transform="matrix(-1,0,0,-1,100,155)" xlink:href="#t2" />
    <use id="use10081" xlink:href="#ht0" />
    <use transform="translate(79,0)" xlink:href="#ht0" />
    <use transform="matrix(-1,0,0,-1,21,155)" xlink:href="#ht0" />
    <use transform="matrix(-1,0,0,-1,100,155)" xlink:href="#ht0" />
    <use transform="matrix(2,0,0,2,29,-23)" xlink:href="#ht" />
    <use transform="matrix(-2,0,0,-2,71,178)" xlink:href="#ht" />
  </g>
</svg>
