<?xml version="1.0" encoding="UTF-8" standalone="no"?>
<svg xmlns="http://www.w3.org/2000/svg" xmlns:xlink="http://www.w3.org/1999/xlink" version="1.1" viewBox="0 0 101 156" id="pad" >
  <defs>
    <clipPath id="cpf">
      <rect width="100" height="155" ry="8" x="0" y="0" id="card" style="fill:#ffffff;stroke:#000000;stroke-width:1" />
    </clipPath>
  <g id="di">
    <path d="M 10.5,20 C 10,21 6.8,24.9 6,25.5 6.8,26.1 10,30 10.5,31 11,30 14.3,26.1 15,25.5 14.3,24.9 11,21 10.5,20 z" id="di0" />
    <path d="M 10,21.16 C 10.17,20.92 10.32,20.81 10.44,20.8 10.65,20.76 10.63,21.21 10.41,21.42 10.3,21.52 10.21,21.63 10.12,21.75 9.23,22.98 7.36,25.06 7.3,25.2 7.16,25.49 6.53,25.36 6.84,25.01 7.56,24.2 9.21,22.26 10,21.16 z" style="opacity:0.8;fill:white" />
  </g>
    <path d="M 10.5,12.4609 C 9.79687,12.4609 9.2526,12.6589 8.86719,13.0547 8.48698,13.4453 8.29687,14 8.29687,14.7187 8.29687,15.4375 8.48958,15.9974 8.875,16.3984 9.26562,16.7943 9.80729,16.9922 10.5,16.9922 11.2083,16.9922 11.7526,16.7969 12.1328,16.4063 12.5182,16.0104 12.7109,15.4479 12.7109,14.7187 12.7109,14.0052 12.5156,13.4505 12.125,13.0547 11.7396,12.6589 11.1979,12.4609 10.5,12.4609 M 9.125,11.8047 C 8.45312,11.6328 7.92708,11.3125 7.54687,10.8437 7.17187,10.375 6.98437,9.8099 6.98437,9.14844 6.98437,8.22136 7.29948,7.48699 7.92969,6.94531 8.55989,6.39845 9.41666,6.12501 10.5,6.125 11.5885,6.12501 12.4479,6.39845 13.0781,6.94531 13.7083,7.48699 14.0234,8.22136 14.0234,9.14844 14.0234,9.8099 13.8333,10.375 13.4531,10.8437 13.0781,11.3125 12.5547,11.6328 11.8828,11.8047 12.6641,11.9766 13.2604,12.3229 13.6719,12.8437 14.0885,13.3646 14.2969,14.0391 14.2969,14.8672 14.2969,15.9193 13.9609,16.7422 13.2891,17.3359 12.6172,17.9297 11.6875,18.2266 10.5,18.2266 9.3125,18.2266 8.38281,17.9323 7.71094,17.3438 7.04427,16.75 6.71094,15.9297 6.71094,14.8828 6.71094,14.0495 6.91667,13.3724 7.32812,12.8516 7.74479,12.3255 8.34375,11.9766 9.125,11.8047 M 8.55469,9.29687 C 8.55468,9.92188 8.72135,10.3984 9.05469,10.7266 9.38802,11.0547 9.86979,11.2188 10.5,11.2187 11.1354,11.2188 11.6198,11.0547 11.9531,10.7266 12.2865,10.3984 12.4531,9.92188 12.4531,9.29687 12.4531,8.66147 12.2865,8.17709 11.9531,7.84375 11.625,7.51043 11.1406,7.34376 10.5,7.34375 9.86979,7.34376 9.38802,7.51303 9.05469,7.85156 8.72135,8.18491 8.55468,8.66668 8.55469,9.29687" id="t8" />
  </defs>
  <g transform="translate(0.5,0.5)" id="8_diamond" style="fill:#fa0000">
    <use xlink:href="#card" />
    <use xlink:href="#t8" />
    <use transform="translate(79,0)" xlink:href="#t8" />
    <use transform="matrix(-1,0,0,-1,21,155)" xlink:href="#t8" />
    <use transform="matrix(-1,0,0,-1,100,155)" xlink:href="#t8" />
    <use xlink:href="#di0" />
    <use transform="translate(79,0)" xlink:href="#di0" />
    <use transform="matrix(-1,0,0,-1,21,155)" xlink:href="#di0" />
    <use transform="matrix(-1,0,0,-1,100,155)" xlink:href="#di0" />
    <use transform="matrix(2,0,0,2,6,-23)" xlink:href="#di" />
    <use transform="matrix(2,0,0,2,52,-23)" xlink:href="#di" />
    <use transform="matrix(2,0,0,2,52,10)" xlink:href="#di" />
    <use transform="matrix(2,0,0,2,6,10)" xlink:href="#di" />
    <use transform="matrix(-2,0,0,-2,48,145)" xlink:href="#di" />
    <use transform="matrix(-2,0,0,-2,94,145)" xlink:href="#di" />
    <use transform="matrix(-2,0,0,-2,48,178)" xlink:href="#di" />
    <use transform="matrix(-2,0,0,-2,94,178)" xlink:href="#di" />
  </g>
</svg>
