<?xml version="1.0" encoding="UTF-8" standalone="no"?>
<svg xmlns="http://www.w3.org/2000/svg" xmlns:xlink="http://www.w3.org/1999/xlink" version="1.1" viewBox="0 0 101 156" id="pad" >
  <defs>
    <clipPath id="cpf">
      <rect width="100" height="155" ry="8" x="0" y="0" id="card" style="fill:#ffffff;stroke:#000000;stroke-width:1" />
    </clipPath>
  <g id="ht">
    <path d="M 14.8,24.1 C 15,21.1 12.2,20 10.5,21.9 8.7,20 6,21.1 6.2,24.1 6.333,26.1 9.4,29 10.5,31 11.6,29 14.667,26.1 14.8,24.1 z" id="ht0" />
    <path d="M 7.14,22.55 C 6.99,22.81 6.3,23.11 6.81,22.23 7.3,21.41 8.06,21.06 9,21.31 9.46,21.43 9.11,21.76 8.81,21.7 8.12,21.57 7.54,21.88 7.14,22.55 z M 10.6,22.36 C 11.19,22.35 11.84,21.51 12.77,21.71 13.01,21.76 13.45,21.41 12.89,21.25 12.19,21.05 11.21,21.42 10.64,22.02 10.49,22.21 10.44,22.37 10.6,22.36 z" style="opacity:0.8;fill:white" />
  </g>
    <path d="M 11.4297,7.77344 7.75,13.9375 11.4297,13.9375 11.4297,7.77344 M 11.1719,6.33594 13,6.33594 13,13.9375 14.5547,13.9375 14.5547,15.2187 13,15.2187 13,18 11.4297,18 11.4297,15.2187 6.48437,15.2187 6.48437,13.7266 11.1719,6.33594" id="t4" />
  </defs>
  <g transform="translate(0.5,0.5)" id="4_heart" style="fill:#fa0000">
    <use xlink:href="#card" />
    <use xlink:href="#t4" />
    <use transform="translate(79,0)" xlink:href="#t4" />
    <use transform="matrix(-1,0,0,-1,21,155)" xlink:href="#t4" />
    <use transform="matrix(-1,0,0,-1,100,155)" xlink:href="#t4" />
    <use xlink:href="#ht0" />
    <use transform="translate(79,0)" xlink:href="#ht0" />
    <use transform="matrix(-1,0,0,-1,21,155)" xlink:href="#ht0" />
    <use transform="matrix(-1,0,0,-1,100,155)" xlink:href="#ht0" />
    <use transform="matrix(2,0,0,2,6,-23)" xlink:href="#ht" />
    <use transform="matrix(2,0,0,2,52,-23)" xlink:href="#ht" />
    <use transform="matrix(-2,0,0,-2,48,178)" xlink:href="#ht" />
    <use transform="matrix(-2,0,0,-2,94,178)" xlink:href="#ht" />
  </g>
</svg>
