<?xml version="1.0" encoding="UTF-8" standalone="no"?>
<svg xmlns="http://www.w3.org/2000/svg" xmlns:xlink="http://www.w3.org/1999/xlink" version="1.1" viewBox="0 0 101 156" id="pad" >
  <defs>
    <clipPath id="cpf">
      <rect width="100" height="155" ry="8" x="0" y="0" id="card" style="fill:#ffffff;stroke:#000000;stroke-width:1" />
    </clipPath>
  <g id="di">
    <path d="M 10.5,20 C 10,21 6.8,24.9 6,25.5 6.8,26.1 10,30 10.5,31 11,30 14.3,26.1 15,25.5 14.3,24.9 11,21 10.5,20 z" id="di0" />
    <path d="M 10,21.16 C 10.17,20.92 10.32,20.81 10.44,20.8 10.65,20.76 10.63,21.21 10.41,21.42 10.3,21.52 10.21,21.63 10.12,21.75 9.23,22.98 7.36,25.06 7.3,25.2 7.16,25.49 6.53,25.36 6.84,25.01 7.56,24.2 9.21,22.26 10,21.16 z" style="opacity:0.8;fill:white" />
  </g>
    <path d="M 6.75781,6.33594 8.34375,6.33594 8.34375,11.5234 13.2734,6.33594 15.125,6.33594 10.5859,11.1016 15.2578,18 13.3516,18 9.54687,12.1562 8.34375,13.4375 8.34375,18 6.75781,18 6.75781,6.33594" id="tK" />
    <clipPath id="pfc">
      <rect width="63.5" height="120.5" x="18.25" y="17.25" id="pfl" style="fill:none;stroke:#000000;stroke-width:0.5" />
    </clipPath>
    <clipPath id="dkc1">
      <path d="M 45,105 26.7,105 18,94.6 18,63.8 38.6,49.6 45,49.6 z" id="dku1" />
    </clipPath>
    <clipPath id="dkc2">
      <path d="M 23,119 A 9,9 0 0 0 28,112 13,13 0 0 1 28,130 9,9 0 0 0 23,123" id="dku3" />
    </clipPath>
    <clipPath id="dkc3">
      <path d="M 36,17 40.1,26.2 41.1,29.2 C 55.6,28.7 54.1,34.6 64.5,33.5 L 64.3,30.45 70.5,17" id="dku4" />
    </clipPath>
  </defs>
  <g transform="translate(0.5,0.5)" id="king_diamond" style="fill:#fa0000">
    <use xlink:href="#card" />
    <use xlink:href="#tK" />
    <use transform="translate(79,0)" xlink:href="#tK" />
    <use transform="matrix(-1,0,0,-1,21,155)" xlink:href="#tK" />
    <use transform="matrix(-1,0,0,-1,100,155)" xlink:href="#tK" />
    <use xlink:href="#di0" />
    <use transform="translate(79,0)" xlink:href="#di0" />
    <use transform="matrix(-1,0,0,-1,21,155)" xlink:href="#di0" />
    <use transform="matrix(-1,0,0,-1,100,155)" xlink:href="#di0" />
    <g clip-path="url(#pfc)">
      <g id="dkg3">
        <use id="use4247" style="fill:#ffffff" xlink:href="#dku3" />
        <g clip-path="url(#dkc2)">
          <path d="M 25,114 A 9.5,9.5 0 0 1 25,128" style="fill:none;stroke:#000000;stroke-width:4.75" />
          <path d="M 25,114 A 9.5,9.5 0 0 1 25,128" style="fill:none;stroke:#ffce09;stroke-width:3.75" />
          <path d="M 26.25,116.67 A 1.8,1.8 0 1 1 27.35,120.09 1.8,1.8 0 1 1 26.98,123.66 1.8,1.8 0 1 1 25.22,126.79 8.8,8.8 0 0 0 25.22,115.21 1.8,1.8 0 1 1 26.98,118.34 1.8,1.8 0 1 1 27.35,121.91 1.8,1.8 0 1 1 26.25,125.33" style="fill:none;stroke:#000000;stroke-width:0.5;stroke-miterlimit:2" />
        </g>
        <use style="fill:none;stroke:#000000;stroke-width:0.5" xlink:href="#dku3" />
        <path d="M 18,134 22.8,128.2 22.8,99 18,94 z" style="fill:#fa0000" />
        <path d="M 22.8,97.8 22.8,128.2 17.8,134.2" style="fill:none;stroke:#000000;stroke-width:2" />
        <path d="M 22.8,97.8 22.8,128.2 17.8,134.2" style="fill:none;stroke:#ffce09;stroke-width:1" />
        <path d="M 23.06,60.35 C 21.33,58.28 20.58,56.05 20.33,53.73 20.23,52.87 20.53,52.43 20.9,52.51 L 20.42,51.29 C 20,50.2 21.25,49.57 21.71,50.48 L 21.42,49.87 C 20.96,48.94 22.13,48.16 22.83,49.36 L 23.02,49.68 C 22.41,48.62 23.89,47.84 24.53,49.01 L 26.78,53.11 C 26.88,52.64 26.91,52.19 26.81,51.7 26.61,50.66 27.92,50.21 28.33,51.26 28.9,52.71 28.73,55.4 27.97,57.1" style="fill:#fdf9ee" />
        <path d="M 23.79,56.88 C 25.6,55.93 27.23,53.85 26.81,51.7 26.61,50.66 27.92,50.21 28.33,51.26 28.9,52.71 28.73,55.4 27.97,57.1 M 26.78,53.11 24.53,49.01 C 23.89,47.84 22.41,48.62 23.02,49.68 L 24.95,53.01 22.83,49.36 C 22.13,48.16 20.96,48.94 21.42,49.87 L 23.46,54.02 21.71,50.48 C 21.25,49.57 20,50.2 20.42,51.29 L 22.09,55.56 20.9,52.51 C 20.53,52.43 20.23,52.87 20.33,53.73 20.58,56.05 21.33,58.28 23.06,60.35 M 25.3,55.62 25.18,57.36" style="fill:none;stroke:#000000;stroke-width:0.5" />
        <path d="M 51,48 44,54 45,59 54,52 z" style="fill:#fa0000" />
        <path d="M 41.88,44.31 C 41.28,44.44 41.93,45.76 41.71,47.66 L 50.6,49.1 C 48.5,46.1 52.4,42.8 54,45.5 53.2,40.3 51.1,36 50.6,30.1 47.43,29.08 45,29 41.1,29.2 41.09,31.41 41.53,33.14 41.61,34.37 41.75,36.61 38.82,40.4 39.97,41.36 40.41,41.7 40.7,41.77 40.97,41.71 40.78,42.87 41.35,44.32 41.88,44.31 z" style="fill:#fdf9ee" />
        <path d="M 50.6,49.1 C 51.25,50.08 52.13,50.55 53,50.6 L 66.5,49.9 C 67.8,44.1 64.7,39.1 63.8,33.6 L 50.6,30.1 C 51.1,36 53.2,40.3 54,45.5 52.4,42.8 48.5,46.1 50.6,49.1 z" style="fill:#f9f9ff" />
        <path d="M 41.1,29.2 C 41.09,31.41 41.53,33.14 41.61,34.37 41.75,36.61 38.82,40.4 39.97,41.36 41.18,42.38 41.23,40.91 42.15,41.23 43.79,41.78 44.8,41.04 44.11,39.95 M 41.02,41.73 C 40.78,42.87 41.35,44.32 41.88,44.31 M 43.11,32.69 C 45.15,31.87 47.61,32.72 49.37,34.28 M 43.33,34.9 C 45.36,34.53 47.01,35.2 48.65,36.23 47.15,36.68 45.12,37.16 43.02,36.91 L 45.15,38.68 M 41.75,44.67 C 42.95,44.98 44.12,44.82 45.35,44.99 43.91,44.49 43.17,43.9 41.56,44.02 M 45.74,43.86 C 47.51,44.99 48.72,42.29 46.86,41.45 48.72,42.29 47.49,45 45.74,43.86 44.76,43.23 43.11,43.33 43.26,42.67 43.42,42.02 44.77,43.24 45.74,43.86 z M 41.88,44.31 45.35,44.99 M 43.26,42.67 45.74,43.86 M 50.6,30.1 C 51.1,36 53.3,41.1 54.1,46.3 54.5,48.4 52.2,48.7 52,47 M 54,45.5 C 52.4,42.8 48.5,46.1 50.6,49.1 52.7,52.3 57.1,50 56.2,45.9 55.2,41 53.7,35.8 53.1,31 M 55.5,32.2 C 56.5,39.4 59.3,46.1 57.8,49.9 M 57.8,33.1 C 58.5,39 61.3,44.4 60.2,49.9 M 61.9,33.7 C 62.6,39.3 65.5,44 64.6,49.9 M 63.8,33.6 C 64.7,39.1 67.8,44.1 66.5,49.9 M 44.92,34.82 C 44.49,35.55 44.5,36.14 44.88,36.91 L 45.2,34.9 45.2,36.9 M 59.9,33.6 C 60.6,39.2 63.4,44 62.5,49.9" style="fill:none;stroke:#000000;stroke-width:0.5;stroke-linejoin:round" />
        <use style="fill:#ffce09" xlink:href="#dku4" />
        <g clip-path="url(#dkc3)">
          <path d="M 40,27.7 C 57,27 54,33.4 65,31.9" style="fill:none;stroke:#000000;stroke-width:3.5" />
          <path d="M 40,27.7 C 57,27 54,33.4 65,31.9" style="fill:none;stroke:#fa0000;stroke-width:2.5" />
          <path d="M 40,27.7 C 57,27 54,33.4 65,31.9" style="fill:none;stroke:#000000;stroke-width:0.5" />
          <path d="M 66.9,26.1 C 66.1,30.9 60.1,30.1 61.5,25.4 60.1,30.1 54.7,28.2 56.1,23.8 54.7,28.2 49.7,26.3 50.6,22.2 49.7,26.3 44.55,25.9 44.55,21.4 44.55,25.9 38.45,26 38.45,21.5" style="fill:none;stroke:#000000;stroke-width:2;stroke-linecap:round;stroke-linejoin:round" />
          <path d="M 66.9,26.1 C 66.1,30.9 60.1,30.1 61.5,25.4 60.1,30.1 54.7,28.2 56.1,23.8 54.7,28.2 49.7,26.3 50.6,22.2 49.7,26.3 44.55,25.9 44.55,21.4 44.55,25.9 38.45,26 38.45,21.5" style="fill:none;stroke:#ffce09;stroke-width:1;stroke-linecap:round;stroke-linejoin:round" />
          <g id="dkg6" style="fill:#000000">
            <circle cx="43.1" cy="22.4" r="1.2" />
            <circle cx="44.55" cy="20" r="1.2" />
            <circle cx="46" cy="22.4" r="1.2" />
          </g>
          <g id="dkg5" style="fill:#000000">
            <circle cx="49" cy="22.9" r="1.2" />
            <circle cx="50.9" cy="20.9" r="1.2" />
            <circle cx="51.8" cy="23.5" r="1.2" />
          </g>
          <use transform="translate(5.5,1.5)" xlink:href="#dkg5" />
          <use transform="translate(10.9,3.1)" xlink:href="#dkg5" />
          <use transform="translate(16.4,3.7)" xlink:href="#dkg5" />
          <use transform="translate(-6.1,0.1)" xlink:href="#dkg6" />
        </g>
        <use style="fill:none;stroke:#000000;stroke-width:0.5" xlink:href="#dku4" />
      </g>
      <use transform="matrix(-1,0,0,-1,100,155)" xlink:href="#dkg3" />
      <g clip-path="url(#dkc1)" id="dkg1">
        <path d="M 29,76 38,90 40.4,81.2 44,81.2 44,60 38.6,49.6 33.23,53.27 z" style="fill:#0022cc" />
        <path d="M 35.47,69.59 A 40.5,40.5 0 0 1 35.88,83 L 31.66,76.25 A 43,43 0 0 0 35.47,69.59 z" style="fill:none;stroke:#ffffff;stroke-width:1.5" />
        <path d="M 18,75 18,67 25,64 z" style="fill:#fa0000" />
        <path d="M 26.8,73.7 37.3,90.4 31,104 27.4,104 18,93.3 18,85 z" style="fill:#000000;stroke:#000000;stroke-width:2" />
        <path d="M 20.5,84.5 31,101.2" style="fill:none;stroke:#ffffff;stroke-width:1" />
        <path d="M 22.4,82.7 32.9,99.4" style="fill:none;stroke:#fa0000;stroke-width:3.1" />
        <path d="M 33.26,91.34 C 34.03,91.92 34.85,92.49 35.77,92.63 M 27.1,81.54 C 27.76,83.07 29.73,82.05 28.96,80.71 M 31.67,84.9 C 33.31,87.35 31.39,89.96 33.26,91.34 34.56,92.3 35.63,90.58 34.6,89.65 M 26.86,78.46 C 26.7,79.41 26.69,80.63 27.1,81.54 27.99,83.51 30.32,82.88 31.67,84.9 33.3,87.35 30.16,88.34 29.79,86.42 M 34.4,96.9 23.9,80.2 26.8,73.7 37.3,90.4" style="fill:none;stroke:#ffce09;stroke-width:1;stroke-linecap:round" />
        <path d="M 31.2,59.7 A 35.75,35.75 0 0 1 14.5,82.6" style="fill:none;stroke:#000000;stroke-width:11" />
        <path d="M 32.6,60 A 37.25,37.25 0 0 1 15.8,83.55" style="fill:none;stroke:#ffce09;stroke-width:3" />
        <path d="M 35.6,59.2 A 40,40 0 0 1 17.1,85.95" style="fill:none;stroke:#fa0000;stroke-width:1.5" />
        <circle cx="28.9" cy="64.6" r="3.65" id="dku2" style="fill:none;stroke:#000000;stroke-width:0.5" />
        <use transform="translate(-3.6,6.7)" xlink:href="#dku2" />
        <use transform="translate(-8.45,12.45)" xlink:href="#dku2" />
        <use transform="translate(-5.9,9.8)" xlink:href="#dku2" />
        <use transform="translate(-1.7,3.6)" xlink:href="#dku2" />
        <use transform="translate(1.05,-3.45)" xlink:href="#dku2" />
        <use transform="translate(-11.3,15)" xlink:href="#dku2" />
        <circle cx="32.5" cy="61.6" r="0.5" style="fill:#000000" />
        <circle cx="31.3" cy="65.7" r="0.5" style="fill:#000000" />
        <circle cx="29.6" cy="69.3" r="0.5" style="fill:#000000" />
        <circle cx="27.4" cy="72.85" r="0.5" style="fill:#000000" />
        <circle cx="25.1" cy="76" r="0.5" style="fill:#000000" />
        <circle cx="22.25" cy="79" r="0.5" style="fill:#000000" />
        <circle cx="19.3" cy="81.6" r="0.5" style="fill:#000000" />
        <path d="M 27.1,60.5 A 32,32 0 0 1 17.6,75.7" style="fill:none;stroke:#ffffff;stroke-width:2.5" />
        <path d="M 27.1,60.5 A 32,32 0 0 1 17.6,75.7" style="fill:none;stroke:#0022cc;stroke-width:1;stroke-linecap:round;stroke-dasharray:0, 1.4;stroke-dashoffset:0.6" />
        <path d="M 29.5,61.15 A 34.5,34.5 0 0 1 17.6,78.95" style="fill:none;stroke:#ffce09;stroke-width:1.5" />
        <path d="M 18,67 34.2,59.2 32,55.2 18,64.8 z" style="fill:#000000;stroke:#000000;stroke-width:2" />
        <path d="M 18,67 34.2,59.2" style="fill:none;stroke:#ffffff;stroke-width:1" />
        <path d="M 41,53.5 A 66,78 0 0 1 44.1,82.1" style="fill:none;stroke:#ffffff;stroke-width:1.05" />
        <path d="M 42.3,79.4 43,78.2 42.3,77 41.6,78.2 z M 42.2,76.1 42.9,74.9 42.2,73.7 41.5,74.9 z M 42.1,72.7 42.7,71.3 41.9,70 41.2,71.4 z M 41.7,68.8 42.3,67.4 41.4,66.2 40.8,67.6 z M 41.1,64.9 41.6,63.3 40.5,62.1 40,63.7 z M 40.1,60.9 40.5,59.1 39.1,57.9 38.8,59.7 z M 38.7,56.8 38.9,54.6 37.1,53.3 36.9,55.5 z M 42.1,82.6 42.9,81.5 42.3,80.2 41.5,81.4 z" style="fill:#ffffff" />
        <path d="M 31.98,54.1 A 42.5,42.5 0 0 1 27.96,106.07" style="fill:none;stroke:#000000;stroke-width:2" />
        <path d="M 31.98,54.1 A 42.5,42.5 0 0 1 27.96,106.07" style="fill:none;stroke:#ffffff;stroke-width:1" />
      </g>
      <use style="fill:none;stroke:#000000;stroke-width:0.5" xlink:href="#dku1" />
      <use transform="matrix(-1,0,0,-1,100,155)" xlink:href="#dkg1" />
      <use transform="matrix(-1,0,0,-1,100,155)" style="fill:none;stroke:#000000;stroke-width:0.5" xlink:href="#dku1" />
      <g id="dkg2">
        <path d="M 44.5,61.5 45,69 60,69 60,50 z" style="fill:#fa0000" />
        <path d="M 43.86,52.6 A 69,81 0 0 1 45.4,59.3" style="fill:none;stroke:#000000;stroke-width:5" />
        <path d="M 45.3,52.1 A 70.5,82.5 0 0 1 46.9,58.9 M 43.86,52.6 A 69,81 0 0 1 45.4,59.3" style="fill:none;stroke:#ffce09;stroke-width:1" />
        <path d="M 57.35,69.15 A 46.9,46.9 0 0 1 63.2,53.7 L 55.36,53.7 A 15.4,15.4 0 0 1 44.45,62.1" style="fill:none;stroke:#000000;stroke-width:5" />
        <path d="M 56.93,72.26 A 46.9,46.9 0 0 1 63.2,53.7 L 55.36,53.7 A 15.4,15.4 0 0 1 44.45,62.1" style="fill:none;stroke:#ffce09;stroke-width:4" />
        <path d="M 45,68.5 55.1,68.5 59.6,73 59.6,73.8 53.6,73.8 53.5,78 45,78 z" style="fill:#000000" />
        <path d="M 59.75,72.7 A 44,44 0 0 1 68.55,50.75 L 53.43,50.75 A 12.5,12.5 0 0 1 44,59.2" style="fill:none;stroke:#000000;stroke-width:2" />
        <path d="M 68.55,50.75 53.43,50.75 A 12.5,12.5 0 0 1 44,59.2" style="fill:none;stroke:#ffffff;stroke-width:1" />
        <path d="M 42.43,53.05 A 67.5,79.5 0 0 1 45.6,82.2" style="fill:none;stroke:#000000;stroke-width:2" />
        <path d="M 42.43,53.05 A 67.5,79.5 0 0 1 45.65,81.2" style="fill:none;stroke:#ffce09;stroke-width:1" />
        <path d="M 64.3,55.95 59.47,55.95 A 49.15,49.15 0 0 1 61.98,51.5 M 57.6,60.2 62.3,60.2 M 56.1,64.5 60.7,64.5 M 55,68.75 59.6,68.75" style="fill:none;stroke:#000000;stroke-width:0.5" />
        <circle cx="47.3" cy="61.2" r="1.2" style="fill:#000000" />
        <circle cx="50.6" cy="59.4" r="1.2" style="fill:#000000" />
        <circle cx="53.3" cy="56.9" r="1.2" style="fill:#000000" />
        <circle cx="55.36" cy="53.7" r="1.2" style="fill:#000000" />
        <circle cx="58.8" cy="53.7" r="1.2" style="fill:#000000" />
        <circle cx="63.2" cy="53.7" r="1.2" style="fill:#000000" />
        <circle cx="60.9" cy="58.05" r="1.2" style="fill:#000000" />
        <circle cx="59.15" cy="62.35" r="1.2" style="fill:#000000" />
        <circle cx="57.9" cy="66.65" r="1.2" style="fill:#000000" />
      </g>
      <use transform="matrix(-1,0,0,-1,100,155)" xlink:href="#dkg2" />
      <g id="dkg4">
        <path d="M 33.38,53.5 A 44,44 0 0 1 31.45,104.25 L 32,104.25" style="fill:none;stroke:#ffffff;stroke-width:1" />
        <path d="M 41.71,47.66 49.88,48.31 50.4,49.3 C 46.62,54.63 40.85,56.93 36.25,51.15 35.89,50.6 35.82,49.87 36.07,49.13 36.77,46.97 39.77,47.53 39.7,50 40.39,49.55 41.2,48.68 41.71,47.66 z" style="fill:#f9f9ff" />
        <path d="M 43.7,47.82 C 42.71,49.56 41.27,51.49 39.08,52.07 36.96,52.63 35.5,50.86 36.07,49.13 36.77,46.97 39.77,47.53 39.7,50 M 36.25,51.15 C 40.85,56.93 46.72,54.63 50.6,49.1 M 45.8,48 C 44.28,50.52 42,54 38.87,53.53 M 47.64,48.14 C 46.28,50.98 43.8,53.86 42.13,54.53 M 49.38,48.31 C 48.46,50.53 46.36,53.22 45.31,53.84 M 41.88,44.31 C 41.28,44.44 41.93,45.76 41.71,47.66 41.2,48.68 40.39,49.55 39.7,50 37.11,51.69 36.87,49.25 37.77,49.15" style="fill:none;stroke:#000000;stroke-width:0.5" />
      </g>
      <use transform="matrix(-1,0,0,-1,100,155)" xlink:href="#dkg4" />
      <path d="M 46.7,76.2 53.3,76.2 53.3,78.8 46.7,78.8 z M 48.7,81.2 48.7,73.8 51.3,73.8 51.3,81.2 z" style="fill:#ffce09;fill-rule:evenodd" />
    </g>
    <use xlink:href="#pfl" />
    <use transform="matrix(2,0,0,2,8,-21)" xlink:href="#di" />
    <use transform="matrix(-2,0,0,-2,92,176)" xlink:href="#di" />
  </g>
</svg>
