<?xml version="1.0" encoding="UTF-8" standalone="no"?>
<svg xmlns="http://www.w3.org/2000/svg" xmlns:xlink="http://www.w3.org/1999/xlink" version="1.1" viewBox="0 0 101 156" id="pad" >
  <defs>
    <clipPath id="cpf">
      <rect width="100" height="155" ry="8" x="0" y="0" id="card" style="fill:#ffffff;stroke:#000000;stroke-width:1" />
    </clipPath>
    <g id="tS" transform="translate(17,18)">
      <path d="M 0,-11.83 2.45,-5.92 8.35,-8.35 5.92,-2.45 11.83,0 5.92,2.45 8.35,8.35 2.45,5.92 0,11.83 -2.45,5.92 -8.35,8.35 -5.92,2.45 -11.83,0 -5.92,-2.45 -8.35,-8.35 -2.45,-5.92 z" />
      <path id="tS1" d="M 6.28,-6.28 1.84,-4.44 0,0 z M 8.88,0 4.44,-1.84 0,0 z" style="opacity:0.8;fill:white" />
      <use xlink:href="#tS1" transform="rotate(90)" />
      <use xlink:href="#tS1" transform="rotate(180)" />
      <use xlink:href="#tS1" transform="rotate(270)" />
    </g>
  </defs>
  <g transform="translate(0.5,0.5)" id="red_joker" style="fill:#fa0000">
    <use xlink:href="#card" />
    <use xlink:href="#tS" />
    <use transform="matrix(-1,0,0,-1,100,155)" xlink:href="#tS" />
    <path d="M 77.76,65.37 C 79.91,70.12 76.3,72.38 73.81,72.84 71.41,73.28 70.63,71.54 71.4,70.21 71.71,69.69 72.53,69.24 72.8,68.99 74.11,67.86 73.83,66.05 72.33,66.34 69.62,66.86 69.36,64.87 70.86,63.67 71.7,63 72.83,62.52 73.86,62.15 73.82,60.96 73.47,59.36 74.11,58.79 76.19,56.92 76.41,58.77 76.63,59.29 76.94,60 77.91,59.84 78.28,59.45 78.9,58.79 79.52,58.71 80.35,59.38 81.05,59.95 81.05,60.54 80.94,61.69 80.79,63.31 79.51,64.61 77.76,65.37 z M 74.51,62.63 C 74.55,63.38 75.53,63.82 76.5,63.48 75.94,62.48 75.72,61.23 75.68,59.93 75.65,58.87 74.68,59.05 74.51,59.65 74.29,60.42 74.47,61.63 74.51,62.63 z" id="sh1" />
    <path d="M 77.76,65.37 C 79.91,70.12 76.3,72.38 73.81,72.84 71.41,73.28 70.63,71.54 71.4,70.21 71.71,69.69 72.53,69.24 72.8,68.99 74.11,67.86 73.83,66.05 72.33,66.34 69.62,66.86 69.36,64.87 70.86,63.67 71.7,63 72.83,62.52 73.86,62.15 73.82,60.96 73.47,59.36 74.11,58.79 76.19,56.92 76.41,58.77 76.63,59.29 76.94,60 77.91,59.84 78.28,59.45 78.9,58.79 79.52,58.71 80.35,59.38 81.05,59.95 81.05,60.54 80.94,61.69 80.79,63.31 79.51,64.61 77.76,65.37 z" style="fill:none;stroke:#000000;stroke-width:0.5" />
    <g id="shr">
    <path d="M 31.96,104.85 C 31.62,110.12 35.63,110.8 38.01,110.26 40.32,109.73 40.43,107.8 39.29,106.88 38.84,106.51 37.96,106.41 37.63,106.29 36.07,105.75 35.72,103.96 37.16,103.64 39.77,103.06 39.33,101.11 37.58,100.58 36.61,100.28 35.43,100.28 34.38,100.33 34.01,99.21 33.79,97.59 33.03,97.31 30.53,96.39 30.96,98.19 30.93,98.77 30.9,99.54 29.97,99.77 29.51,99.55 28.73,99.18 28.14,99.35 27.62,100.3 27.19,101.1 27.39,101.65 27.87,102.68 28.55,104.12 30.13,104.83 31.96,104.85 z M 33.96,101.04 C 35,100.95 36.17,100.94 37.12,101.11 37.94,101.27 37.66,102.17 36.94,102.04 35.53,101.79 34.38,102.33 33.35,103.14 33.02,103.4 32.37,103.27 32.46,102.61 32.63,101.46 32.4,100.21 32,98.98 31.67,97.98 32.6,97.77 32.96,98.27 33.41,98.89 33.62,100.11 33.96,101.04 z" id="shb" />
      <path d="M 31.96,104.85 C 31.62,110.12 35.63,110.8 38.01,110.26 40.32,109.73 40.43,107.8 39.29,106.88 38.84,106.51 37.96,106.41 37.63,106.29 36.07,105.75 35.72,103.96 37.16,103.64 39.77,103.06 39.33,101.11 37.58,100.58 36.61,100.28 35.43,100.28 34.38,100.33 34.01,99.21 33.79,97.59 33.03,97.31 30.53,96.39 30.96,98.19 30.93,98.77 30.9,99.54 29.97,99.77 29.51,99.55 28.73,99.18 28.14,99.35 27.62,100.3 27.19,101.1 27.39,101.65 27.87,102.68 28.55,104.12 30.13,104.83 31.96,104.85 z" style="fill:none;stroke:#000000;stroke-width:0.5" />
    </g>
    <use transform="matrix(-0.969,0.434,0.426,0.988,38.6,-9.2)" xlink:href="#shr" />
    <use transform="matrix(-1.069,-0.241,-0.264,0.975,132.9,9.9)" xlink:href="#shr" />
    <use transform="matrix(0.796,0.777,-0.708,0.743,124.1,-21.8)" xlink:href="#shr" />
    <g id="jst">
      <path d="M 10.52,92.95 C 40.07,96.52 63.07,95.82 88.48,91.46 M 60.28,64.8 C 69.42,73.97 79.09,66.09 75.72,57.25 73.54,51.56 73.76,40.85 82.33,39.75" style="fill:none;stroke:#000000;stroke-width:1.5;stroke-linecap:round" />
      <path d="M 62.79,36.34 C 62.08,36.25 61.17,36.71 60.54,38.06 L 54.7,40.12 C 51.8,39.1 49.03,39.12 46.13,41.03 43.87,41.21 41.74,41.15 39.66,40.97 36.41,37.99 34.39,43.06 38.85,43.09 39.84,44.74 42.59,47.56 43.45,49.53 44.1,51.02 44.26,52.7 43.35,52.93 39.76,53.15 37.26,52.05 34.38,50.47 33.92,49.96 33.39,49.38 32.57,49.4 31.49,48.38 30.8,48.21 30.1,47.72 29.06,46.98 29.02,46.02 29.01,45.12 28.97,42.88 27.18,42.85 26.76,45.28 26.69,45.69 26.65,46.09 26.48,46.53 24.43,46.29 22.47,46.14 20.54,46.34 18.08,46.6 18.36,48.86 22.04,49.5 23.39,53.51 24.19,55.09 30.57,55.56 29.8,56.71 31.64,57.39 32.85,57.97 34,58.51 34.77,60.41 41.88,61.9 40.83,63.12 40.1,64.45 39.6,65.84 36.6,68.81 34.11,71.62 32.01,74.84 31.39,75.79 30.21,77.17 29.32,78.09 29.61,79.28 30.5,79.74 32.85,79.75 L 33.13,81.4 34.91,80.78 C 34.94,81.57 35.03,82.18 35.2,82.65 34.01,83.23 31.79,83.12 30.57,82.62 30.84,81.63 30.82,81.07 30.26,80.53 29.91,80.19 29.13,80.12 28.48,81.22 27.91,82.17 27.01,82.07 26.2,81.53 25.23,80.9 24.49,80.86 23.88,81.68 23.44,82.28 23.21,82.99 23.51,83.87 23.75,84.61 25.58,85.34 24.98,86.5 23.64,89.07 22.51,90.61 25.32,93.03 26.92,94.41 28.67,94.91 30.29,93.37 30.78,92.91 31.39,91.51 29.32,91.47 28.81,91.46 28.36,91.34 27.95,90.87 27.02,89.83 28.41,88.57 29.29,89.37 29.92,89.95 31.68,90.32 31.32,88 34.76,88.78 39.23,89.26 43.85,89.09 44.89,89.05 46.53,87.89 46.82,86.12 46.97,85.24 47.13,84.37 47.16,83.56 47.32,83.42 47.49,83.29 47.66,83.12 L 48.88,83.34 49.32,82.09 C 51.83,83.97 52.63,83.28 53.51,80.15 L 54.2,80.28 C 54.59,82.31 54.8,85.81 54.6,86.93 52.95,85.68 51.09,86.88 52.54,88.4 53.47,89.38 53.07,90.27 52.2,91.22 51.21,92.28 51.35,93.03 52.23,93.81 52.82,94.34 53.46,94.81 54.38,94.25 55.4,93.63 56.31,92.66 57.16,92 61.56,95.59 62.79,95.07 66.38,91.75 67.21,90.98 66.03,89.42 64.82,89.9 63.85,90.29 63.07,90.92 61.7,90.84 60.43,90.77 60.41,89.23 61.57,88.68 64.31,87.4 62.63,85.51 60.13,86.34 61.27,81.28 62.47,76.24 62.32,71 58.67,69.8 55,68.67 51.16,67.84 L 51.04,67 C 53.62,66.1 55.27,63.83 57.16,61.9 62.39,61.68 66.33,59.14 70.16,56.87 72.9,56.46 75.58,55.06 77.79,53.65 78.86,52.97 79.04,50.5 78.96,47.73 78.92,46.4 78.69,45.4 77.57,45.4 76.8,45.41 76,45.52 75.29,45.81 74.83,44.78 73.27,44.42 73.16,45.78 73.09,46.72 73.15,47.48 72.35,48.06 71.35,48.78 70.48,49.88 69.66,51.25 69.32,51.35 68.99,51.4 68.66,51.62 65.93,52.2 61.74,53.6 59.45,53.15 59.58,51.06 59.54,49.08 58.95,46.81 L 62.82,39.65 C 64.67,38.15 63.98,36.49 62.79,36.34 z" style="fill:#000000" />
      <path d="M 30.3,78.3 C 31.6,79.82 32.86,79.04 33.36,78.77 34.4,79.32 34.92,78.62 34.6,77.83 L 34.32,77.12 C 35.36,77.33 36.04,76.95 36.74,76.62 36.81,77.22 37.03,77.86 37.87,78.59 L 36.89,78.81 C 35.95,79.02 35.46,79.81 36.49,80.38 35.92,83.15 37.22,83.7 39.58,81.81 40.94,81.84 41.05,80.91 40.4,79.9 L 39.81,78.98 C 40.85,78.76 41.67,78.31 42.19,77.62 42.43,78.26 43.01,78.96 44.17,79.18 L 43.16,80.07 C 42.16,80.95 42.22,81.86 43.38,81.77 44.47,84.38 46.09,84.16 46.87,81.43 48.09,81.16 47.97,80.18 47.14,79.75 L 46.25,79.29 C 46.97,78.92 47.41,78.03 47.54,77.3 48.09,77.57 48.35,78.38 49.69,78.23 L 49.26,79.06 C 48.78,79.98 49.13,80.8 50.16,80.38 51.37,82.46 52.63,82.54 53.02,79.56 53.8,78.76 53.09,77.62 52.25,77.52 L 51.43,77.42 C 52,76.53 51.93,75.73 51.94,75.12 52.42,75.32 53.06,75.56 53.93,75.26 L 53.89,76.11 C 53.84,77.24 54.61,78 55.46,77.22 56.94,78.25 57.94,78.53 57.45,75.44 58.02,74.55 57.12,73.95 56.25,74.07 L 55.38,74.19 C 55.49,73.29 55.27,72.6 54.93,72.1 55.47,72.12 56.63,72.08 57.44,71.71 L 57.65,72.52 C 57.82,73.15 58.74,73.56 59.49,72.76 60.84,73.17 61.89,72.11 61.67,71.37 57.95,70.04 54.73,69.27 51.45,68.51 51.04,68.42 50.56,68.35 50.1,68.48 46.12,69.6 42.87,69.14 40.18,66.83 36.21,69.6 33.53,74.38 30.3,78.3 z M 31.67,54.56 C 31.06,55.78 32.61,56.29 33.6,54.84 33.66,55.57 33.01,56.53 33.67,57.25 35.77,59.56 39.1,60.26 42.18,61.21 42.82,61.41 43.47,62.12 43.14,62.66 42.73,63.33 42.31,64.03 42.01,64.83 49.09,70.25 56.57,64.33 57.75,56.42 L 58.44,55.7 C 58.3,57.97 57.69,59.55 57.34,61.32 61,61.25 64.74,59.54 67.12,58.01 67.55,57.73 68.13,56.84 68.12,55.42 68.57,56.68 69.68,56.75 69.7,53.08 69.71,51.93 69.6,51.55 68.7,52.08 64,53.59 58.03,54.87 56.65,52.5 53.04,56.89 49.1,53.25 47.76,51.33 47.23,50.57 47.05,47.59 47.24,46.74 48.44,41.44 55.83,41.97 56.96,44.37 57.09,44.65 57.62,44.37 57.75,44.09 58.17,44.21 58.56,43.89 58.75,43.61 59.53,42.46 60.19,41.33 60.71,40.03 61.19,38.84 60.78,38.41 59.71,38.79 L 55.96,40.1 C 55.58,40.23 55.33,40.59 55.17,40.89 52.19,39.56 48.88,39.57 45.73,41.99 45.55,41.67 45.37,41.46 45,41.47 43.42,41.52 41.77,41.52 40.15,41.4 39.02,41.33 38.96,42.26 39.32,42.71 L 42.66,46.92 C 43,47.34 43.31,47.38 43.69,47.3 43.76,49.15 44.32,51.7 44.8,52.88 44.53,53.68 43.74,53.86 42.83,53.84 39.77,53.78 36.89,52.49 34.02,50.98 33.61,50.65 32.91,49.79 32.71,51.15 32.49,52.57 32.18,53.55 31.67,54.56 z" style="fill:#fa0000" />
      <path d="M 70.22,53.84 70.17,51.99 C 70.57,50.77 71.22,49.62 72.31,48.73 73.04,48.13 73.62,47.3 73.58,46.29 73.54,45.37 74.51,45.11 74.53,46.07 74.59,48.01 73.78,48.86 73.08,50.07 73.51,53.17 71.98,53.84 70.22,53.84 z M 70.36,54.46 C 71.29,54.44 72.49,54.18 72.97,53.36 73.32,52.75 73.84,53.07 73.93,53.6 74.21,55.08 72.08,55.23 70.56,55.36 69.89,55.41 69.96,54.47 70.36,54.46 z M 75.46,46.92 C 74.92,47.08 75.16,47.96 75.7,47.85 L 77.35,47.5 C 77.9,47.39 77.73,46.24 77.07,46.43 z M 75.25,48.81 C 74.6,49.02 74.95,50.01 75.59,49.78 L 77.04,49.26 C 77.66,49.04 77.41,48.11 76.83,48.29 z M 75.08,50.64 C 74.41,50.9 74.67,51.89 75.32,51.7 L 76.87,51.26 C 77.67,51.03 77.35,49.76 76.59,50.05 z M 75.28,52.5 C 74.71,52.68 75.09,53.84 75.66,53.6 L 76.9,53.08 C 77.44,52.86 77.08,51.93 76.59,52.08 z M 31.58,53.38 C 31.98,52.31 32.16,51.01 32.32,49.75 31.38,48.86 30.4,48.56 29.52,47.9 28.78,47.33 28.43,46.29 28.56,45.08 28.68,43.95 27.78,43.54 27.37,44.82 26.98,46.03 27.48,47.64 28.46,48.6 27.44,51.04 29.92,52.84 31.58,53.38 z M 26.91,47.08 C 24.88,46.78 22.82,46.58 20.74,46.85 19.3,47.04 19.88,48.21 20.72,48.17 22.71,48.07 25.93,48.34 26.49,48.95 26.91,48.71 27.42,48.67 27.94,48.66 27.46,48.18 27.15,47.64 26.91,47.08 z M 27.75,49.18 C 27.53,51.74 29.27,52.75 30.61,53.5 30.84,53.63 30.79,54.02 30.24,54.13 29.19,54.35 27.38,54.2 27.09,53.95 26.78,53.67 27.75,52.93 27.18,51.65 26.87,50.96 26.77,50.16 26.81,49.46 27.07,49.21 27.44,49.17 27.75,49.18 z M 23.41,48.73 C 22.58,48.72 22.48,49.96 23.23,50 L 25.63,50.1 C 26.08,50.12 26.24,49.39 25.79,49.18 25.34,48.97 24.31,48.75 23.41,48.73 z M 23.93,50.5 C 23.2,50.46 23.25,51.6 23.93,51.62 L 26.01,51.65 C 26.58,51.66 26.61,50.61 26.02,50.58 z M 24.9,52.1 C 24.21,52.08 24.03,53.17 24.87,53.18 L 26.18,53.2 C 26.92,53.21 26.94,52.15 26.22,52.13 z M 56.85,45.37 C 57.47,47.23 57.15,51.31 55.95,52.44 54.37,54.05 52.81,54.49 51.3,53.7 47.6,51.83 47.73,49.82 47.69,48.02 47.63,45.07 49.73,43.75 51.35,43.21 52.94,42.67 56.25,42.96 56.85,45.37 z M 49.34,47.26 C 49.35,45.94 51.07,46.04 51.14,47.23 51.2,48.47 49.34,48.53 49.34,47.26 z M 54.2,45.99 C 54.2,44.81 56.02,44.83 55.99,45.99 55.96,47.15 54.2,47.2 54.2,45.99 z" style="fill:#fdf9ee;fill-rule:evenodd" />
      <path d="M 60.88,74.15 C 60.54,74.25 60.1,74.29 59.51,74.25 L 59.57,75.68 58.07,75.75 C 58.15,78.56 57.4,79.04 55.16,78.9 L 55.04,80.43 54.76,80.37 C 55.27,83 55.25,85.69 55.26,87.31 55.46,88.32 56.14,89.55 57.04,88.78 57.92,88.03 58.61,87.49 58.79,86.53 59.56,82.41 60.72,77.53 60.88,74.15 z M 40.07,82.65 C 37.48,83.97 36.08,84.18 35.41,83.15 34.09,83.72 32.56,83.86 30.48,83.43 30.13,83.36 29.55,83.52 29.16,83.75 28.71,84.02 28.1,84.93 28.1,84.93 30.31,87.94 35.9,87.89 43.35,88 44.36,88.08 45.03,87.38 45.1,86.59 45.16,85.96 45.13,85.3 45.07,84.72 44.21,84.77 43.32,84.26 42.07,83.18 L 40.57,84.03 z" style="fill:#ffffff" />
      <path d="M 47.04,67.21 C 49.06,64.99 50.57,61.64 50.55,59.01 L 52.75,59.15 C 53.02,61.95 51.01,65.3 49.31,67.03 z M 46.28,68.86 C 46.17,71.44 46.57,74.01 47,76.68 L 44.32,77.13 C 44.25,74.29 44.13,71.56 44.42,68.72 z" style="fill:#0022cc" />
      <path d="M 46.69,43.95 C 45.02,47.01 45.41,50.43 46.28,54.01 M 43.04,43.06 41.49,45.71 M 41.08,42.64 40.11,44.06 M 57.99,40.51 56.41,41.68 M 58.16,42.06 57.27,42.68 M 57.89,44.26 C 57.5,42.62 55.49,39.62 51.2,39.85 45.01,40.19 43.85,45.1 43.59,47.5 43.48,48.57 44.09,51.06 44.49,52.77 L 43.45,53.39 C 48.27,60.26 54.53,61.73 59.75,53.56 M 53.13,54.32 52.34,59.15 M 55.82,55.84 C 56.75,55.08 57.43,54.2 57.99,53.25 M 59.85,57.87 C 60.19,56.82 60.39,55.06 60.33,53.56 M 62.16,57.15 C 62.38,56.22 62.38,54.72 62.4,53.5 M 64.16,56.35 C 64.26,55.42 64.2,54.18 64.16,53.12 M 66.02,55.36 C 66.18,54.64 66.08,53.48 66.05,52.6 M 68.19,57.11 68.6,51.95 M 48.17,59.8 48.69,58.46 M 46.18,59.25 46.93,57.29 M 44.45,58.53 C 44.83,57.63 45.12,56.76 45.38,55.73 M 42.9,57.8 C 43.33,56.62 43.68,55.42 43.8,53.87 M 40.53,57.77 C 41.08,56.42 41.67,55.14 42.04,53.53 M 38.8,57.18 C 39.42,55.88 40.12,54.15 39.91,53.12 38.97,54.04 38,54.98 36.91,55.77 M 35.46,54.49 C 36.37,53.99 37.08,53.29 37.8,52.6 M 34.57,53.22 36.19,51.95 M 33.81,50.43 C 33.66,52.21 33.62,53.82 33.22,55.77 M 52.31,49.02 C 52.82,49.55 53.67,49.62 54.17,49.02 54.34,47.82 53.02,46.96 53.06,45.85 53.11,44.74 53.91,43.98 54.75,43.23 M 51.62,51.05 C 53.29,52.29 54.31,51.58 55.17,50.36 54.12,51.28 52.94,51.51 51.62,51.05 z M 48.1,55.11 C 47.62,53.12 47.29,49.93 47.45,47.78 47.66,44.83 48.99,44.68 50.34,44.95 M 52.75,59.15 C 53.02,61.95 51.01,65.3 49.31,67.03 48.64,67.22 47.88,67.17 47.04,67.21 49.06,64.99 50.57,61.64 50.55,59.01 M 41.08,61.11 C 42.28,61.47 43.14,61.37 44.07,61.38 M 42.8,62.28 44.25,63.59 M 42.28,63.11 43.45,64.45 M 33.22,73.92 C 40.56,78.11 49.7,79.72 55.96,69.51 M 54.48,71.48 C 52.27,70.65 49.99,69.94 48.04,68.69 M 51.34,74.58 C 49.4,72.98 47.13,70.91 46.28,68.86 M 44.32,77.13 C 44.25,74.29 44.13,71.56 44.42,68.72 L 46.28,68.86 C 46.17,71.44 46.57,74.01 47,76.68 M 42.35,68 C 40.7,70.59 39.03,73.21 38.08,76.16 M 41.42,67.45 C 38.8,69.65 36.97,72.3 35.15,74.96 M 38.7,67.55 C 39.41,68.29 40.32,68.9 41.35,69.41 M 37.32,68.96 C 38.15,69.6 39.11,70.15 40.46,70.86 M 35.84,70.62 C 37.17,71.53 38.6,72.28 40.11,72.92 M 34.64,72.1 C 36.26,73.07 37.99,73.84 39.87,74.44 M 29.79,84.72 30.97,83.29 M 31.4,85 32.53,83.4 M 33.17,85.07 34.38,83.33 M 35.2,85.21 36.27,83.58 M 37.12,85.39 38.83,82.9 M 39.19,85.43 40.64,83.15 M 41.39,85.5 42.74,83.36 M 43.38,85.39 43.92,84.15 M 54.66,80.8 57.36,78.1 M 54.87,82.83 56.72,81.3 M 55.01,84.79 56.62,83.47 M 55.09,86.32 56.4,85.32 M 55.12,87.99 56.37,87.06" style="fill:none;stroke:#000000;stroke-width:0.5;stroke-linecap:round;stroke-linejoin:round" />
    </g>
  </g>
</svg>
