<?xml version="1.0" encoding="UTF-8" standalone="no"?>
<svg xmlns="http://www.w3.org/2000/svg" xmlns:xlink="http://www.w3.org/1999/xlink" version="1.1" viewBox="0 0 101 156" id="pad" >
  <defs>
    <clipPath id="cpf">
      <rect width="100" height="155" ry="8" x="0" y="0" id="card" style="fill:#ffffff;stroke:#000000;stroke-width:1" />
    </clipPath>
  <g id="ht">
    <path d="M 14.8,24.1 C 15,21.1 12.2,20 10.5,21.9 8.7,20 6,21.1 6.2,24.1 6.333,26.1 9.4,29 10.5,31 11.6,29 14.667,26.1 14.8,24.1 z" id="ht0" />
    <path d="M 7.14,22.55 C 6.99,22.81 6.3,23.11 6.81,22.23 7.3,21.41 8.06,21.06 9,21.31 9.46,21.43 9.11,21.76 8.81,21.7 8.12,21.57 7.54,21.88 7.14,22.55 z M 10.6,22.36 C 11.19,22.35 11.84,21.51 12.77,21.71 13.01,21.76 13.45,21.41 12.89,21.25 12.19,21.05 11.21,21.42 10.64,22.02 10.49,22.21 10.44,22.37 10.6,22.36 z" style="opacity:0.8;fill:white" />
  </g>
    <path d="M 6.53906,17.5234 6.53906,15.6797 C 7.01302,16.1016 7.5026,16.4193 8.00781,16.6328 8.51302,16.8411 9.03645,16.9453 9.57812,16.9453 10.3229,16.9453 10.8411,16.7526 11.1328,16.3672 11.4297,15.9766 11.5781,15.2526 11.5781,14.1953 L 11.5781,7.66406 8.60156,7.66406 8.60156,6.33594 13.1562,6.33594 13.1562,14.1953 C 13.1562,15.6641 12.8802,16.7031 12.3281,17.3125 11.7812,17.9219 10.8646,18.2266 9.57812,18.2266 9.07812,18.2266 8.58073,18.1693 8.08594,18.0547 7.59114,17.9401 7.07552,17.763 6.53906,17.5234" id="tJ" />
    <clipPath id="pfc">
      <rect width="63.5" height="120.5" x="18.25" y="17.25" id="pfl" style="fill:none;stroke:#000000;stroke-width:0.5" />
    </clipPath>
    <clipPath id="hjc1">
      <path d="M 49,44 C 38,44.5 26.5,55.5 18.25,66 L 18.25,100 32,111 68,44 z" id="hju7" />
    </clipPath>
  </defs>
  <g transform="translate(0.5,0.5)" id="jack_heart" style="fill:#fa0000">
    <use style="fill:#ffffff" xlink:href="#card" />
    <use xlink:href="#tJ" />
    <use transform="translate(79,0)" xlink:href="#tJ" />
    <use transform="matrix(-1,0,0,-1,21,155)" xlink:href="#tJ" />
    <use transform="matrix(-1,0,0,-1,100,155)" xlink:href="#tJ" />
    <use xlink:href="#ht0" />
    <use transform="translate(79,0)" xlink:href="#ht0" />
    <use transform="matrix(-1,0,0,-1,21,155)" xlink:href="#ht0" />
    <use transform="matrix(-1,0,0,-1,100,155)" xlink:href="#ht0" />
    <use transform="matrix(2,0,0,2,8,-21)" xlink:href="#ht" />
    <use transform="matrix(-2,0,0,-2,92,176)" xlink:href="#ht" />
    <g clip-path="url(#pfc)">
      <g id="hjg1">
        <path d="M 28,115.5 C 31,120.5 31,129.5 28,134.5" style="fill:#ffffff;stroke:#000000;stroke-width:0.5" />
        <path d="M 23,124 C 25.5,122.5 27,118.5 28,115.5 L 28,123 30,125 28,127 28,134.5 C 27,131.5 25.5,127.5 23,126 z" style="fill:#ffce09;stroke:#000000;stroke-width:0.5" />
        <path d="M 17,134.5 23,129.5 23,103 17,98 z" style="fill:#fa0000;stroke:#000000;stroke-width:1.6" />
        <path d="M 17,134.5 23,129.5 23,103" style="fill:none;stroke:#ffce09;stroke-width:0.8" />
        <path d="M 26.7,131 28,131 M 26,129.3 28,129.3 M 24.8,127.5 28,127.5 M 26.7,119 28,119 M 26,120.7 28,120.7 M 24.8,122.5 28,122.5 M 23.5,124 27,124 28,125 27,126 23.5,126" style="fill:none;stroke:#000000;stroke-width:0.5" />
        <path d="M 20.5,60.5 C 22,59 22.5,56 23,53 23.5,50 25,49 28.5,49 31.5,49 33,47 33,44 33,45 31.5,45.5 28.5,45.5 25.5,45.5 22.5,47.5 21.5,51.5 20.733,54.5679 19.5,58.5 20.5,60.5 z" style="fill:#ffce09;stroke:#000000;stroke-width:0.5" />
        <path d="M 22.28,49.03 C 21.53,49.17 20.96,50.24 21.56,50.91 L 21.59,50.97 C 20.4,50.89 19.76,52.75 20.44,53.31 19.24,53.36 19.11,54.66 19.81,55.19 L 20.06,55.38 C 18.97,55.49 18.85,56.6 19.56,57.06 L 21.34,58.22 C 21.23,59.54 21.82,60.2 22.69,60.75 L 28.5,55.5 C 28.07,53.87 27.14,51.76 25,51 L 23.06,49.25 C 22.82,49.03 22.53,48.99 22.28,49.03 z" style="fill:#fdf9ee" />
        <path d="M 21.34,58.21 C 21.22,59.53 21.81,60.2 22.68,60.75 L 28.5,55.5 C 28.07,53.87 27.14,51.76 25,51 23.43,50.44 22.57,51.72 23,52.5 23.42,53.26 24.26,53.79 25,53.5 24,55 24,57 25.43,58 M 20.17,55.36 C 18.98,55.4 18.85,56.56 19.58,57.05 L 21.34,58.21 C 21.97,58.62 22.88,57.82 22.48,57 M 20.44,53.3 C 19.25,53.35 19.11,54.66 19.81,55.19 L 22,56.81 C 22.81,57.42 23.66,56.19 23.18,55.26 M 21.59,50.98 C 20.4,50.89 19.77,52.74 20.44,53.3 L 22.48,55.01 C 23.26,55.66 24.49,54.8 24.04,53.5 M 25,51 23.05,49.25 C 22.07,48.38 20.75,50.03 21.56,50.92 L 23,52.5 M 23.45,49.54 C 25.38,46.47 29.67,48.37 31.13,46.83" style="fill:none;stroke:#000000;stroke-width:0.5" />
        <path d="M 42.33,29 C 41.88,31.31 41.12,32.37 40.41,34.46 40.02,35.62 41.08,36.4 42.22,36.59 42.25,37.87 42.37,39.39 42.82,39.34 43.8,39.22 44.59,39.52 45.58,39.53 L 42.95,39.77 C 42.55,40.26 43.33,41.32 43.77,41.91 43.53,43.38 44.23,44.42 46.17,44.35 L 56,44 56,23 41.95,24.83 z" style="fill:#fdf9ee;fill-opacity:1;stroke:#000000;stroke-width:0.5;stroke-linejoin:round" />
        <path d="M 44.7,29.38 C 44.4,29.94 44.1,30.95 44.39,31.79 44.73,31.19 44.99,30.06 44.7,29.38 z M 42.06,34.54 C 42.34,35.97 45.98,36.38 44.16,33.8 M 52.88,34.11 C 52.12,35.82 53.14,37.55 55.09,35.7 M 43.54,31.55 C 44.71,31.67 45.98,32.69 46.56,33.45 M 43.69,29.15 C 46.24,29.62 47.49,30.67 48.96,31.63 M 43.3,27.37 C 46.19,27.07 48.14,27.93 49.7,29.66 M 47.26,36.13 C 48.44,36.07 48.81,37.31 48.15,37.84 47.5,38.35 46.24,37.77 45.53,37.52 44.51,37.16 43.42,36.87 43.46,37.41 43.49,37.95 44.91,37.25 45.53,37.52" style="fill:none;stroke:#000000;stroke-width:0.5;stroke-miterlimit:1" />
        <path d="M 64.5285,43.9539 48.4167,43.996 C 55.2272,40.5046 57.2247,33.8003 53.7541,24.4846 L 61.2476,25.3618 z" style="fill:#ffce09" />
        <path d="M 51.4,43.9 51.6,42 M 53.5,43.9 C 53.7,42.2 53.9,40.6 53.9,38.9 M 48.4,43.9 C 55.2,40.5 57.2,33.8 53.8,24.5 M 58.9,43.9 C 57.4,38.7 58,31.3 56.5,24.8 M 61.8,43.9 C 59.7,39.1 59.5,32.7 59,25.2 M 56,43.9 C 55.9,39.6 56,29.3 53.8,24.5" style="fill:none;stroke:#000000;stroke-width:0.5" />
        <g clip-path="url(#hjc1)">
          <path d="M 18,82 22,82 32,102 29,107 18,99 z" style="fill:#ffffff" />
          <path d="M 17,81 31,92 M 17,83 31,94 M 17,85 31,96 M 17,87 31,98 M 17,89 31,100 M 17,91 31,102 M 17,93 31,104 M 17,95 31,106" style="fill:none;stroke:#0022cc;stroke-width:0.5" />
          <path d="M 19.5,92.9 C 20,92.5 20.4,93.2 20.4,93.7 L 20.4,97.6 C 20.4,98.1 20.8,98.8 21.3,98.4" id="hju1" style="fill:none;stroke:#0022cc;stroke-width:1.2" />
          <use transform="translate(3.1,2.45)" xlink:href="#hju1" />
          <use transform="translate(6.2,4.9)" xlink:href="#hju1" />
          <path d="M 22.3,81 A 31,31 0 0 0 31.2,101.8 L 38,102 38,55 16,55 16,75 z M 17,98.1 34,111.6" style="fill:#fa0000;stroke:#000000;stroke-width:2" />
          <path d="M 19,65 C 22,65 24,63 26,60 M 18,66 C 21.1,66 23.5,66 25,64.6 M 18,66.5 C 19.5,67.5 21,68.5 23,68.4 M 18,67 C 19,68.5 20,70 21.5,71 M 18,68 C 18.5,70 19,71 20.1,72" style="fill:none;stroke:#000000;stroke-width:0.5" />
          <path d="M 34.2,97.8 A 28.2,28.2 0 0 1 36.7,64 L 46,70 46,89 z" style="fill:#000000" />
          <path d="M 41,48 50,71 65,48 z" style="fill:#0022cc" />
          <path d="M 41,44 66,44 66,50 41,50 z" style="fill:#ffce09;stroke:#000000;stroke-width:0.5" />
          <path d="M 41,45.4 66,45.4 66,48.6 41,48.6 z" style="fill:#ffce09;stroke:#000000;stroke-width:0.5" />
          <path d="M 44,45.2 47,45.2 47,48.8 44,48.8 z M 44.5,47 A 1,1 0 0 0 46.5,47 1,1 0 0 0 44.5,47 z M 41.6,47 A 0.9,0.9 0 0 0 43.4,47 0.9,0.9 0 0 0 41.6,47 z" id="hju2" style="fill:#000000" />
          <use transform="translate(6,0)" xlink:href="#hju2" />
          <use transform="translate(12,0)" xlink:href="#hju2" />
          <use transform="translate(18,0)" xlink:href="#hju2" />
          <path d="M 42.9,64 A 22.8,22.8 0 0 0 35.4,95 L 43.5,90 A 13.3,13.3 0 0 1 48,72 z" style="fill:#ffce09" />
          <path d="M 22.3,81 A 31,31 0 0 0 31.2,101.8 M 17,98.1 34,111.6" style="fill:none;stroke:#ffce09;stroke-width:1" />
          <path d="M 15.5,81 A 30,30 0 0 0 30.5,52" style="fill:none;stroke:#000000;stroke-width:9.2" />
          <path d="M 17.3,84.1 A 33.6,33.6 0 0 0 34.1,51.7 M 26.9,52.3 A 26.7,26.7 0 0 1 13.7,77.9" style="fill:none;stroke:#ffce09;stroke-width:1" />
          <path d="M 27.7,58.8 C 29.5,59.1 31.1,59.9 31.2,61.2 30.5,62.1 28.8,62 27.2,61.4 M 30.86,64.45 30.61,64.22 30.94,64.19 z" id="hju3" style="fill:none;stroke:#ffce09;stroke-width:1.8" />
          <use transform="matrix(0.978,0.207,-0.207,0.978,11.36,1.13)" xlink:href="#hju3" />
          <use transform="matrix(0.908,0.419,-0.419,0.908,23.3,4.6)" xlink:href="#hju3" />
          <use transform="matrix(0.803,0.6,-0.6,0.803,33.3,10.2)" xlink:href="#hju3" />
          <use transform="matrix(0.973,-0.229,0.229,0.973,-12.6,2.3)" xlink:href="#hju3" />
          <path d="M 35.5,49 C 41,56 43.5,64 44.5,73" style="fill:none;stroke:#000000;stroke-width:12.8" />
          <path d="M 43.5,65 A 21.5,21.5 0 0 0 36.5,94.3 L 42.5,90.7188 A 14.5,14.5 0 0 1 47.3,71 L 43.5,65 z" style="fill:#ffce09;stroke:#000000;stroke-width:0.5" />
          <path d="M 39.5,92.5 A 18,18 0 0 1 45.5,68" style="fill:none;stroke:#000000;stroke-width:4.5" />
          <path d="M 42.47,69.55 C 41.85,68.89 41.04,69.28 41.1,70.04 40.32,70.05 40.01,70.87 40.71,71.44 41.17,71.82 42.44,71.74 43.1,71.9 42.89,71.25 42.88,69.99 42.47,69.55 z" id="hju4" style="fill:#ffce09" />
          <use transform="matrix(0.966,-0.259,0.259,0.966,-19.7,17.1)" xlink:href="#hju4" />
          <use transform="matrix(0.866,-0.5,0.5,0.866,-34.2,38.6)" xlink:href="#hju4" />
          <use transform="matrix(0.707,-0.707,0.707,0.707,-42.7,63.2)" xlink:href="#hju4" />
          <use transform="matrix(0.5,-0.866,0.866,0.5,-44.6,89.1)" xlink:href="#hju4" />
          <path d="M 31.19,52.41 C 35.3,57.65 37.49,63.46 38.6,70.37 M 49.97,72.41 C 48.9,62.76 46.07,53.56 39.8,45.6 M 35.5,49 C 39.52,54.11 42.04,60.06 43.44,66.24" style="fill:none;stroke:#ffce09;stroke-width:1" />
          <path d="M 32.2,53.9 34,52.6 C 35.6,51.5 37.1,53.7 35.4,54.9 L 33.6,56" id="hju5" style="fill:none;stroke:#ffce09;stroke-width:1.8" />
          <use transform="matrix(0.991,0.134,-0.134,0.991,10.2,0.8)" xlink:href="#hju5" />
          <use transform="matrix(0.964,0.267,-0.267,0.964,20.3,3)" xlink:href="#hju5" />
          <path d="M 48.53,71.57 C 48.36,69.82 45.65,69.38 45.29,67.46 44.92,65.55 47.08,64.01 46.57,62.29 46.06,60.56 43.28,60.1 42.64,58.43 42.01,56.76 43.82,54.72 43,53.21 42.18,51.71 39.51,52.14 38.57,50.75 37.63,49.35 38.53,46.55 37.47,45.25" style="fill:none;stroke:#ffce09;stroke-width:1.2" />
          <use transform="translate(-26.96,0.82)" xlink:href="#hju6" />
          <use transform="translate(-25.96,5.42)" xlink:href="#hju6" />
          <use transform="translate(-22.64,8.98)" xlink:href="#hju6" />
          <use transform="translate(-22.64,14.18)" xlink:href="#hju6" />
          <use transform="translate(-19.87,18.35)" xlink:href="#hju6" />
          <path d="M 37,65.2 A 27,27 0 0 0 34.5,96.5" style="fill:none;stroke:#ffce09;stroke-width:1;stroke-linecap:round;stroke-dasharray:0.01,1.8;stroke-dashoffset:0.2" />
        </g>
        <use style="fill:none;stroke:#000000;stroke-width:0.5" xlink:href="#hju7" />
      </g>
      <use transform="matrix(-1,0,0,-1,100,155)" id="use3397" xlink:href="#hjg1" />
      <rect width="10" height="4" x="45" y="75.5" style="fill:#fa0000;stroke:#000000;stroke-width:0.5" />
      <rect width="3.5" height="4" x="48.25" y="75.5" style="fill:#ffce09;stroke:#000000;stroke-width:0.5" />
      <g id="hjg2">
        <path d="M 59,69 72.3,47.4 68,44 52,70 z" style="fill:#000000" />
        <path d="M 68.88,44.63 C 67.74,46.48 70.27,48.02 69.12,49.87 67.98,51.73 65.47,50.16 64.31,52.05 63.14,53.94 65.7,55.45 64.55,57.3 63.41,59.16 60.9,57.59 59.73,59.48 58.57,61.37 61.12,62.88 59.98,64.73 58.84,66.59 56.29,65.09 55.16,66.91 54.04,68.74 56.55,70.3 55.41,72.16" style="fill:none;stroke:#ffce09;stroke-width:1.2" />
        <circle cx="67.2" cy="48.7" r="1" id="hju6" style="fill:#ffce09" />
        <use transform="translate(-0.93,4.55)" xlink:href="#hju6" />
        <use transform="translate(-4.57,7.43)" xlink:href="#hju6" />
        <use transform="translate(-5.51,11.97)" xlink:href="#hju6" />
        <use transform="translate(-9.14,14.86)" xlink:href="#hju6" />
        <use transform="translate(-10.08,19.4)" xlink:href="#hju6" />
        <path d="M 66.5,43 50,70 51.5,70.9376 68,43.9376 z" style="fill:#fa0000;stroke:#000000;stroke-width:0.5" />
        <path d="M 70.07,40.05 C 72.54,39.9 72.85,43.78 71.22,45.54 69.47,47.41 66.63,47.42 64.53,43.95 61.88,39.59 61.23,33.47 61.25,25.36 L 64,26.92 C 63.96,32.12 65.83,40.49 67.82,42.47 67.73,41.1 68.84,40.13 70.07,40.05 z" style="fill:#ffce09" />
        <path d="M 64,26.92 C 63.95,32.93 66.5,43.06 68.78,42.97 69.68,42.94 69.32,41.68 70.15,41.76 70.95,41.83 70.97,43.56 69.99,44.41 68.97,45.3 67.32,44.99 66.19,43.14 63.82,39.24 62.64,34.23 62.66,26.12 M 67.82,42.47 C 67.73,41.1 68.84,40.13 70.07,40.05 72.54,39.9 72.85,43.78 71.22,45.54 69.47,47.41 66.63,47.42 64.53,43.95 61.88,39.59 61.23,33.47 61.25,25.36" style="fill:none;stroke:#000000;stroke-width:0.5" />
        <path d="M 59,69 45.0785,69 45,75.5 55,75.5 z" style="fill:#ffffff" />
        <path d="M 55.9,74 55,74 C 54,74 54,72.5 55,72.25 56,72 56,70.5 55,70.5 54.25,70.5 53.5,71.35 53,72.25 52.5,73.15 51.75,74 51,74 50,74 50,72.5 51,72.25 52,72 52,70.5 51,70.5 50.25,70.5 49.5,71.35 49,72.25 48.5,73.15 47.75,74 47,74 46,74 46,72.5 47,72.25 48,72 48,70.5 47,70.5 46.25,70.5 45.5,71.35 45,72.25" style="fill:none;stroke:#0022cc;stroke-width:0.8" />
        <path d="M 59,69 45.0785,69 45,75.5 55,75.5 z" style="fill:none;stroke:#000000;stroke-width:0.5;stroke-miterlimit:1" />
        <path d="M 36,17 41.5,25.5 C 47.8876,24.1039 57.4987,24.5 64,27.5 L 70.5,17 z" style="fill:#000000" />
        <path d="M 36.9688,17.1875 41.1875,23.75 C 48.7443,22.1382 56.3896,23.016 64.3125,25.6875 L 69.5625,17.1875 36.9688,17.1875 z" style="fill:#fa0000" />
        <path d="M 40,17 42.5,21.4 46,21 45,17 M 49,17 49.8,21 55,21.3 56,17 M 60,17 58.7,21.8 63.5,23 66.5,17" style="fill:none;stroke:#ffffff;stroke-width:1.4" />
      </g>
      <use transform="matrix(-1,0,0,-1,100,155)" id="use4029" xlink:href="#hjg2" />
    </g>
    <use id="use3638" style="fill:none" xlink:href="#pfl" />
  </g>
</svg>
