<?xml version="1.0" encoding="UTF-8" standalone="no"?>
<svg xmlns="http://www.w3.org/2000/svg" xmlns:xlink="http://www.w3.org/1999/xlink" version="1.1" viewBox="0 0 101 156" id="pad" >
  <defs>
    <clipPath id="cpf">
      <rect width="100" height="155" ry="8" x="0" y="0" id="card" style="fill:#ffffff;stroke:#000000;stroke-width:1" />
    </clipPath>
  <g id="sp">
    <path d="M 10.8,28 C 11.2,28.6 11.9,28.9 12.6,28.9 14,28.9 14.8,27.7 14.8,26.5 14.8,23.8 11.9,22.5 10.5,20 9.1,22.5 6.2,23.8 6.2,26.5 6.2,27.7 7,28.9 8.4,28.9 9.1,28.9 9.8,28.6 10.2,28 10.2,28.8 9.9,30.2 9,30.9 L 12,30.9 C 11.1,30.2 10.8,28.8 10.8,28 z" id="sp0" />
    <path d="M 10.01,21.12 C 10.64,20.38 10.65,21.29 10.32,21.53 10.16,21.65 10.02,21.81 9.84,22.02 8.66,23.34 7.7,24.07 7.17,25.28 7.03,25.59 6.62,25.42 6.88,24.84 7.27,23.93 8.86,22.48 10.01,21.12 z M 10.09,29.71 C 10.14,29.58 10.18,29.45 10.24,29.26 10.35,28.86 10.71,29.16 10.38,29.91 10.25,30.17 9.92,30.16 10.09,29.71 z" style="opacity:0.8;fill:white" />
  </g>
    <path d="M 7.30469,6.33594 13.2109,6.33594 13.2109,7.66406 8.74219,7.66406 8.74219,10.5312 C 8.96614,10.4479 9.1901,10.388 9.41406,10.3516 9.64323,10.3099 9.87239,10.2891 10.1016,10.2891 11.3099,10.2891 12.2682,10.6458 12.9766,11.3594 13.6849,12.0729 14.0391,13.0391 14.0391,14.2578 14.0391,15.487 13.6667,16.4557 12.9219,17.1641 12.1823,17.8724 11.1693,18.2266 9.88281,18.2266 9.26302,18.2266 8.69531,18.1849 8.17969,18.1016 7.66927,18.0182 7.21094,17.8932 6.80469,17.7266 L 6.80469,16.125 C 7.28385,16.3854 7.76562,16.5807 8.25,16.7109 8.73437,16.8359 9.22916,16.8984 9.73437,16.8984 10.6042,16.8984 11.2734,16.6693 11.7422,16.2109 12.2161,15.7526 12.4531,15.1016 12.4531,14.2578 12.4531,13.4245 12.2083,12.776 11.7187,12.3125 11.2344,11.849 10.5573,11.6172 9.6875,11.6172 9.26562,11.6172 8.85416,11.6667 8.45312,11.7656 8.05208,11.8594 7.66927,12.0026 7.30469,12.1953 L 7.30469,6.33594" id="t5" />
  </defs>
  <g transform="translate(0.5,0.5)" id="5_spade">
    <use xlink:href="#card" />
    <use xlink:href="#t5" />
    <use transform="translate(79,0)" xlink:href="#t5" />
    <use transform="matrix(-1,0,0,-1,21,155)" xlink:href="#t5" />
    <use transform="matrix(-1,0,0,-1,100,155)" xlink:href="#t5" />
    <use xlink:href="#sp0" />
    <use transform="translate(79,0)" xlink:href="#sp0" />
    <use transform="matrix(-1,0,0,-1,21,155)" xlink:href="#sp0" />
    <use transform="matrix(-1,0,0,-1,100,155)" xlink:href="#sp0" />
    <use transform="matrix(2,0,0,2,6,-23)" xlink:href="#sp" />
    <use transform="matrix(2,0,0,2,52,-23)" xlink:href="#sp" />
    <use transform="matrix(2,0,0,2,29,26.5)" xlink:href="#sp" />
    <use transform="matrix(-2,0,0,-2,48,178)" xlink:href="#sp" />
    <use transform="matrix(-2,0,0,-2,94,178)" xlink:href="#sp" />
  </g>
</svg>
