<?xml version="1.0" encoding="UTF-8" standalone="no"?>
<svg xmlns="http://www.w3.org/2000/svg" xmlns:xlink="http://www.w3.org/1999/xlink" version="1.1" viewBox="0 0 101 156" id="pad" >
  <defs>
    <clipPath id="cpf">
      <rect width="100" height="155" ry="8" x="0" y="0" id="card" style="fill:#ffffff;stroke:#000000;stroke-width:1" />
    </clipPath>
  <g id="sp">
    <path d="M 10.8,28 C 11.2,28.6 11.9,28.9 12.6,28.9 14,28.9 14.8,27.7 14.8,26.5 14.8,23.8 11.9,22.5 10.5,20 9.1,22.5 6.2,23.8 6.2,26.5 6.2,27.7 7,28.9 8.4,28.9 9.1,28.9 9.8,28.6 10.2,28 10.2,28.8 9.9,30.2 9,30.9 L 12,30.9 C 11.1,30.2 10.8,28.8 10.8,28 z" id="sp0" />
    <path d="M 10.01,21.12 C 10.64,20.38 10.65,21.29 10.32,21.53 10.16,21.65 10.02,21.81 9.84,22.02 8.66,23.34 7.7,24.07 7.17,25.28 7.03,25.59 6.62,25.42 6.88,24.84 7.27,23.93 8.86,22.48 10.01,21.12 z M 10.09,29.71 C 10.14,29.58 10.18,29.45 10.24,29.26 10.35,28.86 10.71,29.16 10.38,29.91 10.25,30.17 9.92,30.16 10.09,29.71 z" style="opacity:0.8;fill:white" />
  </g>
    <path d="M 6.53906,17.5234 6.53906,15.6797 C 7.01302,16.1016 7.5026,16.4193 8.00781,16.6328 8.51302,16.8411 9.03645,16.9453 9.57812,16.9453 10.3229,16.9453 10.8411,16.7526 11.1328,16.3672 11.4297,15.9766 11.5781,15.2526 11.5781,14.1953 L 11.5781,7.66406 8.60156,7.66406 8.60156,6.33594 13.1562,6.33594 13.1562,14.1953 C 13.1562,15.6641 12.8802,16.7031 12.3281,17.3125 11.7812,17.9219 10.8646,18.2266 9.57812,18.2266 9.07812,18.2266 8.58073,18.1693 8.08594,18.0547 7.59114,17.9401 7.07552,17.763 6.53906,17.5234" id="tJ" />
    <clipPath id="pfc">
      <rect width="63.5" height="120.5" x="18.25" y="17.25" id="pfl" style="fill:none;stroke:#000000;stroke-width:0.5" />
    </clipPath>
    <clipPath id="sjc1">
      <path d="M 18.1,48.1 A 34,34 0 0 1 43.5,81 L 43.5,87.3 A 4.7,4.7 0 0 0 47.45,92 L 38.6,108.7 18,93.7 z" id="sju3" />
    </clipPath>
    <clipPath id="sjc2">
      <path d="M 25.4,52 C 29,48 36,45 40,45 L 40,37 62,47.5 53,64 39,64 z" id="sju6" />
    </clipPath>
  </defs>
  <g transform="translate(0.5,0.5)" id="jack_spade">
    <use xlink:href="#card" />
    <use xlink:href="#tJ" />
    <use transform="translate(79,0)" xlink:href="#tJ" />
    <use transform="matrix(-1,0,0,-1,21,155)" xlink:href="#tJ" />
    <use transform="matrix(-1,0,0,-1,100,155)" xlink:href="#tJ" />
    <use xlink:href="#sp0" />
    <use transform="translate(79,0)" xlink:href="#sp0" />
    <use transform="matrix(-1,0,0,-1,21,155)" xlink:href="#sp0" />
    <use transform="matrix(-1,0,0,-1,100,155)" xlink:href="#sp0" />
    <g clip-path="url(#pfc)">
      <g clip-path="url(#sjc2)" id="sjg3">
        <use style="fill:#fa0000" xlink:href="#sju6" />
        <path d="M 39,48 58,48 49,37 z" id="path3818" style="fill:#fdf9ee" />
        <use transform="matrix(0.5,0,0,0.5,42.25,43.8)" id="use3682" style="fill:#ffffff" xlink:href="#sp0" />
        <path d="M 39,50 61,50" style="stroke:#000000;stroke-width:5.5" />
        <path d="M 39,50 61,50" style="stroke:#ffce09;stroke-width:4.5" />
        <path d="M 39,50 61,50" style="stroke:#000000;stroke-width:2.5" />
        <path d="M 39,50 61,50" style="stroke:#ffce09;stroke-width:2;stroke-linecap:round;stroke-dasharray:0, 3.1;stroke-dashoffset:0.2" />
        <path d="M 35,45 35,62" style="fill:none;stroke:#000000;stroke-width:10.5" />
        <path d="M 35,45 35,62" style="fill:none;stroke:#ffffff;stroke-width:6.5" />
        <path d="M 35,45 35,62" style="fill:none;stroke:#0022cc;stroke-width:4.5" />
        <path d="M 33.9,40.5 C 33.9,43.5 36.3,44.5 36.3,47.5 36.3,48.5 36,49.3 35.6,50 M 34.4,45 C 34,45.7 33.7,46.5 33.7,47.5 33.7,50.5 36.3,51.5 36.3,54.5 36.3,55.5 36,56.3 35.6,57 M 34.4,52 C 34,52.7 33.7,53.5 33.7,54.5 33.7,57.5 36.3,58.5 36.3,61.5" style="fill:none;stroke:#ffffff;stroke-width:0.8;stroke-linecap:round" />
      </g>
      <use style="fill:none;stroke:#000000;stroke-width:0.5" xlink:href="#sju6" />
      <use transform="matrix(-1,0,0,-1,100,155)" xlink:href="#sjg3" />
      <use transform="matrix(-1,0,0,-1,100,155)" style="fill:none;stroke:#000000;stroke-width:0.5" xlink:href="#sju6" />
      <g id="sjg1">
        <path d="M 49.2,65.6 A 1.9,1.9 0 1 0 45.4,65.6 L 44.7,64.6 A 1.9,1.9 0 1 0 40.9,64.6 L 40.2,64.4 A 1.9,1.9 0 1 0 36.4,64.4 L 42,77 53.7,77 53.7,67.7 A 1.9,1.9 0 1 0 49.9,67.7 z" style="stroke:#000000;stroke-width:6.1" />
        <path d="M 36.4,73.7 40.2,73.7 40.2,64.4 A 1.9,1.9 0 1 0 36.4,64.4 z M 40.9,73.7 44.7,73.7 44.7,64.6 A 1.9,1.9 0 1 0 40.9,64.6 z M 49.9,73.7 53.7,73.7 53.7,67.7 A 1.9,1.9 0 1 0 49.9,67.7 z M 45.4,73.7 49.2,73.7 49.2,65.6 A 1.9,1.9 0 1 0 45.4,65.6 z M 43.7,64.7 C 43.65,64.1 43.3,63.7 42.8,63.7 A 0.95,0.9 0 1 0 42.8,65.5 C 43.3,68 41.5,68.9 42.8,71.5 42.8,69.5 43.5,68.2 43.7,66.6 43.8,66 43.75,65.2 43.7,64.7 z M 48.2,65.7 C 48.15,65.1 47.8,64.7 47.3,64.7 A 0.95,0.9 0 1 0 47.3,66.5 C 47.8,68.5 46,69.4 47.3,72 47.3,70 48,68.7 48.2,67.1 48.25,66.6 48.25,66.2 48.2,65.7 z M 52.7,67.8 C 52.65,67.2 52.3,66.8 51.8,66.8 A 0.95,0.9 0 0 0 51.8,68.6 C 52.5,70.1 50.7,70.7 51.8,72.5 51.8,71 52.5,70.8 52.7,69.2 52.75,68.7 52.75,68.3 52.7,67.8 z" style="fill:#fa0000;fill-rule:evenodd" />
        <path d="M 76.85,28.3 A 2,2 0 1 0 74.4,28.5 6,6 0 0 0 78,29.8 L 73,29.8 C 74.7,29.8 75.5,31.4 75.5,32.6 L 75.5,38.2 C 75.5,39.4 76.3,41 78,41 L 73,41 A 6,6 0 0 1 76.6,42.3 2,2 0 1 1 74.15,42.5 M 78,29.8 C 76.3,29.8 75.5,31.4 75.5,32.6 L 75.5,38.2 C 75.5,39.4 74.7,41 73,41 M 72,34.1 79,34.1" id="sju7" style="fill:none;stroke-linecap:round;stroke-linejoin:round" />
        <use style="stroke:#000000;stroke-width:2" xlink:href="#sju7" />
        <use style="stroke:#ffce09;stroke-width:1" xlink:href="#sju7" />
        <path d="M 78.8,46.21 C 79.43,46.71 79.48,48.04 78.63,48.42 L 78.57,48.46 C 79.71,48.95 79.48,51.09 78.6,51.32 79.69,51.94 79.23,53.29 78.35,53.48 L 78.03,53.55 C 78.99,54.18 78.61,55.33 77.75,55.45 L 75.57,55.76 C 75.09,57.12 74.25,57.49 73.19,57.62 L 68.72,51.87 C 69.71,48.96 73.06,46.61 75.39,46.87 L 77.97,46.06 C 78.29,45.96 78.58,46.05 78.8,46.21 z" style="fill:#fdf9ee" />
        <path d="M 75.58,55.75 C 75.1,57.11 74.26,57.49 73.2,57.63 L 68.72,51.87 C 70.04,48.87 73.06,46.61 75.39,46.87 77.1,47.06 77.33,48.74 76.58,49.31 75.85,49.86 74.83,49.99 74.28,49.35 74.54,51.31 73.32,53.43 71.54,53.74 M 77.94,53.48 C 79.02,54.09 78.63,55.3 77.73,55.43 L 75.58,55.75 C 74.81,55.85 74.32,54.63 75.06,54.01 M 78.6,51.31 C 79.69,51.93 79.23,53.29 78.35,53.48 L 75.59,54.05 C 74.56,54.27 74.32,52.65 75.18,51.95 M 78.57,48.47 C 79.71,48.95 79.48,51.08 78.6,51.31 L 75.95,52.04 C 74.93,52.31 74.17,50.88 75.17,49.8 M 75.39,46.87 77.98,46.07 C 79.28,45.67 79.77,47.93 78.62,48.43 L 76.58,49.31" style="fill:none;stroke:#000000;stroke-width:0.5" />
      </g>
      <use transform="matrix(-1,0,0,-1,100,155)" xlink:href="#sjg1" />
      <g clip-path="url(#sjc1)" id="sjg2">
        <use style="fill:#0022cc" xlink:href="#sju3" />
        <path d="M 44.48,82.32 A 24.5,24.5 0 0 1 28.59,51.76 L 52,59 z" style="fill:#000000" />
        <path d="M 44.79,81.37 A 23.5,23.5 0 0 1 29.55,52.06" style="fill:none;stroke:#ffce09;stroke-width:1" />
        <path d="M 43.75,75.56 A 18.5,18.5 0 0 1 33.7,56.27" style="fill:none;stroke:#ffce09;stroke-width:2.5" />
        <path d="M 43.75,75.56 A 18.5,18.5 0 0 1 33.7,56.27" style="fill:none;stroke:#000000;stroke-width:0.5" />
        <circle cx="41.65" cy="70.9" r="1.1" style="fill:#ffce09" />
        <circle cx="39.6" cy="68.8" r="1.1" style="fill:#ffce09" />
        <circle cx="38" cy="66.3" r="1.1" style="fill:#ffce09" />
        <circle cx="36.9" cy="63.6" r="1.1" style="fill:#ffce09" />
        <circle cx="36.25" cy="60.7" r="1.1" style="fill:#ffce09" />
        <g id="sju1">
          <circle cx="33.05" cy="68.9" r="1.1" style="fill:none;stroke:#ffce09;stroke-width:0.4" />
          <circle cx="33.05" cy="68.9" r="0.5" style="fill:#ffce09" />
        </g>
        <use transform="translate(-2.08,-5.96)" xlink:href="#sju1" />
        <use transform="translate(-2.44,-9.12)" xlink:href="#sju1" />
        <use transform="translate(-2.32,-12.29)" xlink:href="#sju1" />
        <use transform="translate(-1.27,-2.9)" xlink:href="#sju1" />
        <use transform="translate(8.76,8.92)" xlink:href="#sju1" />
        <use transform="translate(1.66,2.71)" xlink:href="#sju1" />
        <use transform="translate(3.71,5.13)" xlink:href="#sju1" />
        <use transform="translate(6.1,7.21)" xlink:href="#sju1" />
        <path d="M 26.07,51.95 C 27.39,52.49 28.08,54.1 27.35,54.59 26.61,55.06 25.62,53.64 26.07,51.95 z M 25.15,57.96 C 26.54,57.72 27.6,56.49 27.09,55.9 26.57,55.32 25.19,56.16 25.15,57.96 z M 25.9,54.9 A 0.8,0.8 0 0 1 24.3,54.9 0.8,0.8 0 1 1 25.9,54.9 z" id="sju2" style="fill:#fa0000;stroke:#000000;stroke-width:0.4;stroke-linejoin:round" />
        <use transform="matrix(0.968,-0.252,0.252,0.968,-13.19,15.01)" xlink:href="#sju2" />
        <use transform="matrix(0.873,-0.488,0.488,0.873,-22.18,32.87)" xlink:href="#sju2" />
        <use transform="matrix(0.722,-0.692,0.692,0.722,-26.37,52.41)" xlink:href="#sju2" />
        <use transform="matrix(0.524,-0.852,0.852,0.524,-25.5,72.38)" xlink:href="#sju2" />
        <use transform="matrix(0.292,-0.956,0.956,0.292,-19.63,91.48)" xlink:href="#sju2" />
        <path d="M 15.7,70.4 A 29.5,29.5 0 0 1 30.25,99.9" style="fill:none;stroke:#ffffff;stroke-width:4;stroke-dasharray:1, 2" />
        <path d="M 17.42,68.53 A 32,32 0 0 1 33,96 L 38.8,85" style="fill:none;stroke:#000000;stroke-width:2;stroke-miterlimit:6" />
        <path d="M 17.42,68.53 A 32,32 0 0 1 33,96 L 38.8,85" style="fill:none;stroke:#ffce09;stroke-width:1;stroke-miterlimit:6" />
        <path d="M 17.28,74.46 A 27,27 0 0 1 28,96" style="fill:none;stroke:#000000;stroke-width:2" />
        <path d="M 17.28,74.46 A 27,27 0 0 1 28,96" style="fill:none;stroke:#ffce09;stroke-width:1" />
        <path d="M 32.3,108.8 43.8,86.8 A 29,29 0 0 1 24.4,50.1" style="fill:none;stroke:#ffffff;stroke-width:1" />
        <g id="sju5" style="fill:#ffffff">
          <circle cx="35.1" cy="96.4" r="0.8" />
          <circle cx="37.1" cy="96.2" r="0.8" />
          <circle cx="35.9" cy="98.4" r="0.8" />
        </g>
        <use transform="translate(2.15,-4.1)" xlink:href="#sju5" />
        <use transform="translate(4.3,-8.2)" xlink:href="#sju5" />
        <path d="M 1,96 23.36,88.61 A 0.985,0.985 0 0 1 23.86,90.49 z M 1,96 18.95,80.72 A 0.985,0.986 0 0 1 20.14,82.29 z M 1,96 20.77,83.177 A 0.985,0.985 0 0 1 21.717,84.9 z M 1,96 22.24,85.84 A 0.985,0.985 0 0 1 22.99,87.62 z" style="fill:none;stroke:#000000;stroke-width:1.7" />
        <path d="M 1,96 23.36,88.61 A 0.985,0.985 0 0 1 23.86,90.49 z M 1,96 18.95,80.72 A 0.985,0.986 0 0 1 20.14,82.29 z M 1,96 20.77,83.177 A 0.985,0.985 0 0 1 21.717,84.9 z M 1,96 22.24,85.84 A 0.985,0.985 0 0 1 22.99,87.62 z" style="fill:none;stroke:#ffce09;stroke-width:0.7" />
        <path d="M 16.4,89.2 38,104.9" style="fill:none;stroke:#000000;stroke-width:6" />
        <path d="M 16.4,89.2 38,104.9" style="fill:none;stroke:#fa0000;stroke-width:5" />
        <path d="M 16.4,89.2 38,104.9" style="fill:none;stroke:#000000;stroke-width:2.5" />
        <path d="M 48,85.7 36.5,107.7" style="fill:none;stroke:#000000;stroke-width:5.5" />
        <path d="M 47.8,85.1 36.3,107.1" style="fill:none;stroke:#ffce09;stroke-width:3.5" />
        <path d="M 47.4,85.1 35.9,107.1" style="fill:none;stroke:#000000;stroke-width:1" />
      </g>
      <use style="fill:none;stroke:#000000;stroke-width:0.5" xlink:href="#sju3" />
      <use transform="matrix(-1,0,0,-1,100,155)" xlink:href="#sjg2" />
      <use transform="matrix(-1,0,0,-1,100,155)" style="fill:none;stroke:#000000;stroke-width:0.5" xlink:href="#sju3" />
      <g id="sjg4">
        <path d="M 62.07,31.65 C 62.02,32.67 62.46,34.11 63.16,35 64.77,37.02 63.98,38.7 62.77,38.48 62.57,39.53 62.63,41.62 62,41.83 62.38,42.07 62.27,42.74 62,43.2 61.07,44.81 62.89,46.35 60.34,47.26 56.02,48.79 51.26,45.38 49.14,42.16 L 49.2,23.1 62.6,26.7 C 62.79,28.5 62.15,29.96 62.07,31.65 z" style="fill:#fdf9ee;stroke:#000000;stroke-width:0.5" />
        <path d="M 62.15,41.63 C 60.9,41.34 59.72,42.07 58.68,42.36 L 62.15,42.1 M 59.69,36.97 C 59.4,38.55 61.15,38.9 62.01,37.75 62.04,38.13 62.38,38.42 62.77,38.48 M 57.01,39.58 C 56.49,38.57 55.19,39.31 55.44,40.35 55.65,41.27 57.06,41.64 58,41.13 58.92,40.63 59.96,39.6 60.74,39.6 61.7,39.6 61.5,40.39 60.81,40.4 59.66,40.42 58.9,40.49 58,41.13 M 54.52,30.04 C 56.55,28.05 59.15,27.48 61,28.54 M 58,35.68 59.97,32.98 C 58.23,32.9 56.66,32.89 55.13,32.44 56.63,31.27 58.11,30.68 60.32,30.79" style="fill:none;stroke:#000000;stroke-width:0.5;stroke-linejoin:round" />
        <path d="M 59.7,30.6 59.3,32.9 58.4,32.9 58.5,30.7 M 59.7,42.2 61.3,41.5 62.2,42.1 M 59.4,40.4 60.7,39.6 61.34,39.9 60.8,40.4" style="fill:#000000" />
        <path d="M 42.3,27.5 C 41.4,32.1 37.5,35.7 38.5,39 L 37.8,41.7 C 37.4,41.7 36.9,41.8 36.5,42.2 34.3,44.4 36.9,47.1 39,46.2 39.7,46.6 40.5,46.9 41.6,46.4 42.2,46.9 43.1,47.1 44,46.7 48,49.2 49.4,43.7 49.1,40.8 50.7,41.4 52.8,40.2 52.1,37.8 51.4,35.7 48.6,36.7 49.4,38.8 48.4,35.5 52.4,30 53.3,25.4" style="fill:#ffce09;stroke:#000000;stroke-width:0.5" />
        <path d="M 45.5,45 C 46.9,45.9 47.9,41.8 47.5,39.2 M 43.1,39.2 43,42.2 M 44,44.1 C 44.6,43.2 44.6,41.5 44.6,40.3 M 39.2,43.2 39.8,40.6 M 37.3,43.7 C 37.2,44.4 38.1,44.7 38.6,44.3 39.8,43.2 38.9,41.8 37.8,41.7 M 39,46.2 C 39.3,46.1 39.6,45.8 39.9,45.5 41,44.3 41.4,42.6 41.3,40.8 M 42.3,44.3 C 42.2,45 43,45.3 43.5,44.9 45.1,43.4 43.1,41.3 41.6,42.8 39.1,45.3 42.5,48.4 44.8,46.1 46.1,44.7 46.4,42.6 46.1,40.3 M 50.7,38.8 C 50.5,39.4 49.7,39.4 49.4,38.8 M 49.1,40.8 C 48.5,40.6 48,40.1 47.7,39.2 46.7,35.9 50.1,30.3 51,25.7 M 40.5,36.8 C 41.5,33.8 44,30.4 44.6,27.1 M 45.1,36.3 C 46.1,33.3 48.4,29.5 49,26.2 M 46,38.2 C 45.8,38.8 45,38.8 44.7,38.2 43.9,36.1 46.6,35.1 47.3,37.2 48.3,40.5 44,41.7 43.1,38.6 42.1,35.3 46.1,31.2 47,26.6 M 41.5,38.6 C 41.3,39.2 40.5,39.2 40.2,38.6 39.4,36.5 42.2,35.5 42.9,37.6 43.9,40.9 39.4,42.1 38.5,39" style="fill:none;stroke:#000000;stroke-width:0.5" />
        <path d="M 36.2,17 41.8,28 C 49.2,25.7 55.8,25.4 62.8,27 L 68.8,17" style="fill:#000000" />
        <path d="M 36.9,17 41.8,26.8 C 49.2,24.5 55.9,24.2 62.9,25.8 L 68.2,17" style="fill:#fa0000" />
        <path d="M 58.4,17 57.4,23 61.5,23.4 64.6,17 M 48.2,17 49.2,23.1 55,22.9 55.7,17 M 40,17 43,24.4 47,23.4 45.7,17" style="fill:none;stroke:#000000" />
      </g>
      <use transform="matrix(-1,0,0,-1,100,155)" xlink:href="#sjg4" />
      <path d="M 45.3,75.9 C 45.3,77.1 45.9,77.5 47.4,77.5 L 52.6,77.5 C 54.1,77.5 54.7,77.1 54.7,75.9 L 54.7,79.1 C 54.7,77.9 54.1,77.5 52.6,77.5 L 47.4,77.5 C 45.9,77.5 45.3,77.9 45.3,79.1 z" style="fill:#ffce09;stroke:#ffce09;stroke-width:1" />
      <rect width="6" height="4" x="47" y="75.5" style="fill:#ffce09" />
    </g>
    <use xlink:href="#pfl" />
    <use transform="matrix(2,0,0,2,8,-21)" xlink:href="#sp" />
    <use transform="matrix(-2,0,0,-2,92,176)" xlink:href="#sp" />
  </g>
</svg>
