<?xml version="1.0" encoding="UTF-8" standalone="no"?>
<svg xmlns="http://www.w3.org/2000/svg" xmlns:xlink="http://www.w3.org/1999/xlink" version="1.1" viewBox="0 0 101 156" id="pad" >
  <defs>
    <clipPath id="cpf">
      <rect width="100" height="155" ry="8" x="0" y="0" id="card" style="fill:#ffffff;stroke:#000000;stroke-width:1" />
    </clipPath>
  <g id="ht">
    <path d="M 14.8,24.1 C 15,21.1 12.2,20 10.5,21.9 8.7,20 6,21.1 6.2,24.1 6.333,26.1 9.4,29 10.5,31 11.6,29 14.667,26.1 14.8,24.1 z" id="ht0" />
    <path d="M 7.14,22.55 C 6.99,22.81 6.3,23.11 6.81,22.23 7.3,21.41 8.06,21.06 9,21.31 9.46,21.43 9.11,21.76 8.81,21.7 8.12,21.57 7.54,21.88 7.14,22.55 z M 10.6,22.36 C 11.19,22.35 11.84,21.51 12.77,21.71 13.01,21.76 13.45,21.41 12.89,21.25 12.19,21.05 11.21,21.42 10.64,22.02 10.49,22.21 10.44,22.37 10.6,22.36 z" style="opacity:0.8;fill:white" />
  </g>
    <path d="M 11.75,11.7578 C 12.5156,11.9609 13.1016,12.3229 13.5078,12.8437 13.9141,13.3594 14.1172,14.0052 14.1172,14.7812 14.1172,15.8542 13.7552,16.6979 13.0312,17.3125 12.3125,17.9219 11.3151,18.2266 10.0391,18.2266 9.5026,18.2266 8.95573,18.1771 8.39844,18.0781 7.84114,17.9792 7.29427,17.8359 6.75781,17.6484 L 6.75781,16.0781 C 7.28906,16.3542 7.8125,16.5599 8.32812,16.6953 8.84375,16.8307 9.35677,16.8984 9.86719,16.8984 10.7318,16.8984 11.3958,16.7031 11.8594,16.3125 12.3229,15.9219 12.5547,15.3594 12.5547,14.625 12.5547,13.9479 12.3229,13.4115 11.8594,13.0156 11.3958,12.6146 10.7682,12.4141 9.97656,12.4141 L 8.77344,12.4141 8.77344,11.1172 9.97656,11.1172 C 10.7005,11.1172 11.2656,10.9583 11.6719,10.6406 12.0781,10.3229 12.2812,9.88022 12.2812,9.3125 12.2812,8.71355 12.0911,8.25522 11.7109,7.9375 11.3359,7.61459 10.7995,7.45314 10.1016,7.45312 9.63802,7.45314 9.15885,7.50522 8.66406,7.60937 8.16927,7.71355 7.65104,7.8698 7.10937,8.07812 L 7.10937,6.625 C 7.73958,6.45834 8.29948,6.33334 8.78906,6.25 9.28385,6.16668 9.72135,6.12501 10.1016,6.125 11.237,6.12501 12.1432,6.41147 12.8203,6.98437 13.5026,7.55209 13.8437,8.3073 13.8437,9.25 13.8437,9.89063 13.6641,10.4245 13.3047,10.8516 12.9505,11.2787 12.4323,11.5807 11.75,11.7578" id="t3" />
  </defs>
  <g transform="translate(0.5,0.5)" id="3_heart" style="fill:#fa0000">
    <use xlink:href="#card" />
    <use xlink:href="#t3" />
    <use transform="translate(79,0)" xlink:href="#t3" />
    <use transform="matrix(-1,0,0,-1,21,155)" xlink:href="#t3" />
    <use transform="matrix(-1,0,0,-1,100,155)" xlink:href="#t3" />
    <use xlink:href="#ht0" />
    <use transform="translate(79,0)" xlink:href="#ht0" />
    <use transform="matrix(-1,0,0,-1,21,155)" xlink:href="#ht0" />
    <use transform="matrix(-1,0,0,-1,100,155)" xlink:href="#ht0" />
    <use transform="matrix(2,0,0,2,29,-23)" xlink:href="#ht" />
    <use transform="matrix(2,0,0,2,29,26.5)" xlink:href="#ht" />
    <use transform="matrix(-2,0,0,-2,71,178)" xlink:href="#ht" />
  </g>
</svg>
