<?xml version="1.0" encoding="UTF-8" standalone="no"?>
<svg xmlns="http://www.w3.org/2000/svg" xmlns:xlink="http://www.w3.org/1999/xlink" version="1.1" viewBox="0 0 101 156" id="pad" >
  <defs>
    <clipPath id="cpf">
      <rect width="100" height="155" ry="8" x="0" y="0" id="card" style="fill:#ffffff;stroke:#000000;stroke-width:1" />
    </clipPath>
  <g id="ht">
    <path d="M 14.8,24.1 C 15,21.1 12.2,20 10.5,21.9 8.7,20 6,21.1 6.2,24.1 6.333,26.1 9.4,29 10.5,31 11.6,29 14.667,26.1 14.8,24.1 z" id="ht0" />
    <path d="M 7.14,22.55 C 6.99,22.81 6.3,23.11 6.81,22.23 7.3,21.41 8.06,21.06 9,21.31 9.46,21.43 9.11,21.76 8.81,21.7 8.12,21.57 7.54,21.88 7.14,22.55 z M 10.6,22.36 C 11.19,22.35 11.84,21.51 12.77,21.71 13.01,21.76 13.45,21.41 12.89,21.25 12.19,21.05 11.21,21.42 10.64,22.02 10.49,22.21 10.44,22.37 10.6,22.36 z" style="opacity:0.8;fill:white" />
  </g>
    <path d="M 10.8047,18.2109 C 10.7682,18.2109 10.7161,18.2135 10.6484,18.2188 10.5807,18.224 10.526,18.2266 10.4844,18.2266 9.18229,18.2266 8.20833,17.7266 7.5625,16.7266 6.92187,15.7266 6.60156,14.2109 6.60156,12.1797 6.60156,10.1432 6.92187,8.62501 7.5625,7.625 8.20833,6.62501 9.1875,6.12501 10.5,6.125 11.8177,6.12501 12.7969,6.62501 13.4375,7.625 14.0833,8.62501 14.4062,10.1432 14.4062,12.1797 14.4062,13.7109 14.2266,14.9453 13.8672,15.8828 13.513,16.8151 12.974,17.4688 12.25,17.8438 L 13.8125,19.3281 12.6328,20.1094 10.8047,18.2109 M 12.7578,12.1797 C 12.7578,10.4662 12.5807,9.2422 12.2266,8.50781 11.8776,7.77345 11.3021,7.40626 10.5,7.40625 9.70312,7.40626 9.1276,7.77345 8.77344,8.50781 8.42448,9.2422 8.25,10.4662 8.25,12.1797 8.25,13.888 8.42448,15.1094 8.77344,15.8437 9.1276,16.5781 9.70312,16.9453 10.5,16.9453 11.3021,16.9453 11.8776,16.5807 12.2266,15.8516 12.5807,15.1172 12.7578,13.8932 12.7578,12.1797" id="tQ" />
    <clipPath id="pfc">
      <rect width="63.5" height="120.5" x="18.25" y="17.25" id="pfl" style="fill:none;stroke:#000000;stroke-width:0.5" />
    </clipPath>
    <clipPath id="hqc2">
      <path d="M 29.5,101.5 18,89 18,61 C 26.5,51 36.6,43.85 47.3,39.4 L 65.5,40 71,53.5 62.5,57 62.5,68 58,77.1 C 53.3,77.1 51.8,72 45,70.3 L 45,79" id="path3322" style="fill:none;stroke:#000000;stroke-width:0.5" />
    </clipPath>
  </defs>
  <g transform="translate(0.5,0.5)" id="queen_heart" style="fill:#fa0000">
    <use xlink:href="#card" />
    <use xlink:href="#tQ" />
    <use transform="translate(79,0)" xlink:href="#tQ" />
    <use transform="matrix(-1,0,0,-1,21,155)" xlink:href="#tQ" />
    <use transform="matrix(-1,0,0,-1,100,155)" xlink:href="#tQ" />
    <use xlink:href="#ht0" />
    <use transform="translate(79,0)" xlink:href="#ht0" />
    <use transform="matrix(-1,0,0,-1,21,155)" xlink:href="#ht0" />
    <use transform="matrix(-1,0,0,-1,100,155)" xlink:href="#ht0" />
    <use transform="matrix(2,0,0,2,8,-21)" xlink:href="#ht" />
    <use transform="matrix(-2,0,0,-2,92,176)" xlink:href="#ht" />
    <g clip-path="url(#pfc)">
      <rect width="34" height="42" x="33" y="57" />
      <path d="M 37.5,99 29.5,101.5 18,89 18,61 C 21,57 26,53 30,49.5 L 39,57 32,65 32,81 37.5,81 z M 62.5,56 70.5,53.5 82,66 82,94 C 78,98 74,103 70,105.5 L 61,98 68,90 68,74 62.5,74 z" style="fill:#000000" />
      <path d="M 40,74 C 50,73 50,82 60,81" style="fill:none;stroke:#000000;stroke-width:8" />
      <path d="M 40,74 C 50,73 50,82 60,81" style="fill:none;stroke:#ffffff;stroke-width:7" />
      <path d="M 40,74 C 50,73 50,82 60,81" style="fill:none;stroke:#0022cc;stroke-width:3.6" />
      <path d="M 40,74 C 50,73 50,82 60,81" style="fill:none;stroke:#ffce09;stroke-width:2.2" />
      <g id="hqg1">
        <path d="M 39.2,46 A 26.8,26.8 0 0 1 47.5,26.5 L 66,46 z" style="fill:#f9f9ff;stroke:#000000;stroke-width:4.6" />
        <path d="M 43.2,46 A 22.8,22.8 0 0 1 46.1,34.9 M 45,46 A 21,21 0 0 1 46.8,37.4" style="fill:none;stroke:#000000;stroke-width:0.5" />
        <path d="M 40.8,42.5 47.4,39.4 60.6,36.7 65.1,39 65,46 41,46 z" style="fill:#fdf9ee;fill-opacity:1" />
        <path d="M 45,17 C 44,28 45,38 49,42 52.51,45.83 58,40.5 60.59,36.68 L 60,17" style="fill:#fdf9ee;fill-opacity:1;stroke:#000000;stroke-width:0.5" />
        <path d="M 48.58,37.32 C 50.43,38.19 52.45,38.17 54.42,37.43 52.99,37.54 52.21,36.61 51.56,37.37 50.86,36.59 50.13,37.45 48.58,37.32 z M 54.23,27.69 54.74,26.18 53.27,26.28 53.61,27.56 M 47.76,27.41 47.45,26.19 48.83,26.18 48.17,27.44" style="fill:#000000;stroke:#000000;stroke-width:0.5;stroke-linejoin:round" />
        <path d="M 45.53,26.94 C 47.34,27.65 48.97,27.84 50.16,26.84 49.07,25.7 47.43,25.48 45.53,26.94 z M 52.23,26.82 C 53.25,27.76 55.54,27.95 57.26,27.39 55.68,25.82 53.52,25.4 52.23,26.82 z M 47.99,29.97 C 48.77,29.62 49.63,29.31 50.45,28.18 M 55.09,30.12 C 53.91,29.75 52.98,29.06 52.18,28.26 M 50.09,40.55 C 50.99,39.8 52.16,39.87 52.61,40.55 M 51.94,25.35 C 53.4,23.95 55.88,24.22 57.95,26.17 M 45.32,25.39 C 46.69,24.54 49.35,23.91 50.28,25.47 50.5,25.83 50.58,26.8 50.51,27.49 50.27,30.17 49.38,32.38 49.39,33.53 49.58,35.33 50.99,34.31 51.21,33.92 51.65,34.49 53.59,35.09 53.34,33.3" style="fill:none;stroke:#000000;stroke-width:0.5;stroke-linejoin:round" />
      </g>
      <use transform="matrix(-1,0,0,-1,100,155)" xlink:href="#hqg1" />
      <g clip-path="url(#hqc2)" id="hqg2">
        <path d="M 37.6,66.2 33.4,71.2 A 5.3,5.3 0 0 1 31.15,80.8 L 32.8,87.2 A 11.9,11.9 0 0 0 37.6,66.2 z" style="fill:#ffffff;stroke:#000000;stroke-width:0.5" />
        <path d="M 35.9,68.6 A 8.95,8.95 0 0 1 32.3,84.3" style="fill:none;stroke:#0022cc;stroke-width:5.4" />
        <path d="M 35.5,68.8 A 8.6,8.6 0 0 1 32,84" style="fill:none;stroke:#ffffff;stroke-width:3;stroke-dasharray:2.2, 1.6;stroke-dashoffset:2.5" />
        <path d="M 28,77.5 C 28,85 27,90 23,95 L 28,100 C 33.5,93.5 34.5,86 34.5,77.5 34.5,68.5 39.5,62.6 47,60 L 38,56.5 C 32,60.8 28,68 28,77.5 z" style="fill:#ffffff;stroke:#000000;stroke-width:0.5" />
        <path d="M 24,96 24.87,94.81 26.01,95.8 25.08,97.08 26.31,98.31 C 27.22,97.12 28.03,95.92 28.87,94.58 L 26.22,92.76 C 26.88,91.6 27.36,90.38 27.79,89.22 L 29.15,89.76 28.39,91.72 29.88,92.52 C 30.52,91.09 30.95,89.63 31.3,88.22 L 28.34,87.32 C 28.68,85.99 28.87,84.65 29.02,83.38 L 30.42,83.6 30.14,85.68 31.73,86.02 C 31.98,84.54 32.08,83.06 32.17,81.66 L 29.19,81.37 C 29.26,79.98 29.27,78.6 29.31,77.31 L 30.71,77.31 30.65,79.41 32.25,79.48 C 32.26,78.05 32.35,76.67 32.42,75.35 L 29.43,75.08 C 29.49,73.55 29.79,72.07 30.11,70.69 L 31.47,71.06 31.04,73.12 32.63,73.4 C 32.84,72.07 33.23,70.8 33.62,69.62 L 30.75,68.55 C 31.25,67.06 31.93,65.69 32.64,64.42 L 33.86,65.24 32.88,67.1 34.35,67.86 C 34.89,66.65 35.63,65.57 36.34,64.57 L 33.88,62.55 C 34.79,61.3 35.86,60.24 36.91,59.28 L 37.89,60.42 36.38,61.88 37.59,63.09 C 38.5,62.09 39.55,61.27 40.56,60.5 L 38.64,57.89 41.38,56.1" style="fill:none;stroke:#0022cc;stroke-width:1" />
        <path d="M 27.23,99.23 C 32.95,92.51 33.51,84.43 33.51,77.5 33.51,68.8 37.77,62.65 45.04,59.46" style="fill:none;stroke:#0022cc;stroke-width:0.5" />
        <path d="M 73,44 A 24.9,24.9 0 0 1 35,44" style="fill:none;stroke:#000000;stroke-width:17" />
        <path d="M 66.1,40.9 A 17.8,17.8 0 0 1 41.8,40.8" style="fill:none;stroke:#ffce09;stroke-width:1.8" />
        <path d="M 66.1,40.9 A 17.8,17.8 0 0 1 41.8,40.8" style="fill:none;stroke:#000000;stroke-width:1;stroke-linecap:round;stroke-dasharray:0.01, 2;stroke-dashoffset:-0.2" />
        <path d="M 67.7,41.9 A 19.6,19.6 0 0 1 40.3,41.9" style="fill:none;stroke:#ffce09;stroke-width:1" />
        <path d="M 68,43.6 A 21,21 0 0 1 39,42.7" style="fill:none;stroke:#ffce09;stroke-width:1" />
        <path d="M 63.5,57.4 A 30.9,30.9 0 0 1 30.4,47.9" style="fill:none;stroke:#fa0000;stroke-width:1" />
        <path d="M 63,59.1 A 32.3,32.3 0 0 1 29.5,49.1" style="fill:none;stroke:#ffffff;stroke-width:1" />
        <path d="M 40.66,45.37 38.66,47.99 A 25.2,25.2 0 0 0 41.59,49.92 L 43.21,47.06 A 21.9,21.9 0 0 1 40.66,45.37 z M 36.03,45.65 33.67,47.98 A 28.5,28.5 0 0 0 36.65,50.6 L 38.64,47.99 A 25.2,25.2 0 0 1 36.03,45.65 z M 40.2,50.4 A 1,1 0 0 1 38.2,50.4 1,1 0 0 1 40.2,50.4 z M 39.3,45.6 A 1,1 0 0 1 37.3,45.6 1,1 0 0 1 39.3,45.6 z M 37.1,48 A 0.9,0.9 0 0 1 35.3,48 0.9,0.9 0 0 1 37.1,48 z M 41.9,47.6 A 0.9,0.9 0 0 1 40.1,47.6 0.9,0.9 0 0 1 41.9,47.6 z" id="hqu1" style="fill:#ffce09" />
        <use transform="matrix(0.961,-0.276,0.276,0.961,-5.63,15.97)" xlink:href="#hqu1" />
        <use transform="matrix(0.848,-0.53,0.53,0.848,-6.63,32.87)" xlink:href="#hqu1" />
        <use transform="matrix(0.669,-0.743,0.743,0.669,-2.94,49.39)" xlink:href="#hqu1" />
        <use transform="matrix(0.438,-0.899,0.899,0.438,5.16,64.26)" xlink:href="#hqu1" />
        <path d="M 56.5,77.5 61,57.35 A 30.2,30.2 0 0 1 45,56.8 L 49,77.5 z" style="fill:#0022cc" />
        <path d="M 52.5,76 56,74 M 52.75,74 56.25,72 M 53,72 56.5,70 M 53.25,70 56.75,68 M 53.5,68 57,66 M 53.75,66 57.25,64 M 54,64 57.5,62 M 54.25,62 57.75,60 M 54.5,60 58,58" id="hqu2" style="fill:none;stroke:#ffffff;stroke-width:1" />
        <use transform="matrix(-1,0,0,1,105.5,0)" xlink:href="#hqu2" />
        <rect width="3.5" height="19.5" x="51" y="58" style="fill:#ffce09;stroke:#000000;stroke-width:0.5" />
        <path d="M 56.5,77.5 61,57.35 A 30.2,30.2 0 0 1 45,56.8 L 49,77.5 z" style="fill:none;stroke:#000000;stroke-width:0.5" />
        <path d="M 71.1,52 A 29.5,29.5 0 0 1 31.8,47.4" style="fill:none;stroke:#ffce09;stroke-width:1" />
        <use transform="matrix(0.3,0,0,0.3,49.6,52.5)" style="fill:#000000" xlink:href="#ht" />
        <use transform="matrix(0.3,0,0,0.3,49.6,56.5)" style="fill:#000000" xlink:href="#ht" />
        <use transform="matrix(0.3,0,0,0.3,49.6,60.5)" style="fill:#000000" xlink:href="#ht" />
        <use transform="matrix(0.3,0,0,0.3,49.6,64.5)" style="fill:#000000" xlink:href="#ht" />
        <g id="hqg3">
          <circle cx="27" cy="60.5" r="1" style="fill:#fa0000" />
          <path d="M 27,57.5 24,60.5 27,63.5 30,60.5 z M 25,58.5 29,58.5 29,62.5 25,62.5 z" style="fill:#fa0000;fill-rule:nonzero;stroke:#ffce09;stroke-width:1.2" />
        </g>
        <use transform="translate(-4.2,13)" xlink:href="#hqg3" />
        <path d="M 20.7,65.07 C 20.65,64.14 21.36,63.49 22.31,63.52 21.36,63.49 20.88,62.49 20.76,61.75 20.98,62.99 20.71,64.46 20.7,65.07 20.69,66.12 22.78,68.28 24.87,65.4 23.3,67.58 25.73,69.76 27.51,67.36 26.97,68.07 26.74,68.96 27.12,69.66 26.59,69 25.85,68.55 25.08,68.21 M 32.16,55.61 C 32.55,56.58 32.26,57.41 31.67,58.17 32.26,57.4 33.45,56.91 34.48,57.02 33.45,56.9 32.55,56.58 32.16,55.61 z M 20.49,79.28 C 19.63,81.44 22.43,82.55 23.49,79.53 22.63,81.93 25.12,82.76 25.48,80.7 25.38,81.28 25.65,82.08 26.03,82.35" id="hqu3" style="fill:none" />
        <use style="stroke:#ffce09;stroke-width:2.4;stroke-linecap:round;stroke-linejoin:round" xlink:href="#hqu3" />
        <use style="stroke:#000000;stroke-width:0.8;stroke-linecap:round;stroke-linejoin:round" xlink:href="#hqu3" />
      </g>
      <use transform="matrix(-1,0,0,-1,100,155)" id="use3370" xlink:href="#hqg2" />
      <path d="M 70.5,53.5 82,66 82,94 C 73.5,104 63.4,111.15 52.7,115.6 M 29.5,101.5 18,89 18,61 C 26.5,51 36.6,43.85 47.3,39.4" style="fill:none;stroke:#000000;stroke-width:0.5" />
      <g id="hqg4">
        <path d="M 70.7,52.5 A 9.1,9.1 0 0 1 65.1,39 7.41367,7.41367 0 0 1 65,24.3 M 60,17 51.5,17 C 52,21 56,24 60,26.5 M 44.7,23 C 48,22 50,20 50.5,17 L 45,17 z" style="fill:#f9f9ff;stroke:#000000;stroke-width:0.5" />
        <path d="M 73,50.9 A 7.2,7.2 0 0 1 66.7,40.2 M 66,37.1 A 5.4,5.4 0 0 1 66,26.3 M 53.5,17 C 54.5,20 57,22 59,23.5 M 48.7,17 C 48,19 47,20.3 44.7,21 M 44.8,19 C 46.2,18.5 46.7,17.7 47,17" style="fill:none;stroke:#000000;stroke-width:0.5" />
        <path d="M 58,17 69,39" style="fill:none;stroke:#fa0000;stroke-width:2" />
        <path d="M 74,17 C 72.5,24.5 73.5,31.5 76,38.5 L 70,38.5 59,17 z M 70,38.5 68,39.5" style="fill:#ffce09;stroke:#000000;stroke-width:0.5" />
        <path d="M 55.5,17 70.5,53.5 75,51.5 57.5,17 z" style="fill:#000000" />
        <path d="M 67,23.8 C 63.8,23.3 64,28 66.6,27.4 67.6,27.2 67.7,26.2 67,25.8 M 69.7,29.3 C 68.1,32.1 64.6,29.1 66.6,27.4 67.4,26.8 68.3,27.3 68.2,28.1 M 70.1,26.2 A 1,1 0 0 1 68.1,26.2 1,1 0 1 1 70.1,26.2 z" id="hqu4" style="fill:none;stroke:#000000;stroke-width:0.5" />
        <use transform="translate(3.4,6.6)" xlink:href="#hqu4" />
        <use transform="translate(-3.4,-6.6)" xlink:href="#hqu4" />
        <rect width="1" height="13" x="76.5" y="49" style="fill:#ffce09;stroke:#000000;stroke-width:0.5" />
        <path d="M 77,59.5 C 79.5,59.5 80.5,55.5 80.5,51 78.5,53.5 77,55.5 77,59.5 z M 77,59.5 C 77,57 75,55 73,54 73,57 75,59 77,59.5 z" style="fill:#ffce09;stroke:#000000;stroke-width:0.5" />
        <path d="M 74,55.5 77,59.5 C 78,58 79,56 79.5,54 M 74.5,48.5 79.5,43.5 M 79.5,48.5 74.5,43.5" style="fill:none;stroke:#000000;stroke-width:0.5" />
        <circle cx="77" cy="46" r="1.6" id="hqu5" />
        <use transform="translate(0,-2.4)" style="fill:#ffce09;stroke:#000000;stroke-width:0.5" xlink:href="#hqu5" />
        <use transform="translate(0,2.4)" style="fill:#ffce09;stroke:#000000;stroke-width:0.5" xlink:href="#hqu5" />
        <use transform="translate(-2.4,0)" style="fill:#ffce09;stroke:#000000;stroke-width:0.5" xlink:href="#hqu5" />
        <use transform="translate(2.4,0)" style="fill:#ffce09;stroke:#000000;stroke-width:0.5" xlink:href="#hqu5" />
        <use style="fill:#fa0000;stroke:#000000;stroke-width:0.5" xlink:href="#hqu5" />
        <path d="M 79.14,60.42 C 79.79,60.62 80.2,61.69 79.59,62.25 L 79.56,62.31 C 80.63,62.35 81.02,64.16 80.36,64.63 81.42,64.79 81.41,66.03 80.73,66.45 L 80.48,66.6 C 81.45,66.82 81.45,67.87 80.76,68.24 L 79.05,69.15 C 78.94,70.16 78.48,70.8 77.65,71.01 74.93,71.72 73.14,69.02 73.35,65.89 73.49,64.34 74.51,62.5 76.5,62 L 78.41,60.55 C 78.66,60.36 78.92,60.35 79.14,60.42 z" style="fill:#fdf9ee" />
        <path d="M 79.05,69.14 C 78.89,70.37 78.34,70.87 77.65,71.01 74.56,71.66 73.15,68.54 73.35,65.89 73.46,64.44 74.47,62.51 76.5,62 77.97,61.63 78.6,62.92 78.14,63.61 77.69,64.28 76.88,64.7 76.25,64.35 76.77,65.41 76.54,66.98 75.48,67.66 M 80.39,66.58 C 81.46,66.74 81.46,67.84 80.75,68.22 L 79.05,69.14 C 78.44,69.47 77.71,68.62 78.15,67.89 M 80.35,64.62 C 81.42,64.78 81.41,66.03 80.73,66.45 L 78.6,67.76 C 77.81,68.25 77.18,67.01 77.7,66.18 M 79.56,62.32 C 80.63,62.35 81.01,64.15 80.35,64.62 L 78.35,66.02 C 77.59,66.55 76.57,65.62 77.11,64.44 M 76.5,62 78.43,60.55 C 79.4,59.82 80.41,61.51 79.6,62.26 L 78.14,63.61" style="fill:none;stroke:#000000;stroke-width:0.5" />
      </g>
      <use transform="matrix(-1,0,0,-1,100,155)" xlink:href="#hqg4" />
    </g>
    <use xlink:href="#pfl" />
  </g>
</svg>
