<?xml version="1.0" encoding="UTF-8" standalone="no"?>
<svg xmlns="http://www.w3.org/2000/svg" xmlns:xlink="http://www.w3.org/1999/xlink" version="1.1" viewBox="0 0 101 156" id="pad" >
  <defs>
    <clipPath id="cpf">
      <rect width="100" height="155" ry="8" x="0" y="0" id="card" style="fill:#ffffff;stroke:#000000;stroke-width:1" />
    </clipPath>
    <g id="cl">
      <path d="M 11.25,28.3 A 1,1 0 0 0 10.8,28 C 10.8,29 11.1,30.2 12,30.9 L 9,30.9 C 9.9,30.2 10.2,29 10.2,28 A 1,1 0 0 0 9.75,28.3 2.2,2.2 0 1 1 9.8,25.3 1,1 0 0 0 10.02,25.46 2.5,2.5 0 0 0 9.1,24.2 2.2,2.2 0 1 1 11.9,24.2 2.5,2.5 0 0 0 10.98,25.46 1,1 0 0 0 11.2,25.3 2.2,2.2 0 1 1 11.25,28.3" id="cl0" />
      <path d="M 6.5,25.75 C 6.22,26.19 6.76,26.27 6.88,26.08 7.27,25.43 7.95,25.19 8.64,25.35 8.81,25.39 9.03,25.04 8.67,24.91 7.95,24.63 6.96,25.02 6.5,25.75 z M 11.86,25.48 C 12.32,25.34 12.86,25.22 13.27,25.37 13.44,25.44 13.67,25.03 13.31,24.91 12.82,24.74 12.22,24.83 11.74,25.13 11.51,25.28 11.45,25.6 11.86,25.48 z M 8.83,21.49 C 8.54,21.93 9.09,22.01 9.21,21.81 9.6,21.16 10.29,20.9 10.96,21.11 11.13,21.16 11.36,20.77 11,20.64 10.26,20.39 9.29,20.76 8.83,21.49 z M 10.09,29.71 C 10.14,29.58 10.18,29.45 10.24,29.26 10.35,28.86 10.71,29.16 10.38,29.91 10.25,30.17 9.92,30.16 10.09,29.71 z" style="opacity:0.8;fill:#ffffff" />
    </g>
    <path d="M 7.30469,6.33594 13.2109,6.33594 13.2109,7.66406 8.74219,7.66406 8.74219,10.5312 C 8.96614,10.4479 9.1901,10.388 9.41406,10.3516 9.64323,10.3099 9.87239,10.2891 10.1016,10.2891 11.3099,10.2891 12.2682,10.6458 12.9766,11.3594 13.6849,12.0729 14.0391,13.0391 14.0391,14.2578 14.0391,15.487 13.6667,16.4557 12.9219,17.1641 12.1823,17.8724 11.1693,18.2266 9.88281,18.2266 9.26302,18.2266 8.69531,18.1849 8.17969,18.1016 7.66927,18.0182 7.21094,17.8932 6.80469,17.7266 L 6.80469,16.125 C 7.28385,16.3854 7.76562,16.5807 8.25,16.7109 8.73437,16.8359 9.22916,16.8984 9.73437,16.8984 10.6042,16.8984 11.2734,16.6693 11.7422,16.2109 12.2161,15.7526 12.4531,15.1016 12.4531,14.2578 12.4531,13.4245 12.2083,12.776 11.7187,12.3125 11.2344,11.849 10.5573,11.6172 9.6875,11.6172 9.26562,11.6172 8.85416,11.6667 8.45312,11.7656 8.05208,11.8594 7.66927,12.0026 7.30469,12.1953 L 7.30469,6.33594" id="t5" />
  </defs>
  <g transform="translate(0.5,0.5)" id="5_club">
    <use xlink:href="#card" />
    <use xlink:href="#t5" />
    <use transform="translate(79,0)" xlink:href="#t5" />
    <use transform="matrix(-1,0,0,-1,21,155)" xlink:href="#t5" />
    <use transform="matrix(-1,0,0,-1,100,155)" xlink:href="#t5" />
    <use xlink:href="#cl0" />
    <use transform="translate(79,0)" xlink:href="#cl0" />
    <use transform="matrix(-1,0,0,-1,21,155)" xlink:href="#cl0" />
    <use transform="matrix(-1,0,0,-1,100,155)" xlink:href="#cl0" />
    <use transform="matrix(2,0,0,2,6,-23)" xlink:href="#cl" />
    <use transform="matrix(2,0,0,2,52,-23)" xlink:href="#cl" />
    <use transform="matrix(2,0,0,2,29,26.5)" xlink:href="#cl" />
    <use transform="matrix(-2,0,0,-2,48,178)" xlink:href="#cl" />
    <use transform="matrix(-2,0,0,-2,94,178)" xlink:href="#cl" />
  </g>
</svg>
