<?xml version="1.0" encoding="UTF-8" standalone="no"?>
<svg xmlns="http://www.w3.org/2000/svg" xmlns:xlink="http://www.w3.org/1999/xlink" version="1.1" viewBox="0 0 101 156" id="pad" >
  <defs>
    <clipPath id="cpf">
      <rect width="100" height="155" ry="8" x="0" y="0" id="card" style="fill:#ffffff;stroke:#000000;stroke-width:1" />
    </clipPath>
    <pattern patternTransform="translate(12.5 13)" id="chain" height="6" width="6" patternUnits="userSpaceOnUse">
      <path style="fill:#ffffff;fill-rule:evenodd" d="M 0,0 3,0 3,6 6,6 6,3 0,3 0,0 z M 2.4,1.5 A 0.9,0.9 0 0 1 0.6,1.5 0.9,0.9 0 1 1 2.4,1.5 z M 5.4,1.5 A 0.9,0.9 0 1 1 3.6,1.5 0.9,0.9 0 1 1 5.4,1.5 z M 5.4,4.5 A 0.9,0.9 0 0 1 3.6,4.5 0.9,0.9 0 1 1 5.4,4.5 z M 2.4,4.5 A 0.9,0.9 0 1 1 0.6,4.5 0.9,0.9 0 1 1 2.4,4.5 z" />
    </pattern>
    <g id="fleur" style="stroke-width:0">
      <path id="flc" d="M 1.4,4.3 C 1.7,3.8 1.7,3.2 0.6,3 1.7,2.8 1.7,2.2 1.4,1.7 2.2,2.4 3.4,3 4.4,3 3.4,3 2.2,3.6 1.4,4.3 z" style="stroke-width:0.8;stroke-linejoin:round" />
      <circle cx="4.3" cy="1.5" r="0.6" />
      <circle cx="4.3" cy="4.5" r="0.6" />
      <circle cx="6" cy="3" r="0.6" />
    </g>
    <marker markerUnits="userSpaceOnUse" refX="3" refY="3" markerWidth="8" markerHeight="8" orient="auto" id="wfl">
      <use style="fill:#ffffff;stroke:#ffffff" xlink:href="#fleur" />
    </marker>
    <pattern style="overflow:visible" y="22" x="21" patternUnits="userSpaceOnUse" id="lict" height="52" width="16">
      <path d="M 1,-1 1,53 M 3,-1 3,53 M 5,-1 5,53 M 7,-1 7,53 M 9,-1 9,53 M 11,-1 11,53 M 13,-1 13,53 M 15,-1 15,53" style="fill:none;stroke:#ffffff;stroke-width:0.5" />
      <path id="l1" d="M 7,7.1 7,8.4 2.5,12.8 A 1.4,1.4 0 0 0 3,15.2 L 3,14 7.5,9.5 A 1.4,1.4 0 0 0 7,7.1 z" style="fill:#ffffff" />
      <use xlink:href="#l1" transform="translate(0,5)" />
      <use xlink:href="#l1" transform="translate(0,10)" />
      <use xlink:href="#l1" transform="translate(8,27)" />
      <use xlink:href="#l1" transform="translate(8,32)" />
      <use xlink:href="#l1" transform="translate(8,37)" />
    </pattern>
  </defs>
  <g transform="translate(0.5,0.5)" id="back">
    <use xlink:href="#card" />
    <rect width="100" height="155" ry="8" x="0" y="0" style="fill:none;stroke:#000000;stroke-width:1" />
    <rect width="85" height="139" x="7.5" y="8" style="fill:#762d4a;stroke:none" />
    <path d="M 11,11.5 11,143.5 89,143.5 89,11.5 z" style="fill:none;stroke:url(#chain);stroke-width:2.9" />
    <rect width="72" height="126" x="14" y="14.5" style="fill:none;stroke:#ffffff" />
    <path d="M 18,139.5 18,129.5 18,121.5 18,113.5 18,105.5 18,97.5 18,89.5 18,81.5 18,73.5 18,65.5 18,57.5 18,49.5 18,41.5 18,33.5 18,25.5 C 18,22.5 19,18.5 22,18.5 L 30,18.5 38,18.5 46,18.5 54,18.5 62,18.5 70,18.5 78,18.5 84,18.5" id="cu" style="fill:#ffffff;fill-opacity:0;marker-mid:url(#wfl)" />
    <use transform="matrix(-1,0,0,-1,100,155)" xlink:href="#cu" />
    <rect width="56" height="110" x="22" y="22.5" style="fill:url(#lict);stroke:#ffffff" />
  </g>
</svg>
