<?xml version="1.0" encoding="UTF-8" standalone="no"?>
<svg xmlns="http://www.w3.org/2000/svg" xmlns:xlink="http://www.w3.org/1999/xlink" version="1.1" viewBox="0 0 101 156" id="pad" >
  <defs>
    <clipPath id="cpf">
      <rect width="100" height="155" ry="8" x="0" y="0" id="card" style="fill:#ffffff;stroke:#000000;stroke-width:1" />
    </clipPath>
  <g id="ht">
    <path d="M 14.8,24.1 C 15,21.1 12.2,20 10.5,21.9 8.7,20 6,21.1 6.2,24.1 6.333,26.1 9.4,29 10.5,31 11.6,29 14.667,26.1 14.8,24.1 z" id="ht0" />
    <path d="M 7.14,22.55 C 6.99,22.81 6.3,23.11 6.81,22.23 7.3,21.41 8.06,21.06 9,21.31 9.46,21.43 9.11,21.76 8.81,21.7 8.12,21.57 7.54,21.88 7.14,22.55 z M 10.6,22.36 C 11.19,22.35 11.84,21.51 12.77,21.71 13.01,21.76 13.45,21.41 12.89,21.25 12.19,21.05 11.21,21.42 10.64,22.02 10.49,22.21 10.44,22.37 10.6,22.36 z" style="opacity:0.8;fill:white" />
  </g>
    <path d="M 13.4297,6.59375 13.4297,8.04687 C 13.1016,7.85418 12.7526,7.70834 12.3828,7.60937 12.013,7.50522 11.6276,7.45314 11.2266,7.45312 10.2266,7.45314 9.46875,7.83074 8.95312,8.58594 8.4375,9.33595 8.17969,10.4427 8.17969,11.9062 8.42968,11.3854 8.77604,10.987 9.21875,10.7109 9.66145,10.4297 10.1693,10.2891 10.7422,10.2891 11.8672,10.2891 12.737,10.6354 13.3516,11.3281 13.9713,12.0156 14.2812,12.9922 14.2812,14.2578 14.2812,15.5182 13.9635,16.4948 13.3281,17.1875 12.6927,17.8802 11.7995,18.2266 10.6484,18.2266 9.29427,18.2266 8.30208,17.7422 7.67187,16.7734 7.04167,15.7995 6.72656,14.2682 6.72656,12.1797 6.72656,10.2109 7.10417,8.71095 7.85937,7.67969 8.61979,6.64324 9.71875,6.12501 11.1562,6.125 11.5417,6.12501 11.9271,6.16668 12.3125,6.25 12.6979,6.32814 13.0703,6.44272 13.4297,6.59375 M 10.6172,11.5234 C 9.94531,11.5234 9.41666,11.7656 9.03125,12.25 8.64583,12.7344 8.45312,13.4037 8.45312,14.2578 8.45312,15.112 8.64583,15.7813 9.03125,16.2656 9.41666,16.75 9.94531,16.9922 10.6172,16.9922 11.3151,16.9922 11.8411,16.763 12.1953,16.3047 12.5495,15.8411 12.7266,15.1589 12.7266,14.2578 12.7266,13.3516 12.5495,12.6693 12.1953,12.2109 11.8411,11.7526 11.3151,11.5234 10.6172,11.5234" id="t6" />
  </defs>
  <g transform="translate(0.5,0.5)" id="6_heart" style="fill:#fa0000">
    <use xlink:href="#card" />
    <use xlink:href="#t6" />
    <use transform="translate(79,0)" xlink:href="#t6" />
    <use transform="matrix(-1,0,0,-1,21,155)" xlink:href="#t6" />
    <use transform="matrix(-1,0,0,-1,100,155)" xlink:href="#t6" />
    <use xlink:href="#ht0" />
    <use transform="translate(79,0)" xlink:href="#ht0" />
    <use transform="matrix(-1,0,0,-1,21,155)" xlink:href="#ht0" />
    <use transform="matrix(-1,0,0,-1,100,155)" xlink:href="#ht0" />
    <use transform="matrix(2,0,0,2,6,-23)" xlink:href="#ht" />
    <use transform="matrix(2,0,0,2,52,-23)" xlink:href="#ht" />
    <use transform="matrix(2,0,0,2,6,26.5)" xlink:href="#ht" />
    <use transform="matrix(2,0,0,2,52,26.5)" xlink:href="#ht" />
    <use transform="matrix(-2,0,0,-2,48,178)" xlink:href="#ht" />
    <use transform="matrix(-2,0,0,-2,94,178)" xlink:href="#ht" />
  </g>
</svg>
