<?xml version="1.0" encoding="UTF-8" standalone="no"?>
<svg xmlns="http://www.w3.org/2000/svg" xmlns:xlink="http://www.w3.org/1999/xlink" version="1.1" viewBox="0 0 101 156" id="pad" >
  <defs>
    <clipPath id="cpf">
      <rect width="100" height="155" ry="8" x="0" y="0" id="card" style="fill:#ffffff;stroke:#000000;stroke-width:1" />
    </clipPath>
  <g id="di">
    <path d="M 10.5,20 C 10,21 6.8,24.9 6,25.5 6.8,26.1 10,30 10.5,31 11,30 14.3,26.1 15,25.5 14.3,24.9 11,21 10.5,20 z" id="di0" />
    <path d="M 10,21.16 C 10.17,20.92 10.32,20.81 10.44,20.8 10.65,20.76 10.63,21.21 10.41,21.42 10.3,21.52 10.21,21.63 10.12,21.75 9.23,22.98 7.36,25.06 7.3,25.2 7.16,25.49 6.53,25.36 6.84,25.01 7.56,24.2 9.21,22.26 10,21.16 z" style="opacity:0.8;fill:white" />
  </g>
    <path d="M 8.60156,16.6719 13.9609,16.6719 13.9609,18 6.875,18 6.875,16.6719 C 7.84896,15.6458 8.70052,14.7396 9.42969,13.9531 10.1588,13.1667 10.6615,12.612 10.9375,12.2891 11.4583,11.6537 11.8099,11.1406 11.9922,10.75 12.1745,10.3542 12.2656,9.95053 12.2656,9.53906 12.2656,8.88803 12.0729,8.37761 11.6875,8.00781 11.3073,7.63803 10.7838,7.45314 10.1172,7.45312 9.64323,7.45314 9.14583,7.53907 8.625,7.71094 8.10416,7.88282 7.55208,8.14324 6.96875,8.49219 L 6.96875,6.89844 C 7.50521,6.64324 8.03125,6.45053 8.54687,6.32031 9.0677,6.19012 9.58073,6.12501 10.0859,6.125 11.2266,6.12501 12.1432,6.4297 12.8359,7.03906 13.5338,7.64324 13.8828,8.43751 13.8828,9.42187 13.8828,9.92188 13.7656,10.4219 13.5312,10.9219 13.3021,11.4219 12.9271,11.974 12.4062,12.5781 12.1146,12.9167 11.6901,13.3854 11.1328,13.9844 10.5807,14.5833 9.73698,15.4792 8.60156,16.6719" id="t2" />
  </defs>
  <g transform="translate(0.5,0.5)" id="2_diamond" style="fill:#fa0000">
    <use xlink:href="#card" />
    <use xlink:href="#t2" />
    <use transform="translate(79,0)" xlink:href="#t2" />
    <use transform="matrix(-1,0,0,-1,21,155)" xlink:href="#t2" />
    <use transform="matrix(-1,0,0,-1,100,155)" xlink:href="#t2" />
    <use id="use10081" xlink:href="#di0" />
    <use transform="translate(79,0)" xlink:href="#di0" />
    <use transform="matrix(-1,0,0,-1,21,155)" xlink:href="#di0" />
    <use transform="matrix(-1,0,0,-1,100,155)" xlink:href="#di0" />
    <use transform="matrix(2,0,0,2,29,-23)" xlink:href="#di" />
    <use transform="matrix(-2,0,0,-2,71,178)" xlink:href="#di" />
  </g>
</svg>
