<?xml version="1.0" encoding="UTF-8" standalone="no"?>
<svg xmlns="http://www.w3.org/2000/svg" xmlns:xlink="http://www.w3.org/1999/xlink" version="1.1" viewBox="0 0 101 156" id="pad" >
  <defs>
    <clipPath id="cpf">
      <rect width="100" height="155" ry="8" x="0" y="0" id="card" style="fill:#ffffff;stroke:#000000;stroke-width:1" />
    </clipPath>
  <g id="di">
    <path d="M 10.5,20 C 10,21 6.8,24.9 6,25.5 6.8,26.1 10,30 10.5,31 11,30 14.3,26.1 15,25.5 14.3,24.9 11,21 10.5,20 z" id="di0" />
    <path d="M 10,21.16 C 10.17,20.92 10.32,20.81 10.44,20.8 10.65,20.76 10.63,21.21 10.41,21.42 10.3,21.52 10.21,21.63 10.12,21.75 9.23,22.98 7.36,25.06 7.3,25.2 7.16,25.49 6.53,25.36 6.84,25.01 7.56,24.2 9.21,22.26 10,21.16 z" style="opacity:0.8;fill:white" />
  </g>
    <path d="M 10.8047,18.2109 C 10.7682,18.2109 10.7161,18.2135 10.6484,18.2188 10.5807,18.224 10.526,18.2266 10.4844,18.2266 9.18229,18.2266 8.20833,17.7266 7.5625,16.7266 6.92187,15.7266 6.60156,14.2109 6.60156,12.1797 6.60156,10.1432 6.92187,8.62501 7.5625,7.625 8.20833,6.62501 9.1875,6.12501 10.5,6.125 11.8177,6.12501 12.7969,6.62501 13.4375,7.625 14.0833,8.62501 14.4062,10.1432 14.4062,12.1797 14.4062,13.7109 14.2266,14.9453 13.8672,15.8828 13.513,16.8151 12.974,17.4688 12.25,17.8438 L 13.8125,19.3281 12.6328,20.1094 10.8047,18.2109 M 12.7578,12.1797 C 12.7578,10.4662 12.5807,9.2422 12.2266,8.50781 11.8776,7.77345 11.3021,7.40626 10.5,7.40625 9.70312,7.40626 9.1276,7.77345 8.77344,8.50781 8.42448,9.2422 8.25,10.4662 8.25,12.1797 8.25,13.888 8.42448,15.1094 8.77344,15.8437 9.1276,16.5781 9.70312,16.9453 10.5,16.9453 11.3021,16.9453 11.8776,16.5807 12.2266,15.8516 12.5807,15.1172 12.7578,13.8932 12.7578,12.1797" id="tQ" />
    <clipPath id="pfc">
      <rect width="63.5" height="120.5" x="18.25" y="17.25" id="pfl" style="fill:none;stroke:#000000;stroke-width:0.5" />
    </clipPath>
    <clipPath id="dqc1">
      <path d="M 38,129 9,86 62,26 91,69 z" id="dqu1" />
    </clipPath>
  </defs>
  <g transform="translate(0.5,0.5)" id="queen_diamond" style="fill:#fa0000">
    <use xlink:href="#card" />
    <use xlink:href="#tQ" />
    <use transform="translate(79,0)" xlink:href="#tQ" />
    <use transform="matrix(-1,0,0,-1,21,155)" xlink:href="#tQ" />
    <use transform="matrix(-1,0,0,-1,100,155)" xlink:href="#tQ" />
    <use xlink:href="#di0" />
    <use transform="translate(79,0)" xlink:href="#di0" />
    <use transform="matrix(-1,0,0,-1,21,155)" xlink:href="#di0" />
    <use transform="matrix(-1,0,0,-1,100,155)" xlink:href="#di0" />
    <g clip-path="url(#pfc)">
      <g id="dqg5">
        <path d="M 19.7,54.6 C 20.7,57 23.6,58.5 26,57.2 25,54.6 22.1,54 19.7,54.6 z M 26,59 C 28,60 31,58 32,55 29,55.2 26,56.5 26,59 z" style="fill:#ffce09;stroke:#000000;stroke-width:0.5" />
        <path d="M 26.4,53 C 27,62 21.5,64 21.3,69.8" style="fill:none;stroke:#000000;stroke-width:2;stroke-linecap:round" />
        <path d="M 26.4,53 C 27,62 21.5,64 21.3,69.8" style="fill:none;stroke:#ffce09;stroke-width:1;stroke-linecap:round" />
        <path d="M 26.4,53.8 A 2.5,2.5 0 0 1 22.4,50.8 2.5,2.5 0 0 1 25.4,46.8 2.5,2.5 0 0 1 29.4,49.8 2.5,2.5 0 0 1 26.4,53.8 z" style="fill:#ffce09;stroke:#000000;stroke-width:0.5" />
        <path d="M 23.5,48.5 28.3,52.1 M 24.1,52.7 27.7,47.9" style="fill:none;stroke:#000000;stroke-width:0.5" />
        <circle cx="25.9" cy="50.3" r="1.2" style="fill:#fa0000;stroke:#000000;stroke-width:0.5" />
        <path d="M 22.79,56.57 C 21.87,56.86 21.3,58.11 22.15,58.68 L 22.19,58.74 C 20.69,58.89 20.13,60.97 21.06,61.44 19.57,61.72 19.58,63.11 20.54,63.52 L 20.9,63.66 C 19.53,64 19.53,65.19 20.5,65.53 L 22.91,66.39 C 23.06,67.51 23.72,68.18 24.89,68.34 28.71,68.86 31.28,65.64 30.95,62.15 30.78,60.41 29.31,58.44 26.5,58.08 L 23.82,56.64 C 23.46,56.46 23.1,56.47 22.79,56.57 z" style="fill:#fdf9ee" />
        <path d="M 22.9,66.38 C 23.13,67.75 23.91,68.25 24.87,68.34 29.24,68.76 31.22,65.1 30.94,62.15 30.78,60.52 29.36,58.45 26.5,58.08 24.43,57.82 23.54,59.33 24.19,60.06 24.82,60.76 25.97,61.16 26.85,60.7 26.12,61.95 26.44,63.69 27.94,64.35 M 21.01,63.63 C 19.51,63.92 19.51,65.16 20.51,65.51 L 22.9,66.38 C 23.77,66.68 24.8,65.66 24.18,64.88 M 21.07,61.42 C 19.57,61.71 19.58,63.11 20.54,63.52 L 23.54,64.77 C 24.65,65.24 25.54,63.79 24.81,62.9 M 22.19,58.75 C 20.67,58.89 20.14,60.96 21.07,61.42 L 23.89,62.79 C 24.96,63.32 26.4,62.17 25.64,60.89 M 26.5,58.08 23.78,56.65 C 22.41,55.92 20.98,57.93 22.13,58.69 L 24.19,60.06" style="fill:none;stroke:#000000;stroke-width:0.5" />
        <path d="M 41,53 A 34,34 0 0 1 49,27 L 60,50 z" id="dqu6" style="fill:#fa0000;stroke:#000000;stroke-width:5" />
      </g>
      <use transform="matrix(-1,0,0,-1,100,155)" xlink:href="#dqg5" />
      <g clip-path="url(#dqc1)">
        <g id="dqg1">
          <path d="M 32,60 40,67 42,61 34,57 z" style="fill:#0022cc" />
          <path d="M 39,76 A 41,41 0 0 1 42.2,60 L 62,60 62,80 z" style="fill:#fa0000" />
          <circle cx="55" cy="27" r="34" style="fill:none;stroke:#000000;stroke-width:6" />
          <circle cx="55" cy="27" r="36" style="fill:none;stroke:#ffffff;stroke-width:1" />
          <path d="M 48.2,72.5 A 32,32 0 0 1 54.5,56.7" style="fill:none;stroke:#000000;stroke-width:9" />
          <path d="M 54.1,57.3 50,58.2 50.5,59.6 49,60 49.5,61.5 48.1,62 48.6,63.4 47.3,63.9 47.9,65.3 46.6,66 47.3,67.3 46,68 48.3,71.4 51.7,69.3 51,68.2 52.1,67.6 51.5,66.5 52.7,65.9 52.2,64.8 53.3,64.3 52.9,63.1 54.1,62.7 53.8,61.4 55,61.1 54.1,57.3 z" style="fill:#ffce09" />
          <path d="M 48.2,72.5 A 32,32 0 0 1 54.5,56.7" style="fill:none;stroke:#000000;stroke-width:3" />
          <path d="M 48.2,72.5 A 32,32 0 0 1 54.5,56.7" style="fill:none;stroke:#ffce09;stroke-width:2" />
          <path d="M 48.2,72.5 A 32,32 0 0 1 54.5,56.7" style="fill:none;stroke:#000000;stroke-width:1;stroke-linecap:round;stroke-dasharray:0, 1.5;stroke-dashoffset:0.9" />
          <circle cx="55" cy="27" r="45.5" style="fill:none;stroke:#000000;stroke-width:5" />
        </g>
        <use transform="matrix(-1,0,0,-1,100,155)" xlink:href="#dqg1" />
        <g id="dqg2">
          <path d="M 43,47 50,39 63,35 69,47 z" style="fill:#fdf9ee" />
          <circle cx="80" cy="76" r="21" style="fill:#fa0000;stroke:#0022cc;stroke-width:6" />
          <circle cx="80" cy="76" r="23" style="fill:none;stroke:#ffffff;stroke-width:1" />
          <circle cx="80" cy="76" r="21.4" style="fill:none;stroke:#ffffff;stroke-width:1" />
          <circle cx="80" cy="76" r="19.8" style="fill:none;stroke:#ffffff;stroke-width:1" />
          <path d="M 71,61.6 A 40,40 0 0 1 60.43,88.1 23,23 0 0 0 67,95 L 80.5,79.7 80.5,72.2 z" style="fill:#000000" />
          <g id="dqg3" style="fill:#ffce09">
            <circle cx="75.5" cy="69.6" r="1.2" />
            <path d="M 75.5,75.4 C 75,75.4 73.7,71.4 75.5,71.4 77.3,71.4 76,75.4 75.5,75.4 z M 79.6,73.7 C 79.25,74.05 75.5,72.15 76.77,70.87 78.05,69.6 79.95,73.35 79.6,73.7 z" id="dqu2" />
            <use transform="matrix(0,-1,1,0,5.9,145.1)" xlink:href="#dqu2" />
            <use transform="matrix(-1,0,0,-1,151,139.2)" xlink:href="#dqu2" />
            <use transform="matrix(0,1,-1,0,145.1,-5.9)" xlink:href="#dqu2" />
          </g>
          <circle cx="78.2" cy="75.6" r="1.2" style="fill:#ffce09" />
          <circle cx="73.4" cy="78.9" r="1.2" style="fill:#ffce09" />
          <use transform="translate(-7.7,17)" xlink:href="#dqg3" />
          <path d="M 74,75.2 69,80.2 69,77.5 71.3,77.5 71.3,75.2 z M 72.9,82.6 77.9,77.6 77.9,80.3 75.6,80.3 75.6,82.6 z" style="fill:#ffce09" />
          <path d="M 70,56 82,69 82,46 z" style="fill:#0022cc" />
          <path d="M 64.4,51 83.4,72.2" style="stroke:#000000;stroke-width:3" />
          <path d="M 71,61.6 A 40,40 0 0 1 60.43,88.1 23,23 0 0 0 67,95 L 80.5,79.7 80.5,72.2 z" style="fill:none;stroke:#000000;stroke-width:2" />
          <path d="M 71,61.6 A 40,40 0 0 1 60.43,88.1 23,23 0 0 0 67,95 L 80.5,79.7 80.5,72.2 z" style="fill:none;stroke:#ffce09;stroke-width:1" />
          <circle cx="55" cy="27" r="26" style="fill:none;stroke:#000000;stroke-width:14" />
          <circle cx="55" cy="27" r="21" style="fill:none;stroke:#ffce09;stroke-width:1" />
          <circle cx="55" cy="27" r="32" style="fill:none;stroke:#ffce09;stroke-width:1" />
          <g id="dqu4" style="fill:#ffce09">
            <path d="M 42.74,45.27 A 22,22 0 0 0 44.65,46.42 L 40.41,54.36 A 31,31 0 0 1 37.72,52.74 L 39.39,50.25 A 28,28 0 0 0 44.38,52.92 L 45.52,50.14 A 25,25 0 0 1 41.06,47.76 z" />
            <circle cx="45.05" cy="48.15" r="0.8" />
            <circle cx="41.35" cy="49.7" r="0.85" />
            <circle cx="42.4" cy="53.8" r="0.9" />
          </g>
          <use transform="matrix(0.979575,-0.201078,0.201078,0.979575,-4.30574,11.6107)" xlink:href="#dqu4" />
          <use transform="matrix(0.919135,-0.393942,0.393942,0.919135,-6.18888,23.8501)" xlink:href="#dqu4" />
          <use transform="matrix(0.821149,-0.570714,0.570714,0.821149,-5.57248,36.2182)" xlink:href="#dqu4" />
          <use transform="matrix(0.689619,-0.724172,0.724172,0.689619,-2.48173,48.2097)" xlink:href="#dqu4" />
          <use transform="matrix(0.529919,-0.848048,0.848048,0.529919,2.95711,59.3348)" xlink:href="#dqu4" />
          <use transform="matrix(0.348572,-0.937282,0.937282,0.348572,10.5219,69.139)" xlink:href="#dqu4" />
        </g>
        <use transform="matrix(-1,0,0,-1,100,155)" xlink:href="#dqg2" />
      </g>
      <use transform="matrix(-1,0,0,-1,100,155)" style="fill:none;stroke:#000000;stroke-width:0.5" xlink:href="#dqu1" />
      <g id="dqg4">
        <path d="M 47.2,17 46.8,26 C 46.1,40.8 48.4,46 53.4,46 56.4,46 63.1,41.4 63.4,35.6 L 63,17" style="fill:#fdf9ee;stroke:#000000;stroke-width:0.5" />
        <path d="M 46.73,30.34 C 48.54,31.05 50.17,31.24 51.36,30.24 50.27,29.1 48.63,28.88 46.73,30.34 z M 54.16,30.16 C 55.26,31.41 58.16,31.22 59.96,30.39 58.15,29.17 55.69,28.78 54.16,30.16 z M 49,34 C 49.78,33.65 50.43,33.01 51.25,31.88 M 56.59,34.42 C 55.49,33.78 54.41,32.47 53.88,31.36 M 51.25,42.03 C 51.92,42.47 53.13,42.33 53.77,42.03 M 53.64,28.25 C 55.1,26.85 58.68,27.12 60.75,29.07 M 46.79,28.25 C 47.93,27.6 50.07,27.36 50.92,28.6 51.16,28.95 51.42,29.7 51.41,30.39 51.36,33.11 50.13,35.28 50.19,36.43 50.26,37.77 51.69,37.26 51.91,36.52 52.08,37.17 54.12,37.83 54.14,36.2 M 49.8,40.05 C 51.78,40.65 52.83,40.82 55.24,39.97 53.71,40.07 52.96,39.34 52.52,40.01 51.93,39.41 51.37,40.07 49.8,40.05 z" style="fill:none;stroke:#000000;stroke-width:0.5;stroke-linejoin:round" />
        <path d="M 48.5,29.4 48.6,30.8 49.8,30.8 50,29.4 M 55.6,29.4 55.7,30.8 57,30.9 57.2,29.4 M 50.4,40.1 52.4,40.5 54.5,40.1 52.4,39.8" style="fill:#000000" />
        <path d="M 47.2,17 46.8,26 A 15,15 0 0 0 53,17" style="fill:#f9f9ff;stroke:#000000;stroke-width:0.5" />
        <path d="M 62,17 51,17 A 11,11 0 0 0 62,26 23,29 0 0 0 78,54" style="fill:#f9f9ff;stroke:#000000;stroke-width:0.5" />
        <path d="M 64.5,32 A 10,15 0 0 0 65.2,41 M 67,36 A 10,15 0 0 0 68,46 M 69.5,40.1 A 10,15 0 0 0 71,49.3 M 71.9,44.3 A 10,15 0 0 0 74.3,52 M 53.5,17 A 9,9 0 0 0 62,23.5 M 47,22.2 A 13,13 0 0 0 50.5,17" style="fill:none;stroke:#000000;stroke-width:0.5" />
        <path d="M 59.3,16.1 74,38.5" id="path3946" style="stroke:#000000;stroke-width:2" />
        <path d="M 55.7,17 82,61 82,51.6 59,17 z" style="fill:#fa0000;stroke:#000000;stroke-width:0.5" />
        <path d="M 74.5,37.9 79.6,37 C 77,30 76,24 76.8,17 L 60.8,17 z" style="fill:#ffce09;stroke:#000000;stroke-width:0.5" />
        <path d="M 64.4,17.4 A 5,5 0 0 0 68.4,23.4 3,3 0 0 1 66.4,20.4 3,3 0 0 1 64.4,17.4 z M 68.8,24 A 5,5 0 0 0 72.8,30 3,3 0 0 1 70.8,27 3,3 0 0 1 68.8,24 z M 73.2,30.6 A 5,5 0 0 0 77.2,36.6 3,3 0 0 1 75.2,33.6 3,3 0 0 1 73.2,30.6 z" style="fill:#000000;stroke:#000000;stroke-width:0.5;stroke-linejoin:round" />
        <g id="dqu5" style="fill:#000000">
          <circle cx="68.8" cy="21.6" r="1.2" />
          <circle cx="70.7" cy="24.3" r="1.2" />
          <circle cx="71.4" cy="21.8" r="1.2" />
        </g>
        <use transform="translate(4.4,6.6)" xlink:href="#dqu5" />
      </g>
      <use transform="matrix(-1,0,0,-1,100,155)" xlink:href="#dqg4" />
    </g>
    <use xlink:href="#pfl" />
    <use transform="matrix(2,0,0,2,8,-21)" xlink:href="#di" />
    <use transform="matrix(-2,0,0,-2,92,176)" xlink:href="#di" />
  </g>
</svg>
